<svg width="108" height="16" viewBox="0 0 108 16" fill="none" xmlns="http://www.w3.org/2000/svg">
<path d="M16.6213 6.11115L10.5818 5.71409L8.30733 0L6.03284 5.71409L0 6.11115L4.62714 10.0401L3.10876 16L8.30733 12.714L13.5059 16L11.9875 10.0401L16.6213 6.11115Z" fill="#191919"/>
<path d="M39.2426 6.11115L33.2032 5.71409L30.9287 0L28.6542 5.71409L22.6213 6.11115L27.2485 10.0401L25.7301 16L30.9287 12.714L36.1273 16L34.6089 10.0401L39.2426 6.11115Z" fill="#191919"/>
<path d="M61.864 6.11115L55.8245 5.71409L53.55 0L51.2755 5.71409L45.2427 6.11115L49.8698 10.0401L48.3514 16L53.55 12.714L58.7486 16L57.2302 10.0401L61.864 6.11115Z" fill="#191919"/>
<path d="M84.4851 6.11115L78.4456 5.71409L76.1711 0L73.8966 5.71409L67.8638 6.11115L72.4909 10.0401L70.9725 16L76.1711 12.714L81.3697 16L79.8513 10.0401L84.4851 6.11115Z" fill="#191919"/>
<path d="M107.106 6.11115L101.067 5.71409L98.7924 0L96.518 5.71409L90.4851 6.11115L95.1123 10.0401L93.5939 16L98.7924 12.714L103.991 16L102.473 10.0401L107.106 6.11115Z" fill="#191919"/>
</svg>
