<svg width="108" height="81" viewBox="0 0 108 81" fill="none" xmlns="http://www.w3.org/2000/svg">
<path d="M103.42 17.2187C103.017 17.2187 102.605 17.2766 102.192 17.3899L97.5294 18.6741L92.6865 6.87753C91.315 3.53591 87.2598 0.817383 83.6473 0.817383H38.3283C34.7163 0.817383 30.6606 3.53591 29.2888 6.87753L24.4529 18.658L19.8477 17.3899C19.4355 17.2766 19.0228 17.2187 18.6205 17.2187C16.4164 17.2187 14.8171 18.9023 14.8171 21.2223V23.9714C14.8171 24.0839 14.8266 24.1942 14.834 24.3055C12.9143 25.5157 11.1124 26.9413 9.46851 28.5852C3.68993 34.3634 0.50708 42.0472 0.50708 50.2202C0.50708 58.3935 3.68993 66.077 9.46851 71.8551C15.2479 77.6345 22.9313 80.8174 31.1043 80.8174C39.2768 80.8174 46.9606 77.6345 52.7396 71.8551C56.1081 68.487 58.5873 64.4686 60.0753 60.0859H88.5783V65.938C88.5783 68.6458 90.7813 70.8488 93.489 70.8488H99.9023C102.61 70.8488 104.813 68.6458 104.813 65.938V42.5029C104.813 39.1464 103.776 33.89 102.502 30.7853L101.72 28.8817H102.313C105.021 28.8817 107.223 26.6788 107.223 23.971V21.2219C107.223 18.9023 105.624 17.2187 103.42 17.2187ZM35.2989 8.37221C36.1192 6.37311 38.5586 4.73785 40.7194 4.73785H81.2559C83.417 4.73785 85.8561 6.37311 86.6764 8.37221L94.0017 26.2149C94.822 28.214 93.7259 29.8492 91.5652 29.8492H53.93C53.5451 29.4192 53.1506 28.9958 52.7396 28.5844C46.9598 22.805 39.2768 19.6226 31.1043 19.6226C30.9608 19.6226 30.8194 19.6313 30.6763 19.6329L35.2989 8.37221ZM31.1043 71.6596C25.3778 71.6596 19.9941 69.4289 15.9446 65.379C11.8951 61.3304 9.66532 55.9467 9.66532 50.2202C9.66532 44.4933 11.8951 39.11 15.9446 35.0605C19.9941 31.0115 25.3778 28.7812 31.1043 28.7812C36.8308 28.7812 42.2145 31.0115 46.264 35.0605C50.313 39.11 52.5432 44.4933 52.5432 50.2202C52.5432 55.9471 50.3134 61.3304 46.264 65.3794C42.2141 69.4289 36.8308 71.6596 31.1043 71.6596ZM95.3612 48.7834C95.3612 49.8638 94.4772 50.7478 93.3968 50.7478H79.4825C78.4021 50.7478 77.5181 49.8638 77.5181 48.7834V42.1051C77.5181 41.0247 78.4021 40.1407 79.4825 40.1407H93.3968C94.4772 40.1407 95.3612 41.0247 95.3612 42.1051V48.7834Z" fill="white"/>
<path d="M44.4376 47.4655L42.7655 47.2703C42.5282 46.4169 42.1891 45.5838 41.7567 44.7874L42.7854 43.4867C43.2799 42.8624 43.2294 41.9635 42.6675 41.3941L40.4609 39.1879C39.9126 38.6392 38.9765 38.5867 38.3675 39.0692L37.1118 40.0644C36.2869 39.5952 35.405 39.2259 34.4851 38.9642L34.2953 37.3331C34.201 36.538 33.5287 35.9385 32.7311 35.9385H29.602C28.8036 35.9385 28.1314 36.5384 28.0387 37.3335L27.849 38.9638C26.9046 39.2309 25.9975 39.6146 25.1478 40.1058L23.8408 39.0692C23.2347 38.5888 22.3011 38.6421 21.7475 39.1871L19.5358 41.3991C18.9715 41.9639 18.9202 42.864 19.4172 43.4921L20.5203 44.8875C20.0932 45.6847 19.7604 46.5269 19.5296 47.3956L17.7708 47.5961C16.9757 47.6891 16.3761 48.361 16.3761 49.159L16.3757 52.2877C16.3761 53.0857 16.9757 53.758 17.7712 53.8518L19.6409 54.0685C19.8836 54.8603 20.2044 55.6231 20.5976 56.3405L19.4176 57.8294C18.9231 58.4537 18.9735 59.3534 19.5358 59.9227L21.7479 62.1343C22.0456 62.4316 22.4404 62.5954 22.8601 62.5954C23.2132 62.5954 23.5617 62.4738 23.8404 62.253L25.3177 61.0841C26.0698 61.503 26.8666 61.8395 27.6906 62.088L27.9122 63.9941C28.0057 64.7896 28.678 65.3891 29.4759 65.3891H32.605C33.4026 65.3891 34.0749 64.7896 34.1688 63.9937L34.3796 62.1658C35.2661 61.921 36.1261 61.5733 36.9402 61.1305L38.3663 62.258C38.6437 62.4775 38.991 62.5987 39.3441 62.5987C39.7638 62.5987 40.1599 62.4353 40.4596 62.1393L42.6712 59.9277C43.236 59.3625 43.2869 58.4628 42.7899 57.8351L41.6835 56.431C42.1354 55.6243 42.4889 54.7792 42.7366 53.9151L44.4355 53.7203C45.231 53.6261 45.8309 52.9538 45.8309 52.1558L45.8305 49.0275C45.8318 48.2304 45.2322 47.5581 44.4376 47.4655ZM38.2067 50.6644C38.2067 54.5812 35.0205 57.7673 31.1038 57.7673C27.187 57.7673 24.0008 54.5812 24.0008 50.6644C24.0008 46.7477 27.187 43.5615 31.1038 43.5615C35.0205 43.5615 38.2067 46.7477 38.2067 50.6644Z" fill="url(#paint0_linear_571_148)"/>
<defs>
<linearGradient id="paint0_linear_571_148" x1="17.6641" y1="36.3073" x2="44.5674" y2="64.1951" gradientUnits="userSpaceOnUse">
<stop stop-color="#F66234"/>
<stop offset="1" stop-color="#C8370B"/>
</linearGradient>
</defs>
</svg>
