<svg width="101" height="100" viewBox="0 0 101 100" fill="none" xmlns="http://www.w3.org/2000/svg">
<path fill-rule="evenodd" clip-rule="evenodd" d="M45.9467 8.91223C44.9407 7.98034 43.8191 7.53133 42.7469 7.53223C41.18 7.53366 39.7195 8.49646 38.8828 10.3172C37.4737 13.384 33.731 14.9346 30.5659 13.7624C27.4002 12.5901 24.7057 14.3909 24.5777 17.7637C24.4495 21.1362 21.5848 24.0009 18.2117 24.1292C14.8394 24.2574 13.0389 26.9523 14.2105 30.1174C15.3828 33.2825 13.8328 37.0253 10.7655 38.4346C7.69905 39.8438 7.06652 43.0228 9.36049 45.4982C11.6549 47.9739 11.6549 52.0249 9.36049 54.5008C7.06652 56.9764 7.69896 60.1551 10.7655 61.5642C13.8328 62.9734 15.3828 66.7163 14.2105 69.8814C13.0389 73.0463 14.8395 75.7409 18.2117 75.8697C21.585 75.9979 24.4492 78.8627 24.5777 82.2352C24.7057 85.6079 27.4003 87.4085 30.5659 86.2365C33.731 85.0647 37.4737 86.6147 38.8828 89.6814C40.2923 92.7485 43.4705 93.3809 45.9467 91.0864C48.4226 88.7918 52.4729 88.7932 54.9491 91.0864C57.4246 93.3809 60.603 92.7484 62.0122 89.6814C63.4213 86.6147 67.1647 85.0647 70.3296 86.2365C73.4946 87.4085 76.1893 85.608 76.3178 82.2352C76.4465 78.8624 79.3108 75.9982 82.6833 75.8697C86.0564 75.7409 87.8569 73.0463 86.6846 69.8814C85.5126 66.7164 87.0631 62.9737 90.1296 61.5642C93.1966 60.1551 93.8286 56.9763 91.5345 54.5008C89.2408 52.025 89.2408 47.974 91.5348 45.4982C93.8287 43.0228 93.1966 39.8438 90.1296 38.4346C87.0633 37.0252 85.5123 33.2826 86.6846 30.1174C87.8569 26.9521 86.0564 24.2575 82.6833 24.1292C79.3109 24.0009 76.4463 21.1362 76.3178 17.7637C76.1893 14.3907 73.4947 12.5903 70.3296 13.7624C67.1647 14.9346 63.4213 13.3842 62.0122 10.3172C61.1756 8.49637 59.7152 7.53384 58.1483 7.53223C57.0761 7.53133 55.9546 7.98034 54.9491 8.91223C53.7106 10.0593 52.0795 10.6329 50.4479 10.6329C48.8155 10.6329 47.1844 10.0594 45.9467 8.91223Z" fill="url(#paint0_linear_432_1802)"/>
<path d="M75.4465 75C89.2536 61.1929 89.2536 38.8071 75.4465 25C61.6394 11.1929 39.2536 11.1929 25.4465 25C11.6394 38.8071 11.6394 61.1929 25.4465 75C39.2536 88.8071 61.6393 88.8071 75.4465 75Z" fill="#231F20"/>
<path fill-rule="evenodd" clip-rule="evenodd" d="M76.87 52.6229C76.8462 52.6706 76.7824 52.9084 76.6853 53.3284C76.587 53.7442 76.479 54.1723 76.356 54.6089C76.2371 55.0441 76.0554 55.4759 75.8164 55.907C75.5772 56.3375 75.351 56.6022 75.1321 56.697C74.9137 56.7919 74.7753 56.8456 74.7104 56.8646C73.9807 57.0784 73.5079 56.8162 73.293 56.0826C73.04 55.2194 73.1944 54.0782 73.7467 52.6577C73.9599 52.1241 74.2518 51.5279 74.6194 50.8746C74.9872 50.2212 75.1837 49.8556 75.2119 49.7725C75.2415 49.693 75.5079 48.4092 76.0167 45.9231C75.5023 46.976 74.9939 47.8556 74.4973 48.5644C74.0006 49.2735 73.4581 49.7494 72.8759 49.9856L72.7909 50.0106C72.4823 50.1007 72.1489 50.0886 71.791 49.9778C71.5143 49.8893 71.2972 49.6845 71.1443 49.3634C70.9299 49.6505 70.7287 49.9008 70.5413 50.1152C70.096 50.6238 69.5998 50.9586 69.0569 51.1175C68.9352 51.1532 68.8223 51.1731 68.7151 51.1827C68.043 51.2476 67.5134 51.1518 67.112 50.8951C66.8881 50.7495 66.7011 50.5514 66.5502 50.3011C66.346 50.6593 66.0887 51.0009 65.7773 51.3259C65.0725 52.0601 64.4059 52.5197 63.7816 52.7026C63.1534 52.8865 62.5567 52.8325 61.9804 52.5479C61.7657 52.4396 61.5821 52.3214 61.4295 52.1926C61.2197 52.4544 60.9931 52.6945 60.7491 52.9129C60.0319 53.5588 59.3037 53.988 58.5618 54.2052C57.816 54.4235 57.182 54.3629 56.6638 54.0216C56.2888 53.7752 55.9893 53.4161 55.7642 52.94C55.5896 53.2977 55.3469 53.7033 55.0351 54.1555C54.4378 55.0171 53.8221 55.5449 53.1862 55.7313C52.5496 55.9179 52.0223 55.8609 51.6085 55.5596C51.1945 55.2587 50.9188 54.8728 50.7808 54.4026C50.6432 53.9324 50.5991 53.4964 50.6529 53.0934C50.2465 54.1408 49.705 55.0876 49.0275 55.9286C48.3507 56.7736 47.7439 57.2727 47.205 57.4305C46.666 57.5884 46.1809 57.5546 45.7448 57.3301C45.475 57.1958 45.2471 57.0093 45.0594 56.7713C44.9835 56.8919 44.9017 57.0163 44.8148 57.1449C44.223 58.0095 43.5789 58.5454 42.886 58.7485C42.4564 58.8745 42.0254 58.8599 41.5842 58.7073C41.1445 58.5588 40.8304 58.1623 40.6429 57.5219C40.4554 56.8814 40.44 56.1994 40.6003 55.4835C39.359 58.5183 38.18 60.2018 37.0609 60.5298C36.6193 60.6592 36.2121 60.6066 35.8479 60.3702C35.4835 60.1335 35.2498 59.8455 35.1512 59.509C35.0527 59.1725 34.9992 58.8098 34.9868 58.4215C34.9796 58.0365 34.9858 57.6823 35.0081 57.3679C35.029 57.0492 35.0839 56.65 35.1725 56.1711C35.2598 55.6875 35.3246 55.3385 35.3744 55.1172C35.4197 54.8969 35.5028 54.5647 35.6132 54.114C35.7272 53.6624 35.8726 53.0611 36.0514 52.3043C36.2292 51.5436 36.393 50.9763 36.5443 50.5931C36.691 50.2069 36.8799 49.9798 37.1097 49.9081C37.3398 49.8364 37.5657 49.8714 37.7957 50.0109C38.0258 50.1503 38.1601 50.2782 38.1956 50.3999C38.2301 50.5175 38.1194 51.1309 37.8702 52.2338C37.1315 55.5268 36.8327 57.4058 36.9703 57.8759C37.0047 57.9934 37.0628 58.0422 37.1523 58.0163C37.5294 57.906 38.2367 56.8052 39.2656 54.7126C40.2953 52.6237 40.8622 51.3133 40.962 50.7823C41.0645 50.2459 41.1815 49.7892 41.3161 49.4065C41.4461 49.0252 41.5596 48.7808 41.6476 48.6757C41.924 48.357 42.33 48.1061 42.8617 47.9372C42.9507 47.9109 43.0196 47.8907 43.0667 47.8859C43.1178 47.88 43.1944 47.9321 43.2921 48.0398C43.394 48.1465 43.4561 48.2384 43.4776 48.3115C43.4684 48.5516 43.3297 49.2349 43.0508 50.3552C42.7714 51.4756 42.6228 52.1093 42.5945 52.2538C42.2247 54.4616 42.1263 55.8548 42.2986 56.4425C42.396 56.7748 42.5704 56.9041 42.8258 56.8293C43.2646 56.6303 43.7133 56.103 44.1648 55.24C44.2465 55.0846 44.3271 54.9292 44.4066 54.7734C44.3764 54.376 44.3893 53.9645 44.4451 53.5382C44.5528 52.7187 44.7811 51.9346 45.1294 51.1856C45.4766 50.4324 45.8933 49.7206 46.3734 49.0476C47.3852 47.633 48.4466 46.7631 49.5573 46.438C49.9827 46.3132 50.3528 46.284 50.6618 46.3476C50.9751 46.4099 51.1976 46.5384 51.3293 46.7331C51.4357 46.3895 51.5454 46.1637 51.6524 46.0485C51.761 45.9378 51.9477 45.8389 52.2072 45.7628C52.8069 45.5871 53.1715 45.7048 53.2927 46.1181C53.3568 46.3373 53.3517 46.5148 53.2812 46.6497C53.2053 46.7818 53.0876 47.1907 52.9207 47.8689C52.7556 48.5511 52.5998 49.4024 52.4605 50.4288C52.3169 51.4569 52.2804 52.3083 52.3505 52.9832C52.3486 53.0672 52.3696 53.1845 52.4113 53.3261C52.5383 53.7602 52.7199 53.9446 52.9591 53.8744C53.1941 53.8055 53.4448 53.6088 53.7027 53.2869C53.9616 52.9689 54.1781 52.6413 54.3588 52.3113C54.534 51.9781 54.7038 51.6422 54.869 51.3037C55.0298 50.9659 55.1292 50.7652 55.1671 50.7143C55.1748 50.7019 55.1843 50.6898 55.1955 50.6788C55.0386 49.468 55.0327 48.0799 55.1776 46.5124C55.3932 44.1827 55.8051 42.134 56.4147 40.3669C57.7805 36.3752 59.0836 34.1977 60.3156 33.8367C60.6967 33.7252 61.0654 33.7363 61.4195 33.8788C61.7739 34.0215 62.0173 34.3112 62.148 34.7572C62.2771 35.1989 62.2329 35.9646 62.0204 37.0567C61.8063 38.1445 61.5012 39.2817 61.102 40.4728C60.7013 41.6593 60.2254 42.9347 59.682 44.2952C58.8191 46.4581 57.9606 48.4259 57.1014 50.1961C57.1223 50.2956 57.141 50.4797 57.1562 50.7571C57.1741 51.0289 57.2176 51.2976 57.2947 51.5611C57.3706 51.8207 57.5612 52.0204 57.8661 52.1596C58.1673 52.3005 58.4978 52.3181 58.8546 52.2134C59.2116 52.109 59.5543 51.8674 59.8863 51.4974C60.2208 51.1221 60.4916 50.7392 60.7052 50.3421C60.7827 50.1954 60.8563 50.0588 60.9266 49.9312C60.9526 49.7562 60.985 49.5702 61.0242 49.3728C61.2184 48.4136 61.4267 47.5168 61.6578 46.6829C61.8852 45.8508 61.9921 45.4054 61.9756 45.3488C61.9577 45.288 61.8421 45.194 61.6293 45.0672C61.4158 44.9405 61.2969 44.8345 61.2731 44.7535C61.2482 44.6684 61.3473 44.4058 61.5723 43.9572C61.7973 43.5082 62.0966 43.0424 62.466 42.5599C62.8353 42.0776 63.1457 41.8013 63.3974 41.728C63.6445 41.6556 63.9034 41.6987 64.1637 41.8645C64.4263 42.0253 64.587 42.1979 64.6405 42.3808C64.6941 42.5631 64.2516 44.5544 63.3179 48.3534C63.307 48.4053 63.2728 48.5296 63.215 48.7223C63.157 48.9152 63.1113 49.0744 63.0821 49.2017C63.0564 49.3234 63.0256 49.4734 62.9884 49.6471C62.923 50.0095 62.9241 50.2996 62.9859 50.5104C63.0652 50.7819 63.2871 50.8627 63.6476 50.7566C64.0126 50.6501 64.3529 50.4134 64.6737 50.0512C64.9933 49.6849 65.2488 49.3104 65.4488 48.9262C65.7479 48.3278 65.9778 47.8993 66.1368 47.6423C66.1446 47.5449 66.1538 47.4449 66.1647 47.3433C66.2647 46.4074 66.4382 45.3925 66.6847 44.2949C67.0899 42.508 67.5234 40.8186 67.9804 39.2232L67.5484 39.4162C66.6621 39.7855 66.1425 39.9951 65.9925 40.0391L65.8831 40.0711C65.656 40.1376 65.4186 40.1545 65.1775 40.1281C64.9586 40.1007 64.825 40.0332 64.7719 39.9187C64.6946 39.9575 64.6148 39.9893 64.5323 40.0136C64.0786 40.1463 63.7774 39.9751 63.6385 39.5008C63.4994 39.0263 63.5693 38.513 63.8405 37.9671C64.1147 37.4157 64.4936 37.0716 64.9759 36.9302C65.1909 36.8673 65.3789 36.8785 65.5389 36.959C65.6992 37.0397 65.8128 37.1867 65.8755 37.4017C65.9155 37.5377 65.9363 37.6787 65.9382 37.8254C65.9975 37.7869 66.0521 37.7584 66.1024 37.7402C66.2822 37.6787 66.4571 37.614 66.6248 37.556C66.7928 37.4983 66.9811 37.4343 67.1853 37.3656C67.394 37.2957 67.5535 37.2402 67.6607 37.2L68.7178 36.8418C69.0905 35.6499 69.3595 34.8715 69.5241 34.5151C69.6918 34.1574 69.7876 33.958 69.8196 33.918C69.8532 33.8816 69.9254 33.8427 70.0471 33.8073L70.582 33.5757L71.103 33.551C71.1756 33.5295 71.2514 33.5468 71.3243 33.6003C71.4023 33.6565 71.4497 33.7134 71.4688 33.7783C71.4878 33.8427 71.4525 34.0381 71.3672 34.3624C71.282 34.6869 71.1797 35.06 71.056 35.4791C70.9364 35.897 70.8706 36.1232 70.864 36.1606C71.4658 35.931 71.8962 35.7786 72.1557 35.7028C72.4113 35.6278 72.5957 35.5957 72.6994 35.6054C72.8022 35.6105 72.9414 35.6794 73.1146 35.8051C73.2835 35.9315 73.4327 36.0198 73.5591 36.0754C73.684 36.1269 73.7734 36.2369 73.8222 36.4029C73.8708 36.5692 73.8112 36.7407 73.6416 36.9137C73.4764 37.0851 73.2779 37.2183 73.0578 37.3092C71.275 38.0297 70.2901 38.4235 70.101 38.4836C69.7488 39.6562 69.2965 41.448 68.7545 43.8647C68.2125 46.2812 67.9803 47.7577 68.0647 48.3009C68.1022 48.5492 68.1433 48.7487 68.1871 48.8987C68.2775 49.2069 68.4846 49.3132 68.809 49.2184C69.1331 49.1233 69.457 48.892 69.7818 48.5284C70.1014 48.1618 70.3866 47.7833 70.6336 47.3939C70.746 47.214 70.8498 47.0493 70.9447 46.8993C70.9592 46.8269 70.9749 46.7544 70.9926 46.6816C71.0632 46.3968 71.1884 45.9068 71.3699 45.2198C71.5505 44.5288 71.7138 43.8688 71.8533 43.2343C72.0087 42.7131 72.1524 42.1209 72.284 41.4576C72.418 40.7887 72.5238 40.3089 72.6096 40.0154C72.6939 39.7178 72.8112 39.5468 72.953 39.5054C73.0951 39.4636 73.3035 39.4994 73.5826 39.6115C73.8618 39.7231 74.0382 39.9049 74.1097 40.1481C74.1819 40.3953 73.9742 41.6095 73.4887 43.7983C73.0031 45.9871 72.7993 47.2131 72.8749 47.4727C72.8941 47.5374 72.9348 47.5564 72.9953 47.5386C73.2105 47.4755 73.5966 47.0368 74.1482 46.2151C74.7049 45.396 75.2878 44.3805 75.8978 43.1715C76.5778 41.828 77.0707 40.6406 77.3787 39.6042C77.4147 39.4704 77.4505 39.3676 77.4743 39.2987C77.5009 39.2251 77.5353 39.1314 77.5705 39.0108C77.611 38.8935 77.6451 38.7996 77.6691 38.7311C77.6969 38.6613 77.7308 38.5809 77.7663 38.4914C77.8041 38.3965 77.8404 38.3246 77.877 38.2697C77.9151 38.219 77.9517 38.1642 77.9966 38.1071C78.062 37.9999 78.1447 37.9361 78.2539 37.9042C78.3592 37.8731 78.5288 37.85 78.7606 37.8306C78.994 37.8152 79.1389 37.8296 79.1991 37.8693C79.2559 37.9141 79.3204 37.9525 79.3779 37.9843C79.4849 38.0497 79.5496 38.1189 79.5705 38.1917C79.5935 38.2688 79.5895 38.3758 79.5615 38.5202C79.536 38.6596 79.3514 39.3961 79.0096 40.7237C78.006 44.6446 77.3586 47.4837 77.0671 49.2374C77.9742 47.8713 80.7291 43.8582 82.3364 41.2314C82.3957 41.1341 82.4796 41.0746 82.5647 41.0501C82.8118 40.9777 83.0442 41.319 83.2639 42.0687C83.3291 42.2913 83.3405 42.4558 83.2758 42.5453C81.4505 45.0653 78.3043 49.7614 76.87 52.6229ZM32.4248 46.1441C32.2207 45.447 31.7373 45.2101 30.9752 45.4332C29.5849 45.8408 28.2725 46.6478 27.038 47.8586C25.8067 49.0646 24.726 50.499 23.7931 52.1675C22.8631 53.8309 22.1931 55.5544 21.7824 57.3381C21.3721 59.1222 21.2985 60.4641 21.5597 61.3557C21.6805 61.7692 21.8704 62.0262 22.1218 62.1332C22.5676 62.0023 23.2189 61.5214 24.0796 60.6882C24.9417 59.859 25.6253 58.8886 26.1349 57.7884C26.1921 57.6835 26.2415 57.6252 26.2858 57.6121C26.3306 57.599 26.3636 57.6069 26.3871 57.6268C26.4116 57.6502 26.4646 57.6964 26.5436 57.7702C26.6254 57.8386 26.7039 57.9123 26.7735 57.9842C26.9758 58.1938 27.1158 58.4475 27.2026 58.7431C27.2893 59.0394 27.2764 59.3865 27.1591 59.7818C27.0414 60.1768 26.7255 60.7359 26.2082 61.4643C26.9895 60.9008 27.9137 59.653 28.9783 57.7126C30.0439 55.7764 30.8536 54.0031 31.4031 52.3942C31.9573 50.7837 32.2928 49.4357 32.4093 48.3451C32.5307 47.2578 32.5362 46.5254 32.4248 46.1441ZM29.8683 43.6671C31.1326 43.2967 32.177 43.33 33.004 43.7652C33.8265 44.1978 34.3662 44.8541 34.6237 45.7336C34.8805 46.6091 34.9706 47.6081 34.8934 48.7266C34.816 49.8451 34.5971 51.0362 34.2285 52.3017C33.8596 53.5672 33.386 54.8196 32.812 56.0614C32.2385 57.3036 31.5385 58.4899 30.7032 59.6195C29.8677 60.7489 28.9829 61.6812 28.0436 62.4102C28.1331 62.4455 28.3228 62.5218 28.6097 62.6447C28.9006 62.7665 29.1022 62.8527 29.2207 62.897C29.3365 62.9468 29.526 63.0231 29.7855 63.1275C30.0411 63.2333 30.2334 63.3044 30.3631 63.3416C30.4899 63.3836 30.6655 63.4422 30.8859 63.5184C31.1064 63.5948 31.2793 63.6451 31.4137 63.6675C31.5438 63.6908 31.6914 63.7137 31.8545 63.7453C32.1428 63.7971 32.4009 63.792 32.628 63.7254C32.8549 63.6591 33.0329 63.5759 33.1665 63.4754C33.3008 63.3786 33.3833 63.284 33.4169 63.2039C33.4494 63.1195 33.4763 63.0457 33.5004 62.9768C33.5212 62.9136 33.5532 62.8733 33.5941 62.8616C33.6953 62.8316 33.7649 62.873 33.7969 62.9824C33.8289 63.0919 33.816 63.2584 33.7624 63.4809C33.7086 63.7035 33.6047 63.9496 33.4558 64.2221C33.3107 64.4936 33.0208 64.8116 32.5961 65.1786C32.1706 65.545 31.777 65.779 31.4123 65.8861C30.0909 66.2729 27.7956 65.4092 24.5277 63.2989C23.8824 63.8753 23.2456 64.2554 22.6173 64.4392C21.9929 64.6224 21.3436 64.5088 20.6728 64.0979C20.0036 63.6911 19.5421 63.0471 19.2856 62.1717C19.0291 61.2958 19.019 60.1196 19.255 58.6419C19.6834 55.8667 20.5994 53.3142 22.0008 50.9759C24.4487 46.9226 27.0711 44.4866 29.8683 43.6671ZM51.0132 47.5475C49.6594 47.9443 48.4805 49.1037 47.4701 51.0328C47.1131 51.7226 46.8318 52.5048 46.6189 53.3861C46.409 54.2617 46.3408 54.8408 46.4229 55.1205C46.5036 55.396 46.6251 55.5102 46.7829 55.4639C47.0063 55.3986 47.494 54.7803 48.251 53.608C49.0088 52.4394 49.4929 51.5979 49.7043 51.087C49.9351 50.5222 50.3727 49.3419 51.0132 47.5475ZM60.3616 35.9629C60.3273 35.8453 60.2691 35.7963 60.1878 35.8199C59.9126 35.9005 59.414 36.9048 58.6986 38.8355C57.9821 40.7614 57.5012 42.2758 57.2499 43.3703C56.9999 44.4692 56.8479 45.799 56.7984 47.3583C57.4107 45.9778 58.1938 43.8731 59.16 41.0416C60.1224 38.2112 60.5242 36.518 60.3616 35.9629Z" fill="url(#paint1_linear_432_1802)"/>
<path fill-rule="evenodd" clip-rule="evenodd" d="M50.4476 28.5918C56.1046 28.5918 61.2494 30.7868 65.0766 34.3711L64.3582 34.626C60.6798 31.2957 55.8005 29.267 50.4476 29.267C44.7224 29.267 39.5388 31.5875 35.7872 35.3393C34.0977 37.0286 32.6993 39.0086 31.6713 41.1974L30.9029 41.2534C31.9766 38.8571 33.4781 36.6945 35.3105 34.8624C39.1843 30.9882 44.5365 28.5918 50.4476 28.5918ZM62.1615 67.9203C58.7957 70.1246 54.7713 71.4071 50.4476 71.4071C50.0783 71.4071 49.711 71.3977 49.3463 71.3792L51.9416 70.6786C54.668 70.4845 57.2484 69.763 59.5819 68.6161L62.1615 67.9203ZM47.0276 71.1348C44.6029 70.7454 42.3145 69.949 40.2341 68.8175L41.1953 68.5582C43.093 69.506 45.1566 70.1711 47.3307 70.4991L47.0276 71.1348Z" fill="white"/>
<path fill-rule="evenodd" clip-rule="evenodd" d="M28.1432 41.0369L27.911 41.6258L24.0091 40.0877L23.9766 41.4396L23.4448 41.23L23.4778 39.3041L23.514 39.2122L28.1432 41.0369ZM28.5726 35.5865C29.2118 35.9541 29.6249 36.3361 29.8101 36.7338C29.9956 37.1309 29.9545 37.5617 29.6881 38.025C29.4241 38.484 29.0774 38.7349 28.6466 38.7805C28.2158 38.8263 27.6963 38.6789 27.0875 38.3397L26.3584 37.9206C25.726 37.5568 25.3194 37.1783 25.1377 36.7833C24.9562 36.3883 25.0001 35.9579 25.2683 35.4916C25.5339 35.0295 25.8776 34.7739 26.2986 34.7267C26.7205 34.6783 27.2417 34.8298 27.8637 35.179L28.5726 35.5865ZM27.5094 35.7013C27.0473 35.4359 26.673 35.3065 26.3866 35.3147C26.1004 35.3229 25.8769 35.4675 25.7151 35.7486C25.5542 36.0287 25.543 36.2927 25.6801 36.5415C25.817 36.7903 26.1025 37.0419 26.5373 37.297L27.4113 37.7998C27.8763 38.0674 28.2574 38.1965 28.5567 38.189C28.8552 38.1824 29.0835 38.0416 29.241 37.7678C29.3956 37.4989 29.4061 37.2382 29.273 36.9874C29.1398 36.7368 28.8503 36.4807 28.4046 36.2163L27.5094 35.7013ZM31.1492 32.2431L30.5063 31.738C29.9409 31.3028 29.4468 31.0785 29.0223 31.0656C28.599 31.0518 28.2222 31.2553 27.8927 31.6744C27.5605 32.0973 27.4552 32.5168 27.5782 32.9338C27.7009 33.3511 28.049 33.7842 28.6225 34.2349L29.2839 34.7545C29.8376 35.1775 30.3308 35.3981 30.7635 35.4146C31.1965 35.4315 31.5757 35.2329 31.9031 34.8163C32.2332 34.3963 32.3358 33.976 32.2091 33.5559C32.0828 33.1361 31.7291 32.6986 31.1492 32.2431ZM30.0806 32.2043C29.6615 31.875 29.3095 31.693 29.025 31.66C28.7406 31.6273 28.4985 31.7382 28.2983 31.9929C28.0987 32.2468 28.0497 32.5067 28.1494 32.7727C28.2492 33.0388 28.4959 33.3285 28.8891 33.6437L29.6819 34.2665C30.1039 34.598 30.4625 34.7807 30.7597 34.8162C31.0559 34.8526 31.3022 34.7462 31.4972 34.4978C31.6888 34.2539 31.7369 33.9976 31.6411 33.7303C31.5454 33.4631 31.2955 33.168 30.8927 32.8421L30.0806 32.2043ZM30.7352 29.9898C30.5406 29.765 30.4514 29.5184 30.4675 29.2475C30.4844 28.9779 30.6057 28.7452 30.8304 28.5506C31.0579 28.3537 31.3067 28.2667 31.5752 28.291C31.8434 28.3151 32.0796 28.4444 32.2818 28.6778L32.44 28.8604C32.6362 29.0868 32.7248 29.3347 32.7056 29.6017C32.6865 29.8684 32.567 30.0981 32.3458 30.2897C32.1227 30.4829 31.876 30.5705 31.6064 30.5536C31.3368 30.5368 31.0981 30.4083 30.8913 30.1698L30.7352 29.9898ZM31.2601 29.8793C31.3765 30.0136 31.5094 30.0907 31.6603 30.1122C31.811 30.1337 31.9494 30.089 32.0764 29.9791C32.1977 29.8739 32.2593 29.7468 32.2612 29.5977C32.2635 29.4496 32.201 29.3027 32.0747 29.1569L31.9117 28.9689C31.7955 28.8348 31.6628 28.756 31.5131 28.7322C31.3638 28.709 31.2258 28.7518 31.0994 28.8614C30.9721 28.9717 30.9099 29.1022 30.9116 29.2529C30.9137 29.4047 30.9758 29.5511 31.0973 29.6914L31.2601 29.8793ZM34.3807 30.514C34.1861 30.2893 34.0966 30.0424 34.1143 29.7735C34.1322 29.5047 34.254 29.273 34.479 29.0784C34.7037 28.8838 34.9504 28.796 35.2189 28.8153C35.4875 28.8345 35.7257 28.9634 35.9317 29.2015L36.0898 29.3842C36.2845 29.6087 36.372 29.8554 36.3548 30.1244C36.337 30.3932 36.2176 30.6243 35.9943 30.8174C35.7714 31.0106 35.5247 31.0983 35.2549 31.0811C34.9853 31.0646 34.7475 30.937 34.5414 30.6993L34.3807 30.514ZM34.9082 30.4061C35.0253 30.5414 35.1589 30.6193 35.3089 30.6399C35.4598 30.6612 35.5979 30.6168 35.7252 30.5068C35.8481 30.4002 35.911 30.272 35.911 30.123C35.9116 29.9749 35.8491 29.8279 35.7229 29.6822L35.5578 29.4917C35.4407 29.3564 35.3078 29.2796 35.1585 29.2581C35.0101 29.2374 34.873 29.281 34.748 29.3891C34.6263 29.4946 34.5634 29.6227 34.5608 29.7741C34.5582 29.9238 34.6185 30.0717 34.7431 30.2156L34.9082 30.4061ZM33.9868 31.9664L33.5695 32.0309L32.867 27.5241L33.284 27.4594L33.9868 31.9664ZM38.7896 26.7644L39.5882 28.5298L38.9931 28.7987L36.9515 24.2836L38.6165 23.531C39.1109 23.3075 39.554 23.2586 39.9488 23.385C40.3432 23.5099 40.634 23.7814 40.8221 24.1973C41.0202 24.6353 41.0364 25.0345 40.8695 25.3957C40.7025 25.7568 40.3635 26.0529 39.8532 26.2835L38.7896 26.7644ZM38.5687 26.2754L39.6386 25.7915C39.9574 25.6473 40.1667 25.4623 40.268 25.2355C40.3699 25.0099 40.3565 24.7544 40.2283 24.4708C40.1065 24.2019 39.9251 24.0253 39.6823 23.9401C39.4402 23.856 39.1697 23.8775 38.8716 24.0045L37.7676 24.5035L38.5687 26.2754ZM44.3531 24.6853L43.2191 24.9473L43.6693 26.8962L43.0299 27.0437L41.9153 22.2157L43.5133 21.8466C44.0577 21.7209 44.5039 21.7492 44.8543 21.9293C45.2048 22.1097 45.4342 22.437 45.5432 22.91C45.6128 23.2112 45.5916 23.4924 45.4816 23.7539C45.3701 24.0143 45.1837 24.2337 44.9197 24.4118L46.5256 26.195L46.5347 26.2344L45.8511 26.3923L44.3531 24.6853ZM43.0985 24.4244L44.0777 24.1985C44.3933 24.1257 44.6256 23.9859 44.7746 23.7789C44.9234 23.5715 44.9669 23.3303 44.9035 23.0562C44.8346 22.7578 44.6919 22.5484 44.4774 22.4299C44.2629 22.3115 43.9875 22.2904 43.6509 22.3657L42.6754 22.5909L43.0985 24.4244ZM49.8476 23.6513L47.7074 23.8142L47.8401 25.5586L50.3267 25.3697L50.3675 25.9045L47.2288 26.1433L46.8529 21.2026L49.9582 20.9662L49.9989 21.5014L47.5459 21.6881L47.6666 23.2791L49.8071 23.1165L49.8476 23.6513ZM52.6559 21.0586L53.7523 25.2736L55.8693 21.4669L56.7097 21.5737L56.0849 26.4894L55.4371 26.4072L55.6803 24.4933L56.003 22.4349L53.8838 26.2098L53.3873 26.1465L52.2821 21.9715L52.0856 24.0365L51.8422 25.9503L51.1934 25.8678L51.8182 20.9521L52.6559 21.0586ZM57.8511 27.1144L57.2219 26.9359L58.5753 22.1689L59.2043 22.3476L57.8511 27.1144ZM64.2094 24.4036L62.8207 27.475C62.6261 27.8995 62.3345 28.1871 61.9463 28.3377C61.558 28.4886 61.1293 28.4784 60.6594 28.3055L60.4987 28.2405C60.0046 28.0169 59.671 27.7057 59.4983 27.3062C59.3248 26.9065 59.3428 26.4722 59.55 26.0026L60.9412 22.9259L61.5306 23.1924L60.1485 26.2491C60.0008 26.5763 59.9749 26.8704 60.0728 27.1327C60.171 27.3951 60.3866 27.6006 60.7199 27.7514C61.0564 27.9035 61.3552 27.9306 61.6154 27.8313C61.8757 27.7324 62.079 27.5194 62.2269 27.1926L63.6102 24.1326L64.2094 24.4036ZM66.8393 26.0137L66.1751 25.4921L63.1138 29.3885L63.6282 29.7927L64.8199 28.2755L66.0497 26.6049L64.8526 30.7548L65.2463 31.0641L69.0036 28.9142L67.6695 30.5146L66.4777 32.0315L66.991 32.4349L70.0523 28.5385L69.3865 28.0152L65.6142 30.1933L66.8393 26.0137Z" fill="white"/>
<path fill-rule="evenodd" clip-rule="evenodd" d="M50.4476 17.8701C59.3197 17.8701 67.3525 21.4667 73.1667 27.2808C75.5732 29.6874 77.5992 32.4738 79.1481 35.5424H78.3963C76.9007 32.6562 74.9714 30.0313 72.6938 27.754C67.0009 22.0608 59.1353 18.5395 50.4476 18.5395C41.7596 18.5395 33.8943 22.0608 28.2014 27.754C22.5083 33.4466 18.9869 41.3123 18.9869 50.0002C18.9869 50.7524 19.0133 51.4987 19.0655 52.2381L18.5223 53.6438C18.3872 52.4478 18.3176 51.2323 18.3176 50.0002C18.3176 41.1279 21.9142 33.095 27.7286 27.2808C33.5425 21.4667 41.5753 17.8701 50.4476 17.8701ZM82.4466 47.0804L81.8482 48.0401C81.8884 48.6881 81.9084 49.3419 81.9084 50.0002C81.9084 58.6879 78.387 66.5533 72.6939 72.2464C67.001 77.9393 59.1354 81.4609 50.4477 81.4609C41.7597 81.4609 33.8944 77.9393 28.2015 72.2464C26.4666 70.5115 24.9339 68.575 23.6405 66.4749C23.4418 66.5838 23.2213 66.6627 23.0062 66.7198C24.3406 68.9051 25.928 70.9187 27.7286 72.7192C33.5425 78.5337 41.5755 82.1302 50.4477 82.1302C59.3197 82.1302 67.3526 78.5337 73.1668 72.7192C78.9812 66.9049 82.5778 58.8721 82.5778 50.0002C82.5777 49.0159 82.5335 48.042 82.4466 47.0804Z" fill="white"/>
<path fill-rule="evenodd" clip-rule="evenodd" d="M65.2667 69.8877V97.8476L50.4051 91.579L35.5437 97.8476V77.9107L65.2667 69.8877Z" fill="url(#paint2_linear_432_1802)"/>
<path fill-rule="evenodd" clip-rule="evenodd" d="M38.7957 77.0331V94.5004L37.5947 95.0071V77.3574L38.7957 77.0331ZM63.2158 70.4414V95.0071L62.0143 94.5004V70.7657L62.5743 70.6145L63.2158 70.4414Z" fill="url(#paint3_linear_432_1802)"/>
<path fill-rule="evenodd" clip-rule="evenodd" d="M35.2512 63.1477L70.7634 53.562L71.3267 53.4101V53.4097L72.0523 53.2139C71.6367 55.4545 70.8688 57.5871 69.8014 59.5432L69.2222 59.6995L68.8869 59.7902L68.3047 59.9474C56.9871 63.0025 46.5689 65.8146 35.2513 68.8695L36.8731 65.4677L35.2512 63.1477Z" fill="white"/>
<path fill-rule="evenodd" clip-rule="evenodd" d="M39.8033 64.9468C39.4437 64.9396 39.1821 64.8821 39.0178 64.7754C38.8539 64.6689 38.7719 64.5044 38.7719 64.2827C38.7719 64.0323 38.8726 63.7977 39.0725 63.58C39.2732 63.3622 39.5332 63.2104 39.8532 63.1246C40.0717 63.0663 40.2675 63.0562 40.438 63.0947C40.6098 63.133 40.7417 63.2141 40.8356 63.3381C40.9296 63.4613 40.9765 63.6115 40.9765 63.7874L40.5553 63.9005C40.5553 63.7079 40.4939 63.573 40.3717 63.4951C40.2495 63.4182 40.0763 63.4096 39.8532 63.4694C39.6468 63.5245 39.4858 63.6133 39.3701 63.7353C39.2538 63.8581 39.1962 63.9995 39.1962 64.1616C39.1962 64.2913 39.2505 64.3871 39.361 64.4468C39.4705 64.5071 39.658 64.5391 39.9226 64.5427C40.1868 64.5466 40.3941 64.5728 40.5434 64.6224C40.6924 64.6722 40.8029 64.7469 40.8751 64.8476C40.9476 64.9476 40.9833 65.0792 40.9833 65.2407C40.9833 65.4987 40.8829 65.7325 40.6819 65.9414C40.4805 66.1505 40.212 66.3 39.8756 66.3904C39.657 66.4488 39.4528 66.4617 39.2634 66.429C39.0746 66.3954 38.9283 66.3196 38.8255 66.2016C38.7225 66.084 38.6719 65.9317 38.6719 65.7468L39.0933 65.634C39.0933 65.8256 39.1641 65.9581 39.3065 66.0309C39.4484 66.1041 39.6379 66.1093 39.8756 66.0457C40.0971 65.9864 40.2665 65.8955 40.3843 65.7738C40.503 65.6516 40.5618 65.5128 40.5618 65.3577C40.5618 65.2019 40.5067 65.0958 40.3978 65.04C40.289 64.9837 40.0906 64.9526 39.8033 64.9468ZM43.2785 64.601L41.945 64.9585L41.6457 65.871L41.213 65.9871L42.428 62.4795L42.795 62.3812L44.0125 65.2369L43.5819 65.3524L43.2785 64.601ZM42.0715 64.5801L43.1539 64.2898L42.6114 62.9479L42.0715 64.5801ZM46.3576 61.7711V61.4265L43.8975 62.0857V62.4304L44.918 62.1568V64.9944L45.3348 64.8825V62.0451L46.3576 61.7711ZM47.2802 64.3613L46.8604 64.4737V61.2917L47.2802 61.1794V64.3613ZM48.9838 62.4868C48.6242 62.4798 48.3626 62.4223 48.1983 62.3153C48.0343 62.2089 47.9521 62.0443 47.9521 61.8228C47.9521 61.5721 48.053 61.3378 48.2527 61.1201C48.4537 60.9023 48.7136 60.7505 49.0338 60.6647C49.2522 60.6061 49.4477 60.5965 49.6185 60.6348C49.7902 60.6731 49.9222 60.7542 50.0161 60.8782C50.1101 61.0013 50.157 61.1516 50.157 61.3275L49.7355 61.4403C49.7355 61.248 49.6743 61.1128 49.5521 61.0352C49.4296 60.9583 49.2569 60.9497 49.0338 61.0092C48.8272 61.0646 48.666 61.1534 48.5506 61.2753C48.4342 61.398 48.3768 61.5396 48.3768 61.7014C48.3768 61.8313 48.4309 61.9271 48.5415 61.9869C48.651 62.0472 48.8384 62.0789 49.103 62.0825C49.3671 62.0864 49.5745 62.1131 49.7238 62.1623C49.8729 62.2119 49.9833 62.2869 50.0555 62.3876C50.1279 62.4876 50.1638 62.6189 50.1638 62.7807C50.1638 63.0387 50.0631 63.2724 49.8623 63.4814C49.661 63.6905 49.3925 63.8403 49.0562 63.9302C48.8374 63.9888 48.6333 64.0016 48.4438 63.9688C48.2551 63.9351 48.1088 63.8596 48.0057 63.7416C47.903 63.624 47.8522 63.4716 47.8522 63.2866L48.2736 63.1737C48.2736 63.3656 48.3444 63.4981 48.487 63.5709C48.6287 63.6441 48.818 63.6492 49.0561 63.5857C49.2776 63.5261 49.4469 63.4354 49.5647 63.3135C49.6833 63.1916 49.7422 63.0526 49.7422 62.8975C49.7422 62.7416 49.6871 62.6355 49.5782 62.58C49.4694 62.5239 49.2711 62.4928 48.9838 62.4868ZM52.4572 61.5691L51.1223 61.9265V63.3318L50.7023 63.4443V60.2624L52.6735 59.7341V60.0788L51.1223 60.4943V61.5819L52.4572 61.2242V61.5691ZM54.5608 61.5779L54.8643 62.3293L55.2948 62.2139L54.0774 59.3581L53.7104 59.4564L52.4954 62.964L52.928 62.8479L53.2273 61.9354L54.5608 61.5779ZM53.3539 61.5567L53.8938 59.9248L54.4363 61.267L53.3539 61.5567ZM58.0404 60.4696C58.0009 60.8168 57.8769 61.1095 57.6673 61.3483C57.4584 61.5871 57.1808 61.7535 56.8342 61.8461C56.4583 61.9468 56.1569 61.8926 55.9303 61.684C55.7044 61.4747 55.5909 61.1439 55.5909 60.6918V60.3861C55.5909 60.0901 55.6429 59.8158 55.749 59.563C55.8548 59.31 56.0038 59.0976 56.198 58.9256C56.3919 58.7534 56.6165 58.6329 56.8709 58.5647C57.2094 58.474 57.4801 58.4955 57.6836 58.6297C57.8882 58.7635 58.0067 58.9929 58.0404 59.3181L57.6182 59.4315C57.5825 59.1864 57.5033 59.024 57.3818 58.9432C57.2594 58.8621 57.0893 58.8509 56.8709 58.9093C56.6028 58.9813 56.3926 59.1369 56.2406 59.3759C56.0883 59.6144 56.0123 59.9177 56.0123 60.283V60.5909C56.0123 60.9371 56.0845 61.1923 56.2286 61.358C56.3732 61.5228 56.5745 61.571 56.8341 61.5016C57.067 61.439 57.2459 61.3383 57.3702 61.1998C57.495 61.0613 57.5777 60.8554 57.6182 60.583L58.0404 60.4696ZM60.7471 57.9154L59.7245 58.1895V61.0268L59.3075 61.1384V58.3011L58.2872 58.5745V58.2299L60.7471 57.571V57.9154ZM61.6696 60.5056L61.2498 60.6182V57.4362L61.6696 57.3237V60.5056ZM64.8838 58.1566C64.8838 58.4683 64.8318 58.7547 64.7264 59.0154C64.6221 59.2761 64.4735 59.4934 64.2811 59.6672C64.0888 59.841 63.8643 59.9625 63.6075 60.0315C63.3569 60.0986 63.1356 60.0958 62.9415 60.0247C62.7476 59.9535 62.5969 59.8189 62.4903 59.6192C62.3829 59.4197 62.3282 59.1704 62.3254 58.8704V58.6408C62.3254 58.335 62.3782 58.0499 62.4849 57.7862C62.591 57.5238 62.7414 57.3038 62.9364 57.1269C63.1302 56.9505 63.3531 56.8279 63.6037 56.7609C63.8581 56.6926 64.0836 56.6943 64.2772 56.7653C64.472 56.8363 64.622 56.9743 64.7263 57.1807C64.8316 57.3868 64.8838 57.6449 64.8838 57.9551L64.8838 58.1566ZM64.4668 58.0622C64.4668 57.6856 64.3907 57.4167 64.2395 57.2558C64.0879 57.0941 63.8762 57.0504 63.6038 57.1233C63.3384 57.1944 63.1297 57.3511 62.9773 57.5941C62.8252 57.836 62.747 58.1369 62.7426 58.4961V58.7304C62.7426 59.0958 62.8194 59.3624 62.9731 59.5301C63.1266 59.6977 63.3384 59.7453 63.6075 59.6734C63.879 59.6005 64.0889 59.4459 64.2372 59.2085C64.3855 58.9721 64.4623 58.6686 64.4668 58.2988V58.0622ZM67.9593 58.8205L67.5378 58.9334L65.9356 56.9109V59.3625L65.5141 59.4756V56.2937L65.9356 56.1806L67.5415 58.2134V55.7503L67.9592 55.6387L67.9593 58.8205Z" fill="#231F20"/>
<path fill-rule="evenodd" clip-rule="evenodd" d="M47.5285 67.2704L80.805 58.2881C80.1936 60.5327 79.3397 62.6778 78.2732 64.6931L47.5285 72.9921L49.1505 69.5904L47.5285 67.2704Z" fill="white"/>
<path fill-rule="evenodd" clip-rule="evenodd" d="M53.5291 69.6974C53.4209 69.8816 53.2703 70.0376 53.0777 70.1652C52.8845 70.2939 52.6593 70.3922 52.4035 70.4607C52.1439 70.5302 51.9143 70.5305 51.7128 70.463C51.5115 70.3953 51.3564 70.264 51.2459 70.0691C51.1363 69.8738 51.0796 69.6285 51.0766 69.3334V69.0559C51.0766 68.5762 51.1885 68.1741 51.4122 67.8509C51.6361 67.5268 51.95 67.3107 52.355 67.2021C52.6876 67.1131 52.9549 67.1266 53.1569 67.2418C53.3598 67.3574 53.4835 67.5649 53.5291 67.8648L53.1093 67.9772C53.0308 67.5768 52.7804 67.4329 52.3573 67.5461C52.076 67.6216 51.8635 67.7769 51.7181 68.0137C51.5735 68.2498 51.5001 68.5561 51.4988 68.931V69.1911C51.4988 69.5479 51.5801 69.8102 51.7434 69.9765C51.9069 70.1441 52.1277 70.1901 52.4059 70.1153C52.5634 70.0733 52.7005 70.0193 52.8183 69.9527C52.937 69.8857 53.0339 69.8018 53.1115 69.6981V68.9865L52.3754 69.1839V68.8391L53.5292 68.5301L53.5291 69.6974ZM56.4671 66.1452V68.3097C56.4657 68.6102 56.3709 68.8807 56.1838 69.1218C55.9964 69.3629 55.7426 69.5384 55.4221 69.6474L55.3109 69.6817C54.9625 69.7749 54.685 69.7553 54.4785 69.6227C54.2713 69.4904 54.1667 69.2596 54.1638 68.9307V66.7624L54.5792 66.651V68.8051C54.5792 69.0356 54.6418 69.1978 54.7686 69.2914C54.8956 69.3849 55.0762 69.4 55.3109 69.337C55.5483 69.2735 55.73 69.1613 55.8562 69.0006C55.9821 68.8404 56.0447 68.6453 56.0447 68.4146V66.2583L56.4671 66.1452ZM58.8384 67.8591L57.5046 68.2165L57.2056 69.1293L56.7729 69.2452L57.988 65.7376L58.355 65.6392L59.5722 68.495L59.1418 68.6104L58.8384 67.8591ZM57.6315 67.838L58.7137 67.5481L58.1715 66.2059L57.6315 67.838ZM61.1686 66.783L60.4212 66.9832V68.2677L59.9994 68.3805V65.1986L61.0529 64.9164C61.4117 64.8203 61.6869 64.8285 61.8801 64.9402C62.0733 65.052 62.1695 65.2641 62.1695 65.5757C62.1695 65.7741 62.1158 65.9616 62.0091 66.1381C61.9016 66.3135 61.7532 66.4638 61.5621 66.5881L62.3097 67.7355V67.7617L61.8591 67.8823L61.1686 66.783ZM60.4212 66.6387L61.0664 66.4657C61.2744 66.4099 61.44 66.3121 61.5631 66.1709C61.6859 66.0296 61.7482 65.8684 61.7482 65.6878C61.7482 65.4908 61.6891 65.3554 61.5721 65.2815C61.455 65.2078 61.2857 65.2003 61.0642 65.258L60.4213 65.4304L60.4212 66.6387ZM64.5131 66.3389L63.1794 66.696L62.8803 67.6086L62.4476 67.7247L63.6626 64.2171L64.0297 64.1187L65.2468 66.9745L64.8165 67.0899L64.5131 66.3389ZM63.3062 66.3176L64.3883 66.0277L63.8461 64.6855L63.3062 66.3176ZM68.1216 66.2043L67.7002 66.3171L66.0981 64.2946V66.7465L65.6766 66.8594V63.6774L66.0981 63.5646L67.704 65.5971V63.1342L68.1216 63.0223V66.2043ZM71.0008 62.5954L69.9781 62.8694V65.7069L69.5612 65.8183V62.9811L68.541 63.2544V62.91L71.0008 62.251V62.5954ZM73.2714 63.3565L71.893 63.7257V64.8492L73.4942 64.4201V64.7647L71.4728 65.3063V62.1243L73.4727 61.5884V61.933L71.893 62.3564V63.3813L73.2714 63.0119V63.3565ZM74.0164 64.6248V61.4429L74.9145 61.2023C75.1913 61.1279 75.436 61.1237 75.6492 61.1889C75.8618 61.2543 76.026 61.3849 76.1414 61.5791C76.2578 61.7739 76.316 62.018 76.3176 62.3099V62.5136C76.3176 62.8133 76.2592 63.0923 76.1437 63.349C76.028 63.6053 75.8625 63.8235 75.6475 64.002C75.4328 64.1805 75.183 64.3092 74.8973 64.3888L74.0164 64.6248ZM74.4364 61.6749V64.1679L74.8773 64.0496C75.2011 63.963 75.4522 63.7948 75.6328 63.5457C75.8125 63.2962 75.9023 62.9867 75.9023 62.615V62.4292C75.9023 62.0676 75.8176 61.8097 75.6476 61.6555C75.4784 61.5001 75.2376 61.4629 74.9257 61.5438L74.4364 61.6749ZM77.3408 62.8294L76.9755 62.9271L76.947 60.6577L77.3715 60.5439L77.3408 62.8294ZM76.9322 63.6354C76.9322 63.5691 76.9522 63.5076 76.9918 63.4525C77.032 63.3962 77.0918 63.3576 77.1701 63.3367C77.249 63.3157 77.3086 63.3219 77.349 63.3567C77.3901 63.3903 77.4102 63.4411 77.4102 63.5076C77.4102 63.5739 77.3901 63.6342 77.349 63.6887C77.3086 63.7434 77.249 63.7809 77.1701 63.8021C77.0918 63.823 77.032 63.8175 76.9918 63.7842C76.9523 63.7517 76.9322 63.702 76.9322 63.6354Z" fill="#231F20"/>
<path fill-rule="evenodd" clip-rule="evenodd" d="M45.6183 33.0411L45.1267 34.156L45.766 35.1933L44.5539 35.0696L43.7649 35.9986L43.5078 34.8075L42.3808 34.3442L43.4339 33.7315L43.5262 32.5166L44.4343 33.329L45.6183 33.0411Z" fill="white"/>
<path fill-rule="evenodd" clip-rule="evenodd" d="M40.5508 35.4111L40.4472 36.6253L41.3885 37.399L40.2018 37.6754L39.7567 38.8097L39.127 37.7665L37.9105 37.6938L38.7082 36.7724L38.4016 35.5933L39.5242 36.0673L40.5508 35.4111Z" fill="white"/>
<path fill-rule="evenodd" clip-rule="evenodd" d="M36.7712 38.8682L37.0287 40.0592L38.1556 40.5222L37.1024 41.135L37.0105 42.35L36.1021 41.538L34.9181 41.8257L35.4098 40.7108L34.7702 39.6737L35.9825 39.797L36.7712 38.8682Z" fill="white"/>
<path fill-rule="evenodd" clip-rule="evenodd" d="M50.8547 32.4369L50.0447 33.3471L50.3349 34.5306L49.2191 34.0412L48.1834 34.6829L48.3037 33.4705L47.3735 32.6838L48.5638 32.4238L49.0244 31.2959L49.6396 32.3476L50.8547 32.4369Z" fill="white"/>
<path fill-rule="evenodd" clip-rule="evenodd" d="M56.6614 33.5446L55.5837 34.1127L55.4404 35.3229L54.5671 34.4732L53.372 34.7113L53.91 33.6182L53.3145 32.5549L54.5204 32.7288L55.3472 31.834L55.5547 33.0348L56.6614 33.5446Z" fill="white"/>
<path fill-rule="evenodd" clip-rule="evenodd" d="M65.2668 69.8877V77.7581C68.0106 76.2901 70.5121 74.4277 72.6938 72.2458C72.7864 72.1533 72.878 72.0605 72.9693 71.9669L65.2668 69.8877Z" fill="url(#paint4_linear_432_1802)"/>
<defs>
<linearGradient id="paint0_linear_432_1802" x1="50.4476" y1="10.8022" x2="50.4476" y2="106.302" gradientUnits="userSpaceOnUse">
<stop stop-color="#F9F076"/>
<stop offset="0.23" stop-color="#FED844"/>
<stop offset="0.35" stop-color="#FDBA19"/>
<stop offset="0.4" stop-color="#FED844"/>
<stop offset="0.47" stop-color="#FED844"/>
<stop offset="0.77" stop-color="#B8792A"/>
<stop offset="0.88" stop-color="#FFCC35"/>
<stop offset="1" stop-color="#FFCC35"/>
</linearGradient>
<linearGradient id="paint1_linear_432_1802" x1="47.9405" y1="40.6684" x2="53.3143" y2="59.1261" gradientUnits="userSpaceOnUse">
<stop stop-color="#F9F076"/>
<stop offset="0.23" stop-color="#FED844"/>
<stop offset="0.35" stop-color="#FDBA19"/>
<stop offset="0.4" stop-color="#FED844"/>
<stop offset="0.47" stop-color="#FED844"/>
<stop offset="0.77" stop-color="#B8792A"/>
<stop offset="0.88" stop-color="#FFCC35"/>
<stop offset="1" stop-color="#FFCC35"/>
</linearGradient>
<linearGradient id="paint2_linear_432_1802" x1="50.2067" y1="76.5569" x2="50.6539" y2="93.0243" gradientUnits="userSpaceOnUse">
<stop stop-color="#741012"/>
<stop offset="0.1234" stop-color="#861215"/>
<stop offset="0.5315" stop-color="#BD171D"/>
<stop offset="0.8358" stop-color="#E01B22"/>
<stop offset="1" stop-color="#ED1C24"/>
</linearGradient>
<linearGradient id="paint3_linear_432_1802" x1="50.4052" y1="29.9327" x2="50.4052" y2="87.431" gradientUnits="userSpaceOnUse">
<stop stop-color="#F9F076"/>
<stop offset="0.23" stop-color="#FED844"/>
<stop offset="0.35" stop-color="#FDBA19"/>
<stop offset="0.4" stop-color="#FED844"/>
<stop offset="0.47" stop-color="#FED844"/>
<stop offset="0.77" stop-color="#B8792A"/>
<stop offset="0.88" stop-color="#FFCC35"/>
<stop offset="1" stop-color="#FFCC35"/>
</linearGradient>
<linearGradient id="paint4_linear_432_1802" x1="67.9728" y1="73.8229" x2="60.2517" y2="73.8229" gradientUnits="userSpaceOnUse">
<stop stop-color="#B3B2B3"/>
<stop offset="0.1628" stop-color="#9C9B9C"/>
<stop offset="0.5053" stop-color="#605F61"/>
<stop offset="0.9963" stop-color="#010103"/>
<stop offset="1" stop-color="#000002"/>
</linearGradient>
</defs>
</svg>
