<svg width="94" height="120" viewBox="0 0 94 120" fill="none" xmlns="http://www.w3.org/2000/svg">
<g clip-path="url(#clip0_432_318)">
<path d="M62.2857 53.3984L41.6703 61.6502L64.2437 118.014L71.6563 106.657L84.8312 109.762L62.2857 53.3984Z" fill="url(#paint0_linear_432_318)"/>
<path style="mix-blend-mode:screen" fill-rule="evenodd" clip-rule="evenodd" d="M84.8312 109.762L71.6563 106.657L64.2437 118.014L41.6703 61.6502L62.2857 53.3984L84.8312 109.762ZM41.978 61.818L64.2717 117.482L71.4326 106.545L71.5165 106.405L71.6843 106.433L84.4116 109.426L62.1179 53.7341L41.978 61.818Z" fill="url(#paint1_linear_432_318)"/>
<path d="M32.4955 55.2168L53.1109 63.4685L30.5375 119.832L23.1249 108.476L9.95004 111.58L32.4955 55.2168Z" fill="url(#paint2_linear_432_318)"/>
<path style="mix-blend-mode:screen" fill-rule="evenodd" clip-rule="evenodd" d="M53.1109 63.4685L30.5375 119.832L23.1249 108.476L9.95004 111.58L32.4955 55.2168L53.1109 63.4685ZM10.3696 111.217L23.0969 108.252L23.2647 108.196L23.3486 108.336L30.5095 119.301L52.8032 63.6084L32.6633 55.5525L10.3696 111.217Z" fill="url(#paint3_linear_432_318)"/>
<path d="M93.3346 46.3775C93.3346 71.86 72.6913 92.5034 47.2088 92.5034C21.7263 92.5034 1.05492 71.86 1.05492 46.3775C1.05492 20.895 21.7263 0.223633 47.2088 0.223633C72.6913 0.223633 93.3346 20.895 93.3346 46.3775Z" fill="url(#paint4_linear_432_318)"/>
<path d="M2.14584 46.378C2.14584 21.4829 22.3137 1.28711 47.2088 1.28711C72.1039 1.28711 92.2717 21.4829 92.2717 46.378C92.2717 71.2731 72.1039 91.441 47.2088 91.441C22.3137 91.441 2.14584 71.2731 2.14584 46.378Z" fill="url(#paint5_linear_432_318)"/>
<path d="M91.2927 46.3775C91.2927 70.7132 71.5724 90.4614 47.2088 90.4614C22.8451 90.4614 3.09689 70.7132 3.09689 46.3775C3.09689 22.0139 22.8451 2.26562 47.2088 2.26562C71.5724 2.26562 91.2927 22.0139 91.2927 46.3775Z" fill="#1E2F53"/>
<path d="M45.3626 88.0839C45.0829 88.0839 44.8871 87.8322 44.8871 87.5804C44.915 87.3007 45.1388 87.0769 45.3906 87.1049C45.6703 87.1049 45.8941 87.3287 45.8661 87.6084C45.8661 87.8881 45.6423 88.0839 45.3906 88.0839C45.3719 88.0839 45.3626 88.0839 45.3626 88.0839ZM52.2717 87.3287C52.2437 87.049 52.4395 86.7972 52.6913 86.7692C52.971 86.7413 53.2227 86.9371 53.2507 87.1888C53.2787 87.4685 53.1109 87.7203 52.8311 87.7483C52.8125 87.7483 52.7938 87.7483 52.7752 87.7483C52.5234 87.7483 52.2997 87.5804 52.2717 87.3287ZM37.95 87.1049C37.6703 87.021 37.5025 86.7692 37.5584 86.5175C37.6423 86.2378 37.8941 86.0699 38.1458 86.1259C38.4255 86.1818 38.5934 86.4615 38.5374 86.7133C38.4815 86.9371 38.2857 87.1049 38.0339 87.1049C38.0153 87.1049 37.9873 87.1049 37.95 87.1049ZM59.5164 85.7622C59.4325 85.5105 59.5724 85.2308 59.8241 85.1468C60.0759 85.0629 60.3556 85.2028 60.4395 85.4545C60.5234 85.7063 60.3836 86.014 60.1318 86.0979C60.0759 86.0979 60.0293 86.0979 59.992 86.0979C59.7682 86.0979 59.5724 85.986 59.5164 85.7622ZM30.8171 84.7832C30.5654 84.6713 30.4535 84.3916 30.5654 84.1399C30.6773 83.8881 30.957 83.7762 31.2087 83.8881C31.4605 83.972 31.5724 84.2797 31.4605 84.5315C31.3766 84.7273 31.2087 84.8391 31.0129 84.8391C30.9384 84.8391 30.8731 84.8205 30.8171 84.7832ZM66.3416 82.9371C66.2018 82.6853 66.2857 82.4056 66.5374 82.2657C66.7892 82.1538 67.0689 82.2378 67.2088 82.4615C67.3206 82.7133 67.2367 83.021 67.0129 83.1329C66.929 83.1888 66.8451 83.1888 66.7612 83.1888C66.5934 83.1888 66.4255 83.1049 66.3416 82.9371ZM24.2157 81.2308C24.2344 81.2308 24.2344 81.2308 24.2157 81.2308C23.992 81.0909 23.936 80.7832 24.0759 80.5594C24.2437 80.3357 24.5514 80.2797 24.7752 80.4196C24.999 80.5594 25.0549 80.8671 24.915 81.0909C24.8032 81.2308 24.6633 81.3147 24.4955 81.3147C24.4022 81.3147 24.309 81.2867 24.2157 81.2308ZM72.5514 78.9371C72.3836 78.7133 72.4116 78.4056 72.6353 78.2378C72.8591 78.0699 73.1668 78.0979 73.3346 78.3217C73.5025 78.5175 73.4745 78.8252 73.2507 79.021C73.1668 79.0769 73.0549 79.1329 72.943 79.1329C72.8032 79.1329 72.6633 79.049 72.5514 78.9371ZM18.3696 76.5874C18.1738 76.3916 18.1738 76.0839 18.3696 75.8881C18.5374 75.6643 18.8731 75.6643 19.0689 75.8601C19.2367 76.0559 19.2647 76.3636 19.0689 76.5594C18.985 76.6713 18.8451 76.6993 18.7053 76.6993C18.5934 76.6993 18.4815 76.6713 18.3696 76.5874ZM77.95 73.8741C77.7542 73.7063 77.7262 73.3986 77.922 73.1748C78.0899 72.979 78.3976 72.951 78.6213 73.1468C78.8171 73.3147 78.8451 73.6224 78.6493 73.8461C78.5654 73.958 78.4255 74.014 78.2857 74.014C78.1738 74.014 78.0619 73.958 77.95 73.8741ZM13.4465 70.9371C13.2787 70.7133 13.3346 70.4056 13.5584 70.2657C13.7822 70.0979 14.0899 70.1538 14.2297 70.3496C14.3976 70.5734 14.3416 70.8811 14.1178 71.0489C14.0432 71.1235 13.95 71.1515 13.8381 71.1329C13.6983 71.1329 13.5304 71.0769 13.4465 70.9371ZM82.3696 67.944C82.1458 67.8042 82.0619 67.4965 82.2018 67.2727C82.3416 67.0489 82.6493 66.965 82.901 67.1049C83.1248 67.2447 83.2087 67.5524 83.0689 67.7762C82.957 67.944 82.7892 68.028 82.6213 68.028C82.5467 68.028 82.4628 68 82.3696 67.944ZM9.58637 64.5315C9.47448 64.2797 9.58637 64 9.81015 63.8601C10.0619 63.7482 10.3696 63.8601 10.4815 64.0839C10.5934 64.3357 10.5094 64.6433 10.2577 64.7552C10.1831 64.7925 10.1085 64.8112 10.0339 64.8112C9.83812 64.8112 9.67029 64.6993 9.58637 64.5315ZM85.6703 61.3147C85.4185 61.2308 85.2787 60.951 85.3906 60.6993C85.4745 60.4475 85.7822 60.3077 86.0339 60.3916C86.2857 60.5035 86.3976 60.7832 86.3136 61.035C86.2297 61.2308 86.0619 61.3706 85.8381 61.3706C85.7822 61.3706 85.7262 61.352 85.6703 61.3147ZM6.957 57.5105C6.87309 57.2587 7.04092 56.979 7.29267 56.9231C7.57239 56.8392 7.82413 57.007 7.90805 57.2587C7.96399 57.5105 7.82413 57.7902 7.57239 57.8741C7.51644 57.8741 7.46982 57.8741 7.43253 57.8741C7.20875 57.8741 7.01295 57.7343 6.957 57.5105ZM87.7402 54.2098C87.4605 54.1818 87.2647 53.9021 87.3206 53.6503C87.3766 53.3706 87.6283 53.2028 87.9081 53.2587C88.1598 53.2867 88.3556 53.5664 88.2997 53.8182C88.2437 54.0699 88.0479 54.2378 87.8241 54.2378C87.7868 54.2378 87.7589 54.2284 87.7402 54.2098ZM5.61434 50.1538C5.58637 49.8741 5.78218 49.6503 6.0619 49.6224C6.34162 49.5944 6.56539 49.7902 6.59337 50.0699C6.62134 50.3496 6.42553 50.5734 6.14581 50.6014C6.12716 50.6014 6.11784 50.6014 6.11784 50.6014C5.86609 50.6014 5.64232 50.4056 5.61434 50.1538ZM87.964 46.3776C87.964 46.359 87.964 46.3403 87.964 46.3217C87.964 46.303 87.964 46.2844 87.964 46.2657C87.964 46.014 88.1878 45.7902 88.4675 45.7902C88.7472 45.7902 88.971 46.014 88.971 46.2657C88.971 46.2844 88.971 46.303 88.971 46.3217C88.971 46.3403 88.971 46.359 88.971 46.3776C88.971 46.6294 88.7472 46.8531 88.4675 46.8531C88.1878 46.8531 87.964 46.6294 87.964 46.3776ZM6.0619 43.2168C5.78218 43.1888 5.58637 42.9371 5.61434 42.6853C5.64232 42.4056 5.86609 42.2098 6.14581 42.2378C6.42553 42.2378 6.62134 42.4895 6.59337 42.7692C6.56539 43.021 6.36959 43.2168 6.08987 43.2168C6.08987 43.2168 6.08054 43.2168 6.0619 43.2168ZM87.3206 38.993C87.2647 38.7412 87.4325 38.4615 87.7122 38.4336C87.964 38.3776 88.2157 38.5454 88.2717 38.8252C88.3276 39.0769 88.1598 39.3566 87.8801 39.3846C87.8428 39.4033 87.8148 39.4126 87.7962 39.4126C87.5724 39.4126 87.3486 39.2447 87.3206 38.993ZM7.26469 35.9161C7.01295 35.8322 6.84511 35.5804 6.92903 35.3007C7.01295 35.0489 7.26469 34.8811 7.54441 34.965C7.79616 35.0489 7.96399 35.3007 7.88008 35.5804C7.82413 35.8042 7.62833 35.944 7.40455 35.944C7.36726 35.944 7.32064 35.9347 7.26469 35.9161ZM85.3626 31.972C85.2507 31.6923 85.3906 31.4126 85.6423 31.3287C85.8941 31.2168 86.1738 31.3566 86.2857 31.6084C86.3696 31.8601 86.2297 32.1399 85.978 32.2517C85.922 32.2704 85.8661 32.2797 85.8102 32.2797C85.6143 32.2797 85.4185 32.1678 85.3626 31.972ZM9.78218 28.951C9.53043 28.8391 9.41854 28.5315 9.5584 28.3077C9.67029 28.0559 9.97798 27.944 10.2018 28.0559C10.4535 28.1958 10.5654 28.4755 10.4535 28.7273C10.3416 28.8951 10.1738 29.007 10.006 29.007C9.93136 29.007 9.85677 28.9883 9.78218 28.951ZM82.1738 25.3986C82.0339 25.1468 82.0899 24.8391 82.3416 24.6993C82.5654 24.5594 82.8731 24.6433 83.0129 24.8671C83.1528 25.1189 83.0689 25.4266 82.8451 25.5664C82.7705 25.6037 82.6866 25.6224 82.5934 25.6224C82.4255 25.6224 82.2577 25.5385 82.1738 25.3986ZM13.5025 22.5454C13.2787 22.4056 13.2227 22.0979 13.3906 21.8741C13.5584 21.6503 13.8661 21.5944 14.0899 21.7622C14.2857 21.9301 14.3416 22.2378 14.1738 22.4615C14.0899 22.5734 13.95 22.6573 13.7822 22.6573C13.6983 22.6573 13.5864 22.6294 13.5025 22.5454ZM77.8661 19.4965C77.6703 19.2727 77.6983 18.965 77.8941 18.7972C78.0899 18.6014 78.4255 18.6294 78.5934 18.8252C78.7892 19.0489 78.7612 19.3566 78.5374 19.5245C78.4535 19.6084 78.3416 19.6643 78.2297 19.6643C78.0899 19.6643 77.95 19.6084 77.8661 19.4965ZM18.2857 16.9231C18.1178 16.7273 18.1178 16.4196 18.3136 16.2238C18.5094 16.028 18.8171 16.0559 19.0129 16.2517C19.2088 16.4475 19.1808 16.7552 18.985 16.951C18.9011 17.035 18.7612 17.0629 18.6493 17.0629C18.5094 17.0629 18.3976 17.035 18.2857 16.9231ZM72.5794 14.4336C72.3556 14.2657 72.3276 13.958 72.4955 13.7622C72.6633 13.5385 72.971 13.5105 73.1668 13.6783C73.3906 13.8461 73.4185 14.1538 73.2507 14.3776C73.1668 14.4895 73.0269 14.5454 72.8591 14.5454C72.7752 14.5454 72.6633 14.5175 72.5794 14.4336ZM24.0199 12.2238C23.8521 12 23.936 11.6923 24.1598 11.5524C24.3836 11.4126 24.6913 11.4685 24.8311 11.6923C24.971 11.9161 24.915 12.2238 24.6913 12.3636C24.6073 12.4196 24.5234 12.4475 24.4115 12.4475C24.2717 12.4475 24.1039 12.3636 24.0199 12.2238ZM66.4535 10.4336C66.2297 10.2937 66.1178 9.986 66.2577 9.76223C66.3976 9.51048 66.6773 9.42656 66.929 9.56642C67.1808 9.67831 67.2647 9.986 67.1248 10.2098C67.0409 10.3776 66.8731 10.4895 66.7053 10.4895C66.612 10.4895 66.5281 10.4708 66.4535 10.4336ZM30.4815 8.64334C30.3696 8.3916 30.4815 8.0839 30.7332 7.99999C30.985 7.8881 31.2647 7.99999 31.3766 8.25174C31.4885 8.50348 31.3766 8.7832 31.1248 8.89509C31.0502 8.93239 30.985 8.94171 30.929 8.92306C30.7332 8.92306 30.5654 8.81118 30.4815 8.64334ZM59.7402 7.55244C59.4885 7.46852 59.3206 7.1888 59.4046 6.93705C59.4885 6.6853 59.7682 6.54544 60.0479 6.62936C60.2997 6.71327 60.4395 6.99299 60.3556 7.24474C60.2997 7.44055 60.1039 7.58041 59.8801 7.58041C59.8428 7.58041 59.7962 7.57108 59.7402 7.55244ZM37.4745 6.26572C37.4185 5.986 37.5864 5.73425 37.8381 5.67831C38.1178 5.59439 38.3696 5.76223 38.4255 6.04195C38.5094 6.29369 38.3416 6.57341 38.0619 6.62936C38.0246 6.62936 37.9873 6.62936 37.95 6.62936C37.7262 6.62936 37.5304 6.4895 37.4745 6.26572ZM52.6074 5.95803C52.3276 5.93006 52.1598 5.67831 52.1878 5.39859C52.2157 5.11887 52.4675 4.95104 52.7472 4.97901C52.999 5.00698 53.1948 5.25873 53.1668 5.53845C53.1388 5.7902 52.915 5.95803 52.6633 5.95803C52.6446 5.95803 52.626 5.95803 52.6074 5.95803ZM44.8032 5.17481C44.7752 4.89509 44.999 4.67132 45.2507 4.67132C45.5304 4.64334 45.7542 4.86712 45.7822 5.11887C45.7822 5.39859 45.5864 5.62237 45.3067 5.65034C45.3067 5.65034 45.2973 5.65034 45.2787 5.65034C45.0269 5.65034 44.8032 5.42656 44.8032 5.17481Z" fill="url(#paint6_linear_432_318)"/>
<path d="M9.30669 46.3767C9.30669 25.4536 26.2857 8.47461 47.2088 8.47461C68.1319 8.47461 85.0829 25.4536 85.0829 46.3767C85.0829 67.2998 68.1319 84.2508 47.2088 84.2508C26.2857 84.2508 9.30669 67.2998 9.30669 46.3767Z" fill="url(#paint7_linear_432_318)"/>
<path d="M84.3277 46.3777C84.3277 66.8812 67.7123 83.4966 47.2088 83.4966C26.7053 83.4966 10.0899 66.8812 10.0899 46.3777C10.0899 25.8742 26.7053 9.25879 47.2088 9.25879C67.7123 9.25879 84.3277 25.8742 84.3277 46.3777Z" fill="url(#paint8_linear_432_318)"/>
<path d="M76.7193 46.3777C76.7193 62.6574 63.4885 75.8882 47.2088 75.8882C30.9011 75.8882 17.6983 62.6574 17.6983 46.3777C17.6983 30.07 30.9011 16.8672 47.2088 16.8672C63.4885 16.8672 76.7193 30.07 76.7193 46.3777Z" fill="url(#paint9_linear_432_318)"/>
<path d="M12.0479 46.3776C12.0479 26.9371 27.7962 11.2168 47.2088 11.2168C66.6213 11.2168 82.3696 26.9371 82.3696 46.3776C82.3696 65.7902 66.6213 81.5385 47.2088 81.5385C27.7962 81.5385 12.0479 65.7902 12.0479 46.3776Z" fill="#1E2F53"/>
<path fill-rule="evenodd" clip-rule="evenodd" d="M80.1878 46.3784C80.1878 64.5882 65.4186 79.3575 47.2088 79.3575C28.999 79.3575 14.2298 64.5882 14.2298 46.3784C14.2298 28.1686 28.999 13.3994 47.2088 13.3994C65.4186 13.3994 80.1878 28.1686 80.1878 46.3784ZM79.3486 46.3784C79.3486 28.6162 64.943 14.2386 47.2088 14.2386C29.4465 14.2386 15.0689 28.6162 15.0689 46.3784C15.0689 64.1127 29.4465 78.5183 47.2088 78.5183C64.943 78.5183 79.3486 64.1127 79.3486 46.3784Z" fill="url(#paint10_linear_432_318)"/>
<path style="mix-blend-mode:screen" opacity="0.2" d="M32.971 75.6651L47.2088 46.3784L32.1878 75.2735C32.4489 75.4041 32.71 75.5346 32.971 75.6651ZM36.4955 77.1197L47.2088 46.3784L35.6563 76.84C35.9361 76.9332 36.2158 77.0264 36.4955 77.1197ZM29.6703 73.819L47.2088 46.3784L28.9431 73.3435C29.1855 73.5113 29.4279 73.6698 29.6703 73.819ZM26.6214 71.6092L47.2088 46.3784L25.95 71.0218C26.1738 71.2269 26.3976 71.4227 26.6214 71.6092ZM43.8521 78.77L47.2088 46.3784L42.985 78.6581C43.2647 78.6861 43.5724 78.7421 43.8521 78.77ZM40.1319 78.1546L47.2088 46.3784L39.2647 77.9588C39.5445 78.0334 39.8335 78.0987 40.1319 78.1546ZM17.4745 59.6651L47.2088 46.3784L17.1109 58.854C17.2228 59.1337 17.344 59.4041 17.4745 59.6651ZM16.1319 56.1407L47.2088 46.3784L15.8801 55.2735C15.9547 55.5719 16.0386 55.8609 16.1319 56.1407ZM47.2088 78.9379C47.358 78.9379 47.5072 78.9379 47.6563 78.9379L47.2088 46.3784L46.7612 78.9379C46.9104 78.9379 47.0596 78.9379 47.2088 78.9379ZM15.2088 52.4763L47.2088 46.3784L15.0689 51.6092C15.1062 51.8889 15.1528 52.178 15.2088 52.4763ZM21.3347 66.1547L47.2088 46.3784L20.8312 65.4553C20.999 65.6978 21.1668 65.9309 21.3347 66.1547ZM23.8242 69.0358L47.2088 46.3784L23.2088 68.3924C23.4139 68.5975 23.619 68.812 23.8242 69.0358ZM19.2088 63.0218L47.2088 46.3784L18.7892 62.2665C18.9197 62.5276 19.0596 62.7794 19.2088 63.0218ZM68.4675 71.0218L47.2088 46.3784L67.7962 71.6092C68.02 71.4227 68.2438 71.2269 68.4675 71.0218ZM78.5375 55.2735L47.2088 46.3784L78.2857 56.1407C78.379 55.8609 78.4629 55.5719 78.5375 55.2735ZM77.2787 58.854L47.2088 46.3784L76.9431 59.6651C77.0549 59.4041 77.1668 59.1337 77.2787 58.854ZM75.6284 62.2665L47.2088 46.3784L75.1808 63.0218C75.33 62.7794 75.4792 62.5276 75.6284 62.2665ZM79.3487 51.6092L47.2088 46.3784L79.2088 52.4763C79.2647 52.178 79.3114 51.8889 79.3487 51.6092ZM79.6843 48.7001C79.703 48.4017 79.7216 48.1127 79.7403 47.833L47.2088 46.3784L79.6843 48.7001ZM51.4326 78.6581L47.2088 46.3505L50.5375 78.77C50.8452 78.7421 51.1249 78.6861 51.4326 78.6581ZM73.5864 65.4553L47.2088 46.3505L73.0549 66.1547C73.2414 65.9309 73.4186 65.6978 73.5864 65.4553ZM58.7612 76.812L47.2088 46.3505L57.9221 77.1197C58.2018 77.0264 58.4815 76.9239 58.7612 76.812ZM62.2018 75.2735L47.2088 46.3505L61.4186 75.6651C61.6797 75.5346 61.9407 75.4041 62.2018 75.2735ZM55.1249 77.9588L47.2088 46.3505L54.2857 78.1546C54.5654 78.0987 54.8452 78.0334 55.1249 77.9588ZM65.4745 73.3435L47.2088 46.3505L64.7193 73.819C64.9617 73.6512 65.2135 73.4926 65.4745 73.3435ZM71.2088 68.3924L47.2088 46.3505L70.5934 69.0078C70.7985 68.8027 71.0037 68.5975 71.2088 68.3924ZM14.7333 48.7001L47.2088 46.3505L14.6773 47.805C14.6773 48.1034 14.696 48.4017 14.7333 48.7001ZM15.041 41.1477L47.2088 46.3505L15.2088 40.2805C15.1528 40.5602 15.0969 40.8493 15.041 41.1477ZM64.7193 18.9099L47.2088 46.3505L65.4745 19.3854C65.2228 19.2176 64.971 19.0777 64.7193 18.9099ZM61.4186 17.0637L47.2088 46.3505L62.2018 17.4554C61.9407 17.3248 61.6797 17.1943 61.4186 17.0637ZM67.7962 21.1197L47.2088 46.3505L68.4675 21.7071C68.2438 21.502 68.02 21.3062 67.7962 21.1197ZM54.2857 14.5742L47.2088 46.3505L55.1249 14.77C54.8452 14.6954 54.5654 14.6302 54.2857 14.5742ZM57.9221 15.6092L47.2088 46.3505L58.7612 15.9169C58.4815 15.805 58.2018 15.7024 57.9221 15.6092ZM50.5375 13.9588L47.2088 46.3505L51.4326 14.0707C51.1249 14.0428 50.8452 13.9868 50.5375 13.9588ZM70.5934 23.6931L47.2088 46.3505L71.2088 24.3365C71.0037 24.1313 70.7985 23.9169 70.5934 23.6931ZM79.1808 40.2805L47.2088 46.3505L79.3487 41.1477C79.2927 40.8493 79.2368 40.5602 79.1808 40.2805ZM78.2857 36.6162L47.2088 46.3505L78.5375 37.4553C78.4535 37.1756 78.3696 36.8959 78.2857 36.6162ZM73.0549 26.5742L47.2088 46.3505L73.5864 27.2735C73.4186 27.0311 73.2414 26.798 73.0549 26.5742ZM79.6843 44.0288L47.2088 46.3505L79.7403 44.8959C79.7216 44.6162 79.703 44.3271 79.6843 44.0288ZM76.9431 33.0637L47.2088 46.3505L77.2787 33.8749C77.1668 33.5952 77.0549 33.3248 76.9431 33.0637ZM75.1808 29.7071L47.2088 46.3505L75.6284 30.4623C75.4792 30.2013 75.33 29.9495 75.1808 29.7071ZM25.95 21.7071L47.2088 46.3505L26.6214 21.1197C26.3976 21.3062 26.1738 21.502 25.95 21.7071ZM47.2088 13.791C47.0689 13.791 46.9011 13.791 46.7612 13.791L47.2088 46.3505L47.6284 13.791C47.4885 13.791 47.3486 13.791 47.2088 13.791ZM23.2088 24.3365L47.2088 46.3505L23.8242 23.6931C23.619 23.9169 23.4139 24.1313 23.2088 24.3365ZM18.7892 30.4623L47.2088 46.3505L19.2088 29.7071C19.0596 29.9495 18.9197 30.2013 18.7892 30.4623ZM20.8312 27.2735L47.2088 46.3505L21.3347 26.5742C21.1668 26.798 20.999 27.0311 20.8312 27.2735ZM17.1109 33.8749L47.2088 46.3505L17.4745 33.0637C17.344 33.3248 17.2228 33.5952 17.1109 33.8749ZM15.8801 37.4553L47.2088 46.3505L16.1319 36.6162C16.0386 36.8959 15.9547 37.1756 15.8801 37.4553ZM14.6773 44.8959L47.2088 46.3505L14.7333 44.0288C14.696 44.3271 14.6773 44.6162 14.6773 44.8959ZM42.985 14.0707L47.2088 46.3505L43.8521 13.9588C43.5724 13.9868 43.2647 14.0428 42.985 14.0707ZM39.2647 14.77L47.2088 46.3505L40.1319 14.5742C39.8335 14.6302 39.5445 14.6954 39.2647 14.77ZM28.9431 19.3854L47.2088 46.3505L29.6703 18.9099C29.4279 19.0591 29.1855 19.2176 28.9431 19.3854ZM32.1878 17.4554L47.2088 46.3505L32.971 17.0637C32.71 17.1943 32.4489 17.3248 32.1878 17.4554ZM35.6563 15.9169L47.2088 46.3505L36.4675 15.6092C36.2065 15.7024 35.9361 15.805 35.6563 15.9169Z" fill="url(#paint11_radial_432_318)"/>
<path fill-rule="evenodd" clip-rule="evenodd" d="M20.2437 40.3643H23.1248C24.9896 40.3643 25.922 41.595 25.922 44.0566C25.922 45.0449 25.7635 45.8188 25.4465 46.3782C25.1109 46.9377 24.6913 47.292 24.1878 47.4412C23.7029 47.5904 22.9757 47.6743 22.006 47.6929V53.4272H20.2437V40.3643ZM22.006 46.3223C22.7519 46.3223 23.2833 46.1731 23.6004 45.8747C23.9174 45.5764 24.0759 44.9703 24.0759 44.0566C24.0759 43.1428 23.936 42.5181 23.6563 42.1824C23.3766 41.8654 22.8265 41.7069 22.006 41.7069V46.3223Z" fill="url(#paint12_linear_432_318)"/>
<path fill-rule="evenodd" clip-rule="evenodd" d="M33.7822 53.4272H31.9361L29.8941 47.2733H29.7263V53.4272H27.964V40.3643H30.4256C32.4023 40.3643 33.3906 41.4738 33.3906 43.6929C33.3906 44.6999 33.2507 45.4645 32.971 45.9866C32.6727 46.4901 32.1878 46.8724 31.5165 47.1335L33.7822 53.4272ZM29.7542 46.0985C30.4442 46.0799 30.9384 45.9214 31.2368 45.623C31.5351 45.306 31.6843 44.7372 31.6843 43.9167C31.6843 43.1335 31.5538 42.574 31.2927 42.2384C31.013 41.9027 30.5375 41.7349 29.8661 41.7349H29.7542V46.0985Z" fill="url(#paint13_linear_432_318)"/>
<path fill-rule="evenodd" clip-rule="evenodd" d="M35.4046 46.8532C35.4046 44.0187 35.6843 42.1819 36.2437 41.3427C36.8032 40.5036 37.7169 40.084 38.985 40.084C40.4582 40.084 41.4372 40.5502 41.922 41.4826C42.3882 42.415 42.6213 44.1026 42.6213 46.5455C42.6213 48.7087 42.5188 50.2099 42.3136 51.049C42.0899 51.8882 41.7169 52.5036 41.1948 52.8952C40.6726 53.3054 39.9547 53.5106 39.0409 53.5106C38.1085 53.5106 37.3906 53.3241 36.8871 52.9511C36.3836 52.5968 36.0106 52.0094 35.7682 51.1889C35.5258 50.3684 35.4046 48.9231 35.4046 46.8532ZM40.7752 46.9651C40.7752 44.4849 40.6353 42.9465 40.3556 42.3497C40.0572 41.7716 39.619 41.4826 39.0409 41.4826C38.3509 41.4826 37.8847 41.8276 37.6423 42.5175C37.3812 43.2262 37.2507 44.4103 37.2507 46.07V46.7973C37.2507 48.6434 37.3533 49.9954 37.5584 50.8532C37.7635 51.6924 38.2577 52.112 39.0409 52.112C39.5258 52.112 39.936 51.8789 40.2717 51.4127C40.6074 50.9278 40.7752 49.6038 40.7752 47.4406V46.9651Z" fill="url(#paint14_linear_432_318)"/>
<path fill-rule="evenodd" clip-rule="evenodd" d="M45.1948 40.3643H47.7402C48.9337 40.3643 49.8847 40.8118 50.5934 41.7069C51.2833 42.6207 51.6283 44.327 51.6283 46.8258C51.6283 49.2314 51.3206 50.9377 50.7053 51.9447C50.0899 52.933 48.999 53.4272 47.4325 53.4272H45.1948V40.3643ZM46.957 41.7069V52.1125C47.6843 52.1125 48.2437 51.9727 48.6353 51.6929C49.0269 51.4132 49.316 50.9004 49.5025 50.1545C49.6889 49.4085 49.7822 48.2897 49.7822 46.7978C49.7822 44.8957 49.605 43.5717 49.2507 42.8258C48.8964 42.0799 48.2064 41.7069 47.1808 41.7069H46.957Z" fill="url(#paint15_linear_432_318)"/>
<path d="M60.0759 50.3223C60.0759 52.5041 59.0969 53.595 57.1388 53.595C54.9943 53.595 53.9221 52.5134 53.9221 50.3503V40.3643H55.6843V49.623C55.6843 50.6113 55.7682 51.292 55.936 51.665C56.1039 52.0566 56.4768 52.2524 57.0549 52.2524C57.633 52.2524 57.9873 52.0472 58.1179 51.637C58.267 51.2454 58.3416 50.5368 58.3416 49.5111V40.3643H60.0759V50.3223Z" fill="url(#paint16_linear_432_318)"/>
<path d="M68.0479 53.2032C67.5258 53.4456 67.0036 53.5669 66.4815 53.5669C65.4186 53.5669 64.5048 53.1659 63.7402 52.3641C62.9757 51.5435 62.5934 49.8372 62.5934 47.2452C62.5934 44.448 62.9757 42.5645 63.7402 41.5948C64.5048 40.6065 65.4372 40.1123 66.5374 40.1123C66.9477 40.1123 67.4512 40.1869 68.0479 40.3361V41.9305C67.6563 41.7813 67.2834 41.7067 66.929 41.7067C66.2577 41.7067 65.6796 42.0517 65.1948 42.7417C64.7099 43.4317 64.4675 44.8023 64.4675 46.8536C64.4675 48.0657 64.5141 49.0167 64.6074 49.7067C64.7193 50.3967 64.9617 50.9468 65.3346 51.3571C65.7263 51.7673 66.2111 51.9724 66.7892 51.9724C67.1249 51.9724 67.5444 51.8606 68.0479 51.6368V53.2032Z" fill="url(#paint17_linear_432_318)"/>
<path d="M75.3207 41.8468H73.3067V53.4272H71.5444V41.8468H69.5584V40.3643H75.3207V41.8468Z" fill="url(#paint18_linear_432_318)"/>
<path d="M38.8171 32.3359H40.4675V33.4268H36.4115L38.3976 30.9093C38.6773 30.5363 38.8824 30.2287 39.0129 29.9862C39.1248 29.7625 39.1808 29.5387 39.1808 29.3149C39.1808 29.0911 39.1062 28.914 38.957 28.7834C38.8078 28.6343 38.6307 28.5597 38.4255 28.5597C38.1645 28.5597 37.978 28.6529 37.8661 28.8394C37.7542 29.0259 37.6796 29.3056 37.6423 29.6785H36.3556C36.3556 28.9886 36.5607 28.4478 36.971 28.0562C37.3999 27.6646 37.9127 27.4688 38.5095 27.4688C39.0875 27.4688 39.5537 27.6366 39.9081 27.9722C40.281 28.3079 40.4675 28.7368 40.4675 29.259C40.4675 29.7625 40.253 30.3219 39.8241 30.9373L39.4885 31.4408C39.3393 31.6459 39.1621 31.879 38.957 32.1401L38.8171 32.3359Z" fill="url(#paint19_linear_432_318)"/>
<path fill-rule="evenodd" clip-rule="evenodd" d="M44.2997 27.5254C44.9897 27.5254 45.5398 27.7958 45.95 28.3366C46.3603 28.8587 46.5654 29.558 46.5654 30.4345C46.5654 31.4601 46.3417 32.2247 45.8941 32.7282C45.4279 33.2317 44.8964 33.4834 44.2997 33.4834C43.6284 33.4834 43.0782 33.213 42.6493 32.6722C42.2204 32.1501 42.006 31.4508 42.006 30.5743C42.006 29.6606 42.2111 28.924 42.6214 28.3646C43.0503 27.8051 43.6004 27.5254 44.2717 27.5254H44.2997ZM45.3347 30.5464C45.3347 29.9683 45.2414 29.5021 45.0549 29.1478C44.8685 28.8121 44.6167 28.6443 44.2997 28.6443C43.964 28.6443 43.703 28.8121 43.5165 29.1478C43.3113 29.5021 43.2088 29.9776 43.2088 30.5743C43.2088 31.1151 43.3113 31.5534 43.5165 31.889C43.703 32.206 43.9547 32.3646 44.2717 32.3646C44.5887 32.3646 44.8498 32.206 45.0549 31.889C45.2414 31.5534 45.3347 31.1058 45.3347 30.5464Z" fill="url(#paint20_linear_432_318)"/>
<path d="M48.9151 27.6084H50.7892V33.4266H49.5304V28.6713H48.6913L48.9151 27.6084Z" fill="url(#paint21_linear_432_318)"/>
<path d="M53.8101 27.6084H58.4255L54.7053 33.5944L53.6983 32.9511L56.3276 28.6713H53.8101V27.6084Z" fill="url(#paint22_linear_432_318)"/>
<path fill-rule="evenodd" clip-rule="evenodd" d="M27.992 62.4623C27.992 61.9029 28.1785 61.4367 28.5514 61.0637C28.9244 60.7094 29.3719 60.5322 29.8941 60.5322C30.4535 60.5322 30.9104 60.7094 31.2647 61.0637C31.6377 61.4367 31.8241 61.9029 31.8241 62.4623C31.8241 63.0217 31.647 63.4879 31.2927 63.8609C30.9197 64.2152 30.4535 64.3924 29.8941 64.3924C29.3533 64.3924 28.9057 64.2152 28.5514 63.8609C28.1785 63.4879 27.992 63.0217 27.992 62.4623ZM29.922 61.2875C29.605 61.2875 29.344 61.3994 29.1388 61.6231C28.9523 61.8469 28.8591 62.136 28.8591 62.4903C28.8591 62.8259 28.9617 63.1057 29.1668 63.3294C29.3533 63.5532 29.5957 63.6651 29.8941 63.6651C30.2111 63.6651 30.4722 63.5532 30.6773 63.3294C30.8638 63.1057 30.957 62.8166 30.957 62.4623C30.957 62.108 30.8638 61.8283 30.6773 61.6231C30.4908 61.3994 30.2391 61.2875 29.922 61.2875Z" fill="url(#paint23_linear_432_318)"/>
<path d="M33.1109 60.5586H35.2367V61.2859H33.9221V62.0691H35.2367V62.8243H33.9221V64.3628H33.1109V60.5586Z" fill="url(#paint24_linear_432_318)"/>
<path d="M38.4255 60.5586H40.971V61.3698H40.1039V64.3628H39.2927V61.3698H38.4255V60.5586Z" fill="url(#paint25_linear_432_318)"/>
<path d="M42.1179 60.5586H42.9291V62.0131H44.2717V60.5586H45.0829V64.3628H44.2717V62.8523H42.9291V64.3628H42.1179V60.5586Z" fill="url(#paint26_linear_432_318)"/>
<path d="M46.4815 60.5586H48.6074V61.3138H47.2927V62.0691H48.6074V62.8243H47.2927V63.6075H48.6074V64.3628H46.4815V60.5586Z" fill="url(#paint27_linear_432_318)"/>
<path d="M51.7682 60.5586H52.6633L53.3626 61.7334L54.0899 60.5586H54.985L53.7822 62.5726V64.3628H52.971V62.5726L51.7682 60.5586Z" fill="url(#paint28_linear_432_318)"/>
<path d="M56.1039 60.5586H58.2297V61.3138H56.9151V62.0691H58.2297V62.8243H56.9151V63.6075H58.2297V64.3628H56.1039V60.5586Z" fill="url(#paint29_linear_432_318)"/>
<path fill-rule="evenodd" clip-rule="evenodd" d="M60.8312 60.5586H61.4745L63.013 64.3628H62.2018L61.8941 63.6075H60.4395L60.1319 64.3628H59.3207L60.8312 60.5586ZM61.1388 61.7894L60.6913 62.9082H61.6144L61.1388 61.7894Z" fill="url(#paint30_linear_432_318)"/>
<path fill-rule="evenodd" clip-rule="evenodd" d="M64.1878 60.5586H65.4186C65.8102 60.5586 66.1179 60.6612 66.3416 60.8663C66.5468 61.0714 66.6493 61.3418 66.6493 61.6775C66.6493 61.864 66.6027 62.0691 66.5095 62.2929C66.4162 62.498 66.2297 62.6565 65.95 62.7684L67.013 64.3628H66.0619L65.0829 62.8803H64.999V64.3628H64.1878V60.5586ZM64.999 61.2299V62.2089H65.1668C65.5957 62.2089 65.8102 62.0411 65.8102 61.7054C65.8102 61.5563 65.7542 61.4351 65.6423 61.3418C65.5305 61.2672 65.3813 61.2299 65.1948 61.2299H64.999Z" fill="url(#paint31_linear_432_318)"/>
<path d="M68.7752 36.5035H25.1668V36H68.7752V36.5035Z" fill="url(#paint32_linear_432_318)"/>
<path d="M68.7752 57.65H25.1668V57.1465H68.7752V57.65Z" fill="url(#paint33_linear_432_318)"/>
<path d="M49.5584 24.7548L47.6843 23.6639L45.8382 24.7548L46.2857 22.6569L44.6633 21.2023L46.8172 21.0065L47.6843 19.0205L48.5514 21.0065L50.7053 21.2023L49.0829 22.6569L49.5584 24.7548Z" fill="url(#paint34_linear_432_318)"/>
<path d="M54.6493 24.3068L53.3906 23.5795L52.1598 24.3068L52.4675 22.9082L51.4046 21.9571L52.8311 21.8173L53.3906 20.4746L53.978 21.8173L55.4046 21.9571L54.3137 22.9082L54.6493 24.3068Z" fill="url(#paint35_linear_432_318)"/>
<path d="M42.957 24.3068L41.7263 23.5795L40.4955 24.3068L40.8032 22.9082L39.7123 21.9571L41.1388 21.8173L41.7263 20.4746L42.2857 21.8173L43.7402 21.9571L42.6493 22.9082L42.957 24.3068Z" fill="url(#paint36_linear_432_318)"/>
<path d="M49.3067 68.2246L47.4325 69.3155L45.5584 68.2246L46.0339 70.3225L44.4116 71.7771L46.5654 71.9729L47.4325 73.9589L48.2997 71.9729L50.4535 71.7771L48.8311 70.3225L49.3067 68.2246Z" fill="url(#paint37_linear_432_318)"/>
<path d="M42.957 68.6719L41.7263 69.3991L40.4955 68.6719L40.8032 70.0705L39.7123 71.0215L41.1388 71.1614L41.7263 72.4761L42.2857 71.1614L43.7402 71.0215L42.6493 70.0705L42.957 68.6719Z" fill="url(#paint38_linear_432_318)"/>
<path d="M54.3137 70.0705L54.6493 68.6719L53.3906 69.3991L52.1598 68.6719L52.4675 70.0705L51.4046 71.0215L52.8311 71.1614L53.3906 72.4761L53.978 71.1614L55.4046 71.0215L54.3137 70.0705Z" fill="url(#paint39_linear_432_318)"/>
</g>
<defs>
<linearGradient id="paint0_linear_432_318" x1="792.692" y1="-8926.97" x2="-2375.27" y2="-16937.1" gradientUnits="userSpaceOnUse">
<stop stop-color="#D5D5D5"/>
<stop offset="0.21" stop-color="white"/>
<stop offset="0.45" stop-color="#272727"/>
<stop offset="0.67" stop-color="#B7B7B7"/>
<stop offset="1" stop-color="#D5D5D5"/>
</linearGradient>
<linearGradient id="paint1_linear_432_318" x1="6340.15" y1="12385.5" x2="13001.2" y2="12385.5" gradientUnits="userSpaceOnUse">
<stop stop-color="#D5D5D5"/>
<stop offset="0.21" stop-color="white"/>
<stop offset="0.45" stop-color="#272727"/>
<stop offset="0.67" stop-color="#B7B7B7"/>
<stop offset="1" stop-color="#D5D5D5"/>
</linearGradient>
<linearGradient id="paint2_linear_432_318" x1="4715.15" y1="-106.401" x2="8093.89" y2="-8649.36" gradientUnits="userSpaceOnUse">
<stop stop-color="#D5D5D5"/>
<stop offset="0.21" stop-color="white"/>
<stop offset="0.45" stop-color="#272727"/>
<stop offset="0.67" stop-color="#B7B7B7"/>
<stop offset="1" stop-color="#D5D5D5"/>
</linearGradient>
<linearGradient id="paint3_linear_432_318" x1="1412.92" y1="12807.3" x2="8073.85" y2="12807.3" gradientUnits="userSpaceOnUse">
<stop stop-color="#D5D5D5"/>
<stop offset="0.21" stop-color="white"/>
<stop offset="0.45" stop-color="#272727"/>
<stop offset="0.67" stop-color="#B7B7B7"/>
<stop offset="1" stop-color="#D5D5D5"/>
</linearGradient>
<linearGradient id="paint4_linear_432_318" x1="30.0694" y1="138.358" x2="41555.4" y2="41663.7" gradientUnits="userSpaceOnUse">
<stop stop-color="#D5D5D5"/>
<stop offset="0.21" stop-color="white"/>
<stop offset="0.45" stop-color="#272727"/>
<stop offset="0.67" stop-color="#B7B7B7"/>
<stop offset="1" stop-color="#D5D5D5"/>
</linearGradient>
<linearGradient id="paint5_linear_432_318" x1="51.6486" y1="-990.382" x2="-39569.8" y2="-40611.9" gradientUnits="userSpaceOnUse">
<stop stop-color="#D5D5D5"/>
<stop offset="0.21" stop-color="white"/>
<stop offset="0.45" stop-color="#272727"/>
<stop offset="0.67" stop-color="#B7B7B7"/>
<stop offset="1" stop-color="#D5D5D5"/>
</linearGradient>
<linearGradient id="paint6_linear_432_318" x1="-118.798" y1="3411.13" x2="28652" y2="35707" gradientUnits="userSpaceOnUse">
<stop stop-color="#D5D5D5"/>
<stop offset="0.21" stop-color="white"/>
<stop offset="0.45" stop-color="#272727"/>
<stop offset="0.67" stop-color="#B7B7B7"/>
<stop offset="1" stop-color="#D5D5D5"/>
</linearGradient>
<linearGradient id="paint7_linear_432_318" x1="-348.849" y1="-4341.31" x2="-22164" y2="-22484.3" gradientUnits="userSpaceOnUse">
<stop stop-color="#D5D5D5"/>
<stop offset="0.21" stop-color="white"/>
<stop offset="0.45" stop-color="#272727"/>
<stop offset="0.67" stop-color="#B7B7B7"/>
<stop offset="1" stop-color="#D5D5D5"/>
</linearGradient>
<linearGradient id="paint8_linear_432_318" x1="472.483" y1="4750.41" x2="21414.5" y2="22167.1" gradientUnits="userSpaceOnUse">
<stop stop-color="#D5D5D5"/>
<stop offset="0.21" stop-color="white"/>
<stop offset="0.45" stop-color="#272727"/>
<stop offset="0.67" stop-color="#B7B7B7"/>
<stop offset="1" stop-color="#D5D5D5"/>
</linearGradient>
<linearGradient id="paint9_linear_432_318" x1="672.365" y1="6909.87" x2="13905.6" y2="17915.5" gradientUnits="userSpaceOnUse">
<stop stop-color="#D5D5D5"/>
<stop offset="0.21" stop-color="white"/>
<stop offset="0.45" stop-color="#272727"/>
<stop offset="0.67" stop-color="#B7B7B7"/>
<stop offset="1" stop-color="#D5D5D5"/>
</linearGradient>
<linearGradient id="paint10_linear_432_318" x1="599.639" y1="6125.43" x2="17128.6" y2="19871.9" gradientUnits="userSpaceOnUse">
<stop stop-color="#D5D5D5"/>
<stop offset="0.21" stop-color="white"/>
<stop offset="0.45" stop-color="#272727"/>
<stop offset="0.67" stop-color="#B7B7B7"/>
<stop offset="1" stop-color="#D5D5D5"/>
</linearGradient>
<radialGradient id="paint11_radial_432_318" cx="0" cy="0" r="1" gradientUnits="userSpaceOnUse" gradientTransform="translate(3473.95 3460.43) scale(16280.7 16301.7)">
<stop stop-color="#CBCBCB"/>
<stop offset="0.14" stop-color="#6E6E6E"/>
<stop offset="1"/>
</radialGradient>
<linearGradient id="paint12_linear_432_318" x1="-7813.28" y1="21080.1" x2="-6042.21" y2="22649.4" gradientUnits="userSpaceOnUse">
<stop stop-color="#D5D5D5"/>
<stop offset="0.21" stop-color="white"/>
<stop offset="0.45" stop-color="#272727"/>
<stop offset="0.67" stop-color="#B7B7B7"/>
<stop offset="1" stop-color="#D5D5D5"/>
</linearGradient>
<linearGradient id="paint13_linear_432_318" x1="-1564.25" y1="15000" x2="-162.397" y2="16242.1" gradientUnits="userSpaceOnUse">
<stop stop-color="#D5D5D5"/>
<stop offset="0.21" stop-color="white"/>
<stop offset="0.45" stop-color="#272727"/>
<stop offset="0.67" stop-color="#B7B7B7"/>
<stop offset="1" stop-color="#D5D5D5"/>
</linearGradient>
<linearGradient id="paint14_linear_432_318" x1="-841.456" y1="21969.3" x2="1330.48" y2="23893.8" gradientUnits="userSpaceOnUse">
<stop stop-color="#D5D5D5"/>
<stop offset="0.21" stop-color="white"/>
<stop offset="0.45" stop-color="#272727"/>
<stop offset="0.67" stop-color="#B7B7B7"/>
<stop offset="1" stop-color="#D5D5D5"/>
</linearGradient>
<linearGradient id="paint15_linear_432_318" x1="1935.38" y1="22364.1" x2="3698.1" y2="23926" gradientUnits="userSpaceOnUse">
<stop stop-color="#D5D5D5"/>
<stop offset="0.21" stop-color="white"/>
<stop offset="0.45" stop-color="#272727"/>
<stop offset="0.67" stop-color="#B7B7B7"/>
<stop offset="1" stop-color="#D5D5D5"/>
</linearGradient>
<linearGradient id="paint16_linear_432_318" x1="4161.04" y1="23425.3" x2="5775.51" y2="24855.8" gradientUnits="userSpaceOnUse">
<stop stop-color="#D5D5D5"/>
<stop offset="0.21" stop-color="white"/>
<stop offset="0.45" stop-color="#272727"/>
<stop offset="0.67" stop-color="#B7B7B7"/>
<stop offset="1" stop-color="#D5D5D5"/>
</linearGradient>
<linearGradient id="paint17_linear_432_318" x1="6681.97" y1="28179.1" x2="8245.55" y2="29564.5" gradientUnits="userSpaceOnUse">
<stop stop-color="#D5D5D5"/>
<stop offset="0.21" stop-color="white"/>
<stop offset="0.45" stop-color="#272727"/>
<stop offset="0.67" stop-color="#B7B7B7"/>
<stop offset="1" stop-color="#D5D5D5"/>
</linearGradient>
<linearGradient id="paint18_linear_432_318" x1="8345.04" y1="28354.3" x2="9914.62" y2="29745" gradientUnits="userSpaceOnUse">
<stop stop-color="#D5D5D5"/>
<stop offset="0.21" stop-color="white"/>
<stop offset="0.45" stop-color="#272727"/>
<stop offset="0.67" stop-color="#B7B7B7"/>
<stop offset="1" stop-color="#D5D5D5"/>
</linearGradient>
<linearGradient id="paint19_linear_432_318" x1="2358.97" y1="13592.3" x2="3289.23" y2="14416.5" gradientUnits="userSpaceOnUse">
<stop stop-color="#D5D5D5"/>
<stop offset="0.21" stop-color="white"/>
<stop offset="0.45" stop-color="#272727"/>
<stop offset="0.67" stop-color="#B7B7B7"/>
<stop offset="1" stop-color="#D5D5D5"/>
</linearGradient>
<linearGradient id="paint20_linear_432_318" x1="4401.43" y1="17854.1" x2="5652.56" y2="18962.7" gradientUnits="userSpaceOnUse">
<stop stop-color="#D5D5D5"/>
<stop offset="0.21" stop-color="white"/>
<stop offset="0.45" stop-color="#272727"/>
<stop offset="0.67" stop-color="#B7B7B7"/>
<stop offset="1" stop-color="#D5D5D5"/>
</linearGradient>
<linearGradient id="paint21_linear_432_318" x1="4922.61" y1="14323" x2="5353.72" y2="14705" gradientUnits="userSpaceOnUse">
<stop stop-color="#D5D5D5"/>
<stop offset="0.21" stop-color="white"/>
<stop offset="0.45" stop-color="#272727"/>
<stop offset="0.67" stop-color="#B7B7B7"/>
<stop offset="1" stop-color="#D5D5D5"/>
</linearGradient>
<linearGradient id="paint22_linear_432_318" x1="4960.81" y1="28795.1" x2="6485.11" y2="30145.8" gradientUnits="userSpaceOnUse">
<stop stop-color="#D5D5D5"/>
<stop offset="0.21" stop-color="white"/>
<stop offset="0.45" stop-color="#272727"/>
<stop offset="0.67" stop-color="#B7B7B7"/>
<stop offset="1" stop-color="#D5D5D5"/>
</linearGradient>
<linearGradient id="paint23_linear_432_318" x1="-10148.3" y1="32335.6" x2="-8689.58" y2="33628.2" gradientUnits="userSpaceOnUse">
<stop stop-color="#D5D5D5"/>
<stop offset="0.21" stop-color="white"/>
<stop offset="0.45" stop-color="#272727"/>
<stop offset="0.67" stop-color="#B7B7B7"/>
<stop offset="1" stop-color="#D5D5D5"/>
</linearGradient>
<linearGradient id="paint24_linear_432_318" x1="-14574.1" y1="39800.1" x2="-13812.5" y2="40474.9" gradientUnits="userSpaceOnUse">
<stop stop-color="#D5D5D5"/>
<stop offset="0.21" stop-color="white"/>
<stop offset="0.45" stop-color="#272727"/>
<stop offset="0.67" stop-color="#B7B7B7"/>
<stop offset="1" stop-color="#D5D5D5"/>
</linearGradient>
<linearGradient id="paint25_linear_432_318" x1="-5948.27" y1="30958.5" x2="-5135.41" y2="31678.8" gradientUnits="userSpaceOnUse">
<stop stop-color="#D5D5D5"/>
<stop offset="0.21" stop-color="white"/>
<stop offset="0.45" stop-color="#272727"/>
<stop offset="0.67" stop-color="#B7B7B7"/>
<stop offset="1" stop-color="#D5D5D5"/>
</linearGradient>
<linearGradient id="paint26_linear_432_318" x1="-3561.41" y1="26740.2" x2="-2753.81" y2="27455.8" gradientUnits="userSpaceOnUse">
<stop stop-color="#D5D5D5"/>
<stop offset="0.21" stop-color="white"/>
<stop offset="0.45" stop-color="#272727"/>
<stop offset="0.67" stop-color="#B7B7B7"/>
<stop offset="1" stop-color="#D5D5D5"/>
</linearGradient>
<linearGradient id="paint27_linear_432_318" x1="-2659.16" y1="28115.7" x2="-2080.15" y2="28628.7" gradientUnits="userSpaceOnUse">
<stop stop-color="#D5D5D5"/>
<stop offset="0.21" stop-color="white"/>
<stop offset="0.45" stop-color="#272727"/>
<stop offset="0.67" stop-color="#B7B7B7"/>
<stop offset="1" stop-color="#D5D5D5"/>
</linearGradient>
<linearGradient id="paint28_linear_432_318" x1="-1559.28" y1="36040.5" x2="-486.373" y2="36991.2" gradientUnits="userSpaceOnUse">
<stop stop-color="#D5D5D5"/>
<stop offset="0.21" stop-color="white"/>
<stop offset="0.45" stop-color="#272727"/>
<stop offset="0.67" stop-color="#B7B7B7"/>
<stop offset="1" stop-color="#D5D5D5"/>
</linearGradient>
<linearGradient id="paint29_linear_432_318" x1="-34.1883" y1="30432.9" x2="544.819" y2="30946" gradientUnits="userSpaceOnUse">
<stop stop-color="#D5D5D5"/>
<stop offset="0.21" stop-color="white"/>
<stop offset="0.45" stop-color="#272727"/>
<stop offset="0.67" stop-color="#B7B7B7"/>
<stop offset="1" stop-color="#D5D5D5"/>
</linearGradient>
<linearGradient id="paint30_linear_432_318" x1="1154.99" y1="39648.1" x2="2436.73" y2="40783.8" gradientUnits="userSpaceOnUse">
<stop stop-color="#D5D5D5"/>
<stop offset="0.21" stop-color="white"/>
<stop offset="0.45" stop-color="#272727"/>
<stop offset="0.67" stop-color="#B7B7B7"/>
<stop offset="1" stop-color="#D5D5D5"/>
</linearGradient>
<linearGradient id="paint31_linear_432_318" x1="4546.61" y1="29699.9" x2="5316.1" y2="30381.7" gradientUnits="userSpaceOnUse">
<stop stop-color="#D5D5D5"/>
<stop offset="0.21" stop-color="white"/>
<stop offset="0.45" stop-color="#272727"/>
<stop offset="0.67" stop-color="#B7B7B7"/>
<stop offset="1" stop-color="#D5D5D5"/>
</linearGradient>
<linearGradient id="paint32_linear_432_318" x1="-2127.42" y1="17195.1" x2="11164.1" y2="29598.9" gradientUnits="userSpaceOnUse">
<stop stop-color="#D5D5D5"/>
<stop offset="0.21" stop-color="white"/>
<stop offset="0.45" stop-color="#272727"/>
<stop offset="0.67" stop-color="#B7B7B7"/>
<stop offset="1" stop-color="#D5D5D5"/>
</linearGradient>
<linearGradient id="paint33_linear_432_318" x1="-7759.9" y1="23230.2" x2="5531.22" y2="35633.6" gradientUnits="userSpaceOnUse">
<stop stop-color="#D5D5D5"/>
<stop offset="0.21" stop-color="white"/>
<stop offset="0.45" stop-color="#272727"/>
<stop offset="0.67" stop-color="#B7B7B7"/>
<stop offset="1" stop-color="#D5D5D5"/>
</linearGradient>
<linearGradient id="paint34_linear_432_318" x1="1494.7" y1="5593.98" x2="1948.81" y2="6159.55" gradientUnits="userSpaceOnUse">
<stop stop-color="#D5D5D5"/>
<stop offset="0.21" stop-color="white"/>
<stop offset="0.45" stop-color="#272727"/>
<stop offset="0.67" stop-color="#B7B7B7"/>
<stop offset="1" stop-color="#D5D5D5"/>
</linearGradient>
<linearGradient id="paint35_linear_432_318" x1="1862" y1="6336.92" x2="2162.71" y2="6711.44" gradientUnits="userSpaceOnUse">
<stop stop-color="#D5D5D5"/>
<stop offset="0.21" stop-color="white"/>
<stop offset="0.45" stop-color="#272727"/>
<stop offset="0.67" stop-color="#B7B7B7"/>
<stop offset="1" stop-color="#D5D5D5"/>
</linearGradient>
<linearGradient id="paint36_linear_432_318" x1="977.967" y1="5250.93" x2="1280.82" y2="5628.12" gradientUnits="userSpaceOnUse">
<stop stop-color="#D5D5D5"/>
<stop offset="0.21" stop-color="white"/>
<stop offset="0.45" stop-color="#272727"/>
<stop offset="0.67" stop-color="#B7B7B7"/>
<stop offset="1" stop-color="#D5D5D5"/>
</linearGradient>
<linearGradient id="paint37_linear_432_318" x1="-3023.61" y1="10676.6" x2="-2480.54" y2="11283.8" gradientUnits="userSpaceOnUse">
<stop stop-color="#D5D5D5"/>
<stop offset="0.21" stop-color="white"/>
<stop offset="0.45" stop-color="#272727"/>
<stop offset="0.67" stop-color="#B7B7B7"/>
<stop offset="1" stop-color="#D5D5D5"/>
</linearGradient>
<linearGradient id="paint38_linear_432_318" x1="-3496.03" y1="10251" x2="-3133.99" y2="10655.8" gradientUnits="userSpaceOnUse">
<stop stop-color="#D5D5D5"/>
<stop offset="0.21" stop-color="white"/>
<stop offset="0.45" stop-color="#272727"/>
<stop offset="0.67" stop-color="#B7B7B7"/>
<stop offset="1" stop-color="#D5D5D5"/>
</linearGradient>
<linearGradient id="paint39_linear_432_318" x1="-2441.07" y1="11419.3" x2="-2081.5" y2="11821.3" gradientUnits="userSpaceOnUse">
<stop stop-color="#D5D5D5"/>
<stop offset="0.21" stop-color="white"/>
<stop offset="0.45" stop-color="#272727"/>
<stop offset="0.67" stop-color="#B7B7B7"/>
<stop offset="1" stop-color="#D5D5D5"/>
</linearGradient>
<clipPath id="clip0_432_318">
<rect width="92.5874" height="120" fill="white" transform="translate(0.859131)"/>
</clipPath>
</defs>
</svg>
