<svg width="202" height="40" viewBox="0 0 202 40" fill="none" xmlns="http://www.w3.org/2000/svg">
<path d="M18.3225 11.0369H26.73V32.4869H21.195V15.6794L16.455 32.4869H10.905L6.19504 15.6794V32.4869H0.915039V11.0369H9.64504L13.9725 26.5019L18.3225 11.0369ZM33.3413 32.4869H27.5587L34.6538 11.0369H42.2588L49.2488 32.4869H43.3463L42.1463 28.0994H34.5638L33.3413 32.4869ZM35.7788 23.7194H40.9538L38.3888 14.3369L35.7788 23.7194ZM70.0177 11.0369V32.4869H62.4877L55.3552 16.3844V32.4869H50.0752V11.0369H58.0552L64.7377 26.0069V11.0369H70.0177ZM71.6963 23.9369V11.0369H77.2313V23.4419C77.2313 26.8469 78.6113 28.3019 81.1613 28.3019C83.7188 28.3019 85.0913 26.8469 85.0913 23.4419V11.0369H90.6263V23.9369C90.6263 29.7194 86.7113 32.9369 81.1613 32.9369C75.6188 32.9369 71.6963 29.7194 71.6963 23.9369ZM107.306 11.0369V15.6269H97.8563V19.9394H106.451V24.3494H97.8563V32.4869H92.3213V11.0369H107.306ZM111.769 32.4869H105.986L113.081 11.0369H120.686L127.676 32.4869H121.774L120.574 28.0994H112.991L111.769 32.4869ZM114.206 23.7194H119.381L116.816 14.3369L114.206 23.7194ZM132.422 21.7619C132.422 26.0519 134.192 28.3019 137.417 28.3019C139.967 28.3019 141.49 26.7869 141.977 23.7119H147.467C146.702 29.4419 142.907 32.9369 137.41 32.9369C131.252 32.9369 126.842 28.5419 126.842 21.7619C126.842 14.9819 131.252 10.5869 137.41 10.5869C142.907 10.5869 146.702 14.0819 147.467 19.8119H141.977C141.49 16.7369 139.967 15.2219 137.417 15.2219C134.192 15.2219 132.422 17.4644 132.422 21.7619ZM166.033 11.0369V15.6269H159.688V32.4869H154.153V15.6269H147.808V11.0369H166.033ZM184.725 11.0369V15.6269H178.38V32.4869H172.845V15.6269H166.5V11.0369H184.725Z" fill="white"/>
<path d="M193.619 14.5996C197.485 14.5996 200.619 11.4656 200.619 7.59961C200.619 3.73362 197.485 0.599609 193.619 0.599609C189.753 0.599609 186.619 3.73362 186.619 7.59961C186.619 11.4656 189.753 14.5996 193.619 14.5996Z" stroke="white" stroke-width="1.2"/>
<path d="M192.49 11.2152H190.831V3.70508H194.546C196.231 3.70508 197.257 4.5897 197.257 5.9757C197.257 7.18845 196.441 7.98383 195.176 8.0232C195.769 8.0652 196.228 8.46945 196.556 9.20445L197.459 11.2152H195.619L194.708 9.2097C194.441 8.61645 194.199 8.4537 193.58 8.4537H192.49V11.2152ZM192.49 7.11495H194.354C195.139 7.11495 195.598 6.73433 195.598 6.07808C195.598 5.43233 195.152 5.07533 194.351 5.07533H192.49V7.11495Z" fill="white"/>
</svg>
