<svg width="108" height="26" viewBox="0 0 108 26" fill="none" xmlns="http://www.w3.org/2000/svg">
<g clip-path="url(#clip0_678_182)">
<path d="M54.7771 4.04485C52.847 5.17354 51.0331 6.51626 49.3347 8.07303C47.6363 9.59091 45.9764 11.1477 44.3554 12.7434C43.429 13.6385 42.5218 14.5532 41.6341 15.4872C40.7463 16.4213 39.8586 17.3553 38.9708 18.2894C38.5074 18.8343 38.0056 19.3792 37.4654 19.9241C36.9636 20.43 36.4618 20.9749 35.96 21.5587C36.7706 21.3641 37.5619 21.1305 38.3338 20.8581C39.1444 20.5857 39.8779 20.3522 40.534 20.1576C41.1129 20.0408 41.7306 19.8851 42.3866 19.6905C43.043 19.4959 43.6991 19.3402 44.3554 19.2235C45.0115 19.0678 45.6676 18.99 46.3239 18.99C47.0187 18.9511 47.6554 19.0484 48.2346 19.2819C48.9678 19.5543 49.4118 20.0214 49.5661 20.683C49.682 21.1111 49.6432 21.5198 49.4503 21.909C50.1066 21.7144 50.7433 21.5003 51.361 21.2668C52.0173 21.0332 52.6347 20.8192 53.2139 20.6246C54.3331 20.2743 55.4525 19.9241 56.572 19.5738C57.6914 19.1846 58.8299 18.8732 59.9881 18.6397C60.2969 18.5619 60.6635 18.5229 61.0882 18.5229C61.5512 18.484 61.9566 18.5229 62.3038 18.6397C62.6513 18.7565 62.9021 18.9705 63.0566 19.2819C63.2496 19.5543 63.269 19.963 63.1144 20.5078C62.9986 20.8581 62.7672 21.15 62.4196 21.3835C62.0724 21.5781 61.6671 21.7338 61.2037 21.8506C60.7406 21.9673 60.2775 22.0646 59.8142 22.1425C59.3511 22.1814 58.9845 22.2398 58.7141 22.3176C57.4019 22.7068 56.1089 23.1154 54.8349 23.5436C53.5612 23.9328 52.2874 24.322 51.0137 24.7111C50.3574 24.9057 49.6432 25.1004 48.8713 25.295C48.0994 25.5285 47.3659 25.5674 46.6712 25.4117C46.401 25.3728 46.1116 25.256 45.8028 25.0614C45.1467 24.5555 44.8379 24.0884 44.8763 23.6603C44.915 23.2322 45.0886 22.8041 45.3974 22.376H44.7027C43.3131 22.6095 41.9236 22.9014 40.534 23.2517C39.4146 23.563 38.276 23.9133 37.1179 24.3025C35.9984 24.6917 34.8406 24.9447 33.644 25.0614C33.2193 25.1003 32.795 25.0225 32.3703 24.8279C31.9456 24.6722 31.6368 24.3414 31.4438 23.8355C31.2896 23.4074 31.2896 22.9987 31.4438 22.6095C31.5984 22.1814 31.8104 21.7727 32.0808 21.3835C30.9614 22.0452 29.9 22.6095 28.8964 23.0765C27.9313 23.5047 27.198 23.816 26.6962 24.0106C25.6926 24.4387 24.6118 24.8863 23.4539 25.3533C22.2959 25.8204 21.1379 26.0344 19.9799 25.9955C18.7061 25.9177 17.9342 25.5674 17.664 24.9447C17.3938 24.322 17.4517 23.5436 17.8376 22.6095C18.185 21.6365 18.7447 20.6051 19.5167 19.5154C20.2887 18.3867 21.0993 17.3164 21.9485 16.3045C22.8363 15.2926 23.6468 14.4169 24.3802 13.6774C25.1136 12.8991 25.5961 12.3931 25.8277 12.1596L26.6383 11.3423C25.5189 11.3423 24.4188 11.3423 23.338 11.3423C22.2573 11.3423 21.1572 11.3617 20.0378 11.4007C17.7991 11.4785 15.5796 11.5952 13.3795 11.7509C11.1407 11.8677 8.90194 12.0428 6.66319 12.2764C5.8526 12.3931 5.06133 12.5099 4.28934 12.6266C3.47874 12.7045 2.66817 12.8407 1.85759 13.0353C1.66459 13.0742 1.45229 13.1326 1.2207 13.2104C0.989104 13.2883 0.776808 13.2883 0.583813 13.2104C0.159221 13.0547 -0.0337749 12.7823 0.00482507 12.3931C0.00482507 11.965 0.197821 11.6925 0.583813 11.5758C5.21572 10.3693 9.98273 9.61035 14.8848 9.29901C19.7869 8.94874 24.6311 8.73467 29.4176 8.65682C30.4209 7.72275 31.4245 6.80816 32.4281 5.91301C33.4317 5.01786 34.4546 4.1227 35.4966 3.22755C35.9984 2.76051 36.5777 2.17672 37.2337 1.47616C37.9285 0.736693 38.6233 0.269658 39.3181 0.0750599C39.704 -0.0416997 40.0322 -0.02224 40.3023 0.133439C40.6111 0.250197 40.8428 0.464256 40.9971 0.775612C41.1516 1.04805 41.2094 1.35941 41.171 1.70968C41.1323 2.05996 40.9777 2.37132 40.7076 2.64375C39.511 3.65566 38.3338 4.66758 37.176 5.67947C36.0178 6.65248 34.8793 7.66437 33.7598 8.7152C34.3388 8.7152 34.8793 8.79306 35.3811 8.94874C35.8442 9.06548 36.2495 9.26007 36.5967 9.53252C36.983 9.80495 37.2531 10.2136 37.4074 10.7585C37.5232 11.2255 37.4654 11.6342 37.2337 11.9845C37.002 12.2958 36.7126 12.5293 36.3653 12.685C36.0178 12.8018 35.6512 12.8212 35.2652 12.7434C34.9177 12.6266 34.6476 12.3737 34.4546 11.9845C33.9528 11.7898 33.3739 11.6536 32.7175 11.5758C32.0615 11.459 31.4438 11.4007 30.8649 11.4007L30.286 11.9261C28.7033 13.4439 27.0243 15.0786 25.2487 16.8299C23.5117 18.5813 22.1415 20.4689 21.1379 22.4927C22.4888 22.2203 23.8784 21.8311 25.3066 21.3251C26.7348 20.8192 28.1436 20.2549 29.5331 19.6322C30.9227 19.0094 32.2932 18.3478 33.644 17.6473C34.9951 16.9078 36.2495 16.1489 37.4074 15.3704C38.8743 13.8526 40.3604 12.3737 41.8658 10.9336C43.4096 9.45467 44.9728 8.03412 46.5556 6.67192C47.5205 5.81571 48.5047 4.97894 49.5083 4.16162C50.5119 3.34429 51.5349 2.58537 52.5769 1.88482C53.0016 1.57347 53.4647 1.37887 53.9665 1.30103C54.507 1.18427 54.9507 1.39833 55.2982 1.9432C55.4912 2.29348 55.5296 2.68267 55.4141 3.11078C55.3367 3.49998 55.1243 3.81134 54.7771 4.04485Z" fill="#191919"/>
<path d="M88.6427 21.6173C87.7549 21.6951 86.8672 21.8508 85.9794 22.0843C85.1301 22.2789 84.2617 22.4735 83.3739 22.6681C81.0579 23.213 78.7612 23.7384 76.4839 24.2444C74.2066 24.7114 71.8906 25.0617 69.5361 25.2952C68.9185 25.373 68.2621 25.4314 67.5674 25.4703C66.9113 25.5093 66.2359 25.4898 65.5411 25.412C64.8847 25.3341 64.248 25.1785 63.6304 24.9449C63.0127 24.7503 62.4532 24.439 61.9514 24.0108C61.5267 23.6606 61.1985 23.2519 60.9671 22.7849C60.6967 22.3179 60.5425 21.8314 60.5037 21.3254C60.4266 20.8195 60.4653 20.3329 60.6196 19.8659C60.7741 19.36 61.0636 18.9124 61.488 18.5232C61.7584 18.2507 62.1828 18.0367 62.762 17.881C63.3793 17.6864 64.0551 17.5502 64.7883 17.4724C65.5217 17.3945 66.2552 17.3751 66.9884 17.414C67.7219 17.4529 68.3586 17.5891 68.8991 17.8226C69.4397 18.0562 69.8063 18.387 69.9992 18.8151C70.2309 19.2043 70.2116 19.7102 69.9415 20.3329C69.7098 20.8 69.3622 21.1308 68.8991 21.3254C68.4361 21.52 67.9149 21.6562 67.336 21.7341C66.7567 21.773 66.1584 21.773 65.5411 21.7341C64.9234 21.6562 64.3829 21.5784 63.9198 21.5005C64.0741 21.6562 64.3829 21.7924 64.8463 21.9092C65.3094 21.987 65.7919 22.0454 66.2937 22.0843C66.8342 22.1232 67.3166 22.1427 67.7413 22.1427C68.2044 22.1427 68.4938 22.1427 68.6097 22.1427C70.501 21.987 72.373 21.7146 74.226 21.3254C76.1173 20.9362 77.9893 20.5276 79.842 20.0994C81.1931 19.7881 82.5246 19.4767 83.837 19.1654C85.1879 18.8151 86.539 18.5621 87.8898 18.4064C88.469 18.3675 88.9515 18.5037 89.3375 18.8151C89.7234 19.1265 89.9742 19.4962 90.09 19.9243C90.2059 20.3135 90.1481 20.6832 89.9164 21.0335C89.7234 21.3838 89.2987 21.5784 88.6427 21.6173Z" fill="#191919"/>
<path d="M106.118 21.6171C104.149 21.656 102.142 21.7144 100.096 21.7922C98.0503 21.8311 96.0431 21.5976 94.0747 21.0916C93.9204 21.0916 93.7658 21.0527 93.6116 20.9749C93.3799 21.6365 93.0326 22.2787 92.5693 22.9014C92.1449 23.4852 91.6621 23.9912 91.1219 24.4193C90.5814 24.8474 89.9831 25.1587 89.3271 25.3533C88.7094 25.548 88.0918 25.5674 87.4741 25.4117C86.8952 25.256 86.4705 24.9641 86.2004 24.536C85.8916 24.1079 85.718 23.6214 85.6793 23.0765C85.6408 22.5317 85.718 21.9868 85.9109 21.4419C86.0655 20.897 86.2969 20.4106 86.6057 19.9825C87.1075 19.3597 87.7445 18.8927 88.5164 18.5813C89.2883 18.27 90.0603 18.2311 90.8325 18.4646C90.9096 17.9197 91.2184 17.4916 91.7586 17.1802C92.2991 16.8689 92.8781 16.9078 93.4957 17.297C94.0747 17.6473 94.6923 17.9197 95.3484 18.1143C96.0431 18.27 96.7573 18.3673 97.4908 18.4062C98.2243 18.4451 98.9381 18.4646 99.6329 18.4646C100.366 18.4257 101.061 18.4062 101.717 18.4062C102.489 18.4062 103.319 18.3673 104.207 18.2895C105.095 18.1727 105.905 18.2311 106.639 18.4646C107.063 18.6203 107.353 18.8732 107.507 19.2235C107.7 19.5738 107.758 19.9241 107.681 20.2743C107.642 20.6246 107.488 20.936 107.218 21.2084C106.948 21.4808 106.581 21.6171 106.118 21.6171ZM88.8059 22.376C88.9217 22.2592 89.1534 22.2009 89.5007 22.2009V21.6754C89.4235 21.7533 89.3077 21.8506 89.1534 21.9674C88.9989 22.0452 88.883 22.1814 88.8059 22.376Z" fill="#191919"/>
</g>
<defs>
<clipPath id="clip0_678_182">
<rect width="107.756" height="26" fill="white"/>
</clipPath>
</defs>
</svg>
