<svg width="115" height="24" viewBox="0 0 115 24" fill="none" xmlns="http://www.w3.org/2000/svg">
<g clip-path="url(#clip0_678_176)">
<path d="M8.70115 23.458C6.35955 23.3806 4.59005 22.8515 3.39264 21.8709C2.19524 20.8644 1.33045 19.7419 0.798269 18.5031C0.26609 17.2386 0 15.9612 0 14.6709C0 13.329 0.252786 12.0386 0.758357 10.7999C1.29054 9.53542 2.15533 8.41283 3.35275 7.43219C4.57675 6.42574 6.12008 5.9096 7.98269 5.88379H20.9147C22.7773 5.9096 24.3073 6.42574 25.5047 7.43219C26.7288 8.41283 27.5936 9.53542 28.0992 10.7999C28.6312 12.0386 28.8973 13.329 28.8973 14.6709C28.8973 15.9612 28.6312 17.2386 28.0992 18.5031C27.5669 19.7419 26.7021 20.8644 25.5047 21.8709C24.3073 22.8515 22.5378 23.3806 20.1962 23.458H8.70115ZM7.82304 11.0709C7.31747 11.0709 6.87843 11.2773 6.50589 11.6902C6.13339 12.0773 5.85397 12.5419 5.66773 13.0838C5.50805 13.5999 5.42824 14.1161 5.42824 14.6322C5.42824 15.1741 5.50805 15.7161 5.66773 16.258C5.85397 16.7741 6.13339 17.2386 6.50589 17.6515C6.87843 18.0386 7.31747 18.2451 7.82304 18.2709H21.0743C21.5799 18.2451 22.019 18.0386 22.3915 17.6515C22.764 17.2386 23.0301 16.7741 23.1898 16.258C23.376 15.7161 23.4691 15.1741 23.4691 14.6322C23.4691 14.1161 23.376 13.5999 23.1898 13.0838C23.0301 12.5419 22.764 12.0773 22.3915 11.6902C22.019 11.2773 21.5799 11.0709 21.0743 11.0709H7.82304Z" fill="#191919"/>
<path d="M58.8322 8.12833C58.8322 8.77347 58.5661 9.31542 58.0338 9.75411C57.5285 10.167 56.9032 10.3735 56.1581 10.3735H39.2746C38.9288 10.3735 38.6493 10.438 38.4365 10.567C38.2234 10.6961 38.064 10.838 37.9576 10.9928C37.8509 11.1219 37.7978 11.238 37.7978 11.3412C37.7978 11.4702 37.8509 11.6122 37.9576 11.767C38.064 11.8961 38.2234 12.0251 38.4365 12.1541C38.6493 12.2573 38.9288 12.3219 39.2746 12.3477H52.3264C54.0026 12.3735 55.3864 12.6961 56.4773 13.3154C57.5682 13.909 58.34 14.6186 58.7922 15.4445C59.2712 16.2445 59.5106 17.0573 59.5106 17.8832C59.5106 18.6832 59.2712 19.4961 58.7922 20.3219C58.3133 21.1219 57.5285 21.8316 56.4373 22.4509C55.373 23.0444 54.0026 23.3412 52.3264 23.3412C52.0336 23.367 51.8208 23.3799 51.6877 23.3799H36.2013C35.4562 23.3799 34.8176 23.1735 34.2853 22.7606C33.78 22.3219 33.5272 21.7928 33.5272 21.1735C33.5272 20.5283 33.793 19.9864 34.3253 19.5477C34.8309 19.1348 35.4562 18.9283 36.2013 18.9283H52.6456C53.0448 18.9541 53.364 18.9025 53.6034 18.7735C53.8696 18.6444 54.0693 18.5025 54.2024 18.3477C54.3354 18.1928 54.4018 18.038 54.4018 17.8832C54.4018 17.8057 54.3354 17.6767 54.2024 17.4961C54.0693 17.2896 53.8696 17.1348 53.6034 17.0316C53.364 16.9025 53.0448 16.8251 52.6456 16.7993H39.5541C38.0106 16.7735 36.7336 16.4638 35.7224 15.8702C34.7112 15.2509 33.9928 14.5412 33.5669 13.7412C33.1413 12.9412 32.9282 12.1412 32.9282 11.3412C32.9282 10.5412 33.1413 9.75411 33.5669 8.97993C34.0194 8.17993 34.7378 7.49606 35.7224 6.92833C36.7336 6.33478 38.0106 6.01219 39.5541 5.96057C39.82 5.93478 40.0197 5.92188 40.1528 5.92188H56.1581C56.9032 5.92188 57.5285 6.14124 58.0338 6.57993C58.5661 6.99284 58.8322 7.50897 58.8322 8.12833Z" fill="#191919"/>
<path d="M66.6951 0C67.4135 0.0258065 68.0255 0.283872 68.5311 0.774195C69.0367 1.23871 69.3028 1.81935 69.3295 2.51613V21.4839C69.1697 23.0323 68.2916 23.871 66.6951 24C65.95 24 65.298 23.7677 64.7393 23.3032C64.2071 22.8129 63.9409 22.2065 63.9409 21.4839V2.51613C63.9676 1.79355 64.2471 1.2 64.7793 0.735483C65.3113 0.245161 65.95 0 66.6951 0Z" fill="#191919"/>
<path d="M82.6605 23.458C80.3189 23.3806 78.5496 22.8515 77.3523 21.8709C76.1547 20.8644 75.2899 19.7419 74.7579 18.5031C74.2256 17.2386 73.9595 15.9612 73.9595 14.6709C73.9595 13.329 74.2123 12.0386 74.7179 10.7999C75.2501 9.53542 76.1149 8.41283 77.3123 7.43219C78.5363 6.42574 80.0795 5.9096 81.9421 5.88379H94.8741C96.7368 5.9096 98.2669 6.42574 99.4643 7.43219C100.688 8.41283 101.553 9.53542 102.059 10.7999C102.591 12.0386 102.857 13.329 102.857 14.6709C102.857 15.9612 102.591 17.2386 102.059 18.5031C101.526 19.7419 100.662 20.8644 99.4643 21.8709C98.2669 22.8515 96.4973 23.3806 94.1557 23.458H82.6605ZM81.7827 11.0709C81.2771 11.0709 80.8379 11.2773 80.4653 11.6902C80.0928 12.0773 79.8136 12.5419 79.6272 13.0838C79.4675 13.5999 79.3877 14.1161 79.3877 14.6322C79.3877 15.1741 79.4675 15.7161 79.6272 16.258C79.8136 16.7741 80.0928 17.2386 80.4653 17.6515C80.8379 18.0386 81.2771 18.2451 81.7827 18.2709H95.0339C95.5395 18.2451 95.9784 18.0386 96.3509 17.6515C96.7235 17.2386 96.9896 16.7741 97.1493 16.258C97.3355 15.7161 97.4285 15.1741 97.4285 14.6322C97.4285 14.1161 97.3355 13.5999 97.1493 13.0838C96.9896 12.5419 96.7235 12.0773 96.3509 11.6902C95.9784 11.2773 95.5395 11.0709 95.0339 11.0709H81.7827Z" fill="#191919"/>
<path d="M111.429 23.9995C113.007 23.9995 114.286 22.7203 114.286 21.1423C114.286 19.5643 113.007 18.2852 111.429 18.2852C109.851 18.2852 108.571 19.5643 108.571 21.1423C108.571 22.7203 109.851 23.9995 111.429 23.9995Z" fill="#191919"/>
</g>
<defs>
<clipPath id="clip0_678_176">
<rect width="114.4" height="24" fill="white"/>
</clipPath>
</defs>
</svg>
