<svg width="105" height="31" viewBox="0 0 105 31" fill="none" xmlns="http://www.w3.org/2000/svg">
<path d="M14.143 4.76245C14.143 4.76245 11.5587 7.25044 11.5587 9.28437C11.5587 11.3183 14.143 13.8063 14.143 13.8063C14.143 13.8063 11.655 11.222 9.62104 11.222C7.58708 11.222 5.09912 13.8063 5.09912 13.8063C5.09912 13.8063 7.68337 11.3183 7.68337 9.28437C7.68337 7.25044 5.09912 4.76245 5.09912 4.76245C5.09912 4.76245 7.58708 7.3467 9.62104 7.3467C11.655 7.3467 14.143 4.76245 14.143 4.76245Z" fill="#151515"/>
<path d="M22.5995 24.3078C21.9832 24.3078 21.4271 24.2341 20.9314 24.0867C20.449 23.9393 20.0671 23.6378 19.7858 23.1823C19.5178 22.7133 19.3838 22.0166 19.3838 21.0921V14.6806C19.3838 13.9571 19.5178 13.4077 19.7858 13.0326C20.0671 12.644 20.449 12.376 20.9314 12.2286C21.4271 12.0812 21.9899 12.0076 22.6196 12.0076C23.2628 12.0076 23.8188 12.0879 24.2878 12.2487C24.7568 12.3961 25.1252 12.6641 25.3932 13.0527C25.6612 13.4279 25.7952 13.9705 25.7952 14.6806V17.0121H23.8657V14.6203C23.8657 14.205 23.8122 13.9035 23.7049 13.7159C23.5978 13.515 23.4504 13.3809 23.2628 13.314C23.0752 13.247 22.8608 13.2135 22.6196 13.2135C22.3784 13.2135 22.1641 13.247 21.9765 13.314C21.7889 13.3809 21.6415 13.515 21.5343 13.7159C21.4271 13.9035 21.3735 14.205 21.3735 14.6203V21.7553C21.3735 22.1573 21.4271 22.4587 21.5343 22.6597C21.6415 22.8607 21.7889 22.9947 21.9765 23.0617C22.1641 23.1287 22.3784 23.1622 22.6196 23.1622C22.8742 23.1622 23.0886 23.1287 23.2628 23.0617C23.4504 22.9947 23.5978 22.8607 23.7049 22.6597C23.8122 22.4587 23.8657 22.1573 23.8657 21.7553V19.6249H25.7952V21.072C25.7952 22.0233 25.6612 22.7267 25.3932 23.1823C25.1252 23.6378 24.7568 23.9393 24.2878 24.0867C23.8188 24.2341 23.2561 24.3078 22.5995 24.3078ZM28.7785 24.0666L31.0899 12.1884H33.7832L36.0543 24.0666H33.9236L33.4414 21.6548H31.2707L30.8286 24.0666H28.7785ZM31.311 20.67H33.4213L32.3762 14.0576L31.311 20.67ZM39.2857 24.0666V12.1884H43.3054C44.0557 12.1884 44.632 12.3559 45.0339 12.6909C45.4361 13.0259 45.6368 13.5216 45.6368 14.1782V16.2885C45.6368 16.7977 45.5699 17.2734 45.4361 17.7155C45.3154 18.1443 45.0741 18.4926 44.7124 18.7606C44.364 19.0286 43.855 19.1626 43.1847 19.1626H41.2957V24.0666H39.2857ZM41.2957 18.0773H42.5218C42.9236 18.0773 43.225 17.9232 43.4261 17.615C43.6272 17.2934 43.7277 16.7776 43.7277 16.0674V15.0022C43.7277 14.3725 43.6403 13.9236 43.4663 13.6556C43.2922 13.3876 43.0509 13.2537 42.7426 13.2537H41.2957V18.0773ZM49.1465 24.0666V12.1884H54.4928V13.5551H51.1565V17.1528H53.9099V18.6602H51.1565V22.7401H54.4928V24.0666H49.1465ZM64.3206 24.0666V13.5551H62.4312V12.1884H68.1794V13.5551H66.2498V24.0666H64.3206ZM74.2265 24.3078C73.5968 24.3078 73.0407 24.2341 72.5584 24.0867C72.0892 23.9393 71.721 23.6378 71.453 23.1823C71.185 22.7133 71.0508 22.0166 71.0508 21.0921V14.6806C71.0508 13.9571 71.185 13.4077 71.453 13.0326C71.721 12.644 72.0962 12.376 72.5785 12.2286C73.0608 12.0812 73.6169 12.0076 74.2466 12.0076C74.8763 12.0076 75.4255 12.0879 75.8946 12.2487C76.3769 12.3961 76.759 12.6641 77.0402 13.0527C77.3218 13.4279 77.4622 13.9705 77.4622 14.6806V21.072C77.4622 22.0233 77.3218 22.7267 77.0402 23.1823C76.759 23.6378 76.3769 23.9393 75.8946 24.0867C75.4123 24.2341 74.8562 24.3078 74.2265 24.3078ZM74.2265 23.1622C74.481 23.1622 74.7088 23.1287 74.9099 23.0617C75.1107 22.9813 75.265 22.8406 75.3721 22.6396C75.4792 22.4386 75.533 22.1439 75.533 21.7553V14.6203C75.533 14.2452 75.4792 13.9571 75.3721 13.7561C75.265 13.5417 75.1107 13.4011 74.9099 13.3341C74.7088 13.2537 74.481 13.2135 74.2265 13.2135C73.972 13.2135 73.7442 13.2537 73.5431 13.3341C73.3555 13.4011 73.2081 13.5417 73.101 13.7561C72.9939 13.9571 72.9401 14.2452 72.9401 14.6203V21.7553C72.9401 22.1439 72.9939 22.4386 73.101 22.6396C73.2081 22.8406 73.3555 22.9813 73.5431 23.0617C73.7442 23.1287 73.972 23.1622 74.2265 23.1622ZM82.3163 24.0666L80.4873 12.1884H82.457L83.723 21.5342L85.1903 12.1884H86.778L88.2052 21.5342L89.5113 12.1884H91.4811L89.6521 24.0666H87.4212L85.9743 16.3488L84.5673 24.0666H82.3163ZM94.8194 24.0666V12.1884H96.4878L99.442 20.1876V12.1884H101.151V24.0666H99.4621L96.528 16.4895V24.0666H94.8194Z" fill="#151515"/>
<path d="M9.62054 2.88965C9.62054 2.88965 9.55246 6.47623 10.9907 7.91445C12.4289 9.35271 16.0155 9.2846 16.0155 9.2846C16.0155 9.2846 12.4289 9.21652 10.9907 10.6547C9.55246 12.093 9.62054 15.6796 9.62054 15.6796C9.62054 15.6796 9.68862 12.093 8.2504 10.6547C6.81218 9.21652 3.22559 9.2846 3.22559 9.2846C3.22559 9.2846 6.81218 9.35271 8.2504 7.91445C9.68862 6.47623 9.62054 2.88965 9.62054 2.88965Z" fill="#151515"/>
</svg>
