<svg width="88" height="32" viewBox="0 0 88 32" fill="none" xmlns="http://www.w3.org/2000/svg">
<g clip-path="url(#clip0_678_159)">
<path d="M50.2984 11.6289H41.9998C42.7333 18.1442 42.7379 24.7209 42.014 31.2372H50.3183C49.6538 24.7183 49.6474 18.1491 50.2984 11.6289Z" fill="#191919"/>
<path d="M87.7138 19.9846C87.4859 17.5338 86.6027 15.3523 84.7012 13.6771C81.2754 10.6625 74.7488 10.4363 71.0663 13.2264C68.3335 15.2966 67.5776 18.2322 67.4951 21.4192C67.5652 24.651 68.294 27.5686 70.9838 29.6388C72.5998 30.883 74.4903 31.4109 76.4868 31.5528C79.6971 31.7808 82.7136 31.2439 85.0944 28.8685C87.5648 26.4034 88.0174 23.2757 87.7138 19.9846ZM77.6989 29.786H77.6882C77.6523 29.7885 77.616 29.7885 77.5805 29.786C77.4048 29.7604 77.2381 29.6933 77.0937 29.5903C76.9636 29.5123 76.8487 29.4113 76.7545 29.2923C75.6932 28.127 74.9355 25.0568 74.9355 21.4533C74.9355 17.8498 75.6985 14.758 76.7652 13.6017C76.832 13.5247 76.9067 13.4549 76.9877 13.3934C77.1691 13.2313 77.3963 13.1297 77.6377 13.1025H77.6882H77.6989C79.2267 13.1025 80.4637 16.8371 80.4637 21.4425C80.4637 26.0478 79.2267 29.786 77.6989 29.786Z" fill="#191919"/>
<path d="M40.3427 20.0318C40.0103 17.1878 38.9923 14.7065 36.5273 13.0295C34.6599 11.7601 32.5502 11.3256 30.3239 11.2879C25.2966 11.2071 21.7056 13.8913 20.535 18.6493C20.2387 19.8559 20.3213 20.0372 21.4561 20.6638C23.0917 17.739 26.162 17.5469 28.8175 18.3944C30.999 19.0928 32.6293 20.698 32.588 21.7663C31.8016 21.303 30.972 20.6656 30.024 20.2868C28.3758 19.6243 26.6324 19.6763 24.9016 19.9905C21.9319 20.5292 19.9784 22.6137 19.9389 25.271C19.885 28.9769 21.3753 30.9591 24.74 31.6557C25.3504 31.7814 25.9663 31.8873 26.5803 32.0004H28.7349C30.2054 31.7077 31.6687 31.4025 32.6706 29.8458V31.2068H40.8974C40.7179 27.6159 40.5561 24.0896 40.3875 20.5651C40.3712 20.3909 40.3641 20.2096 40.3427 20.0318ZM31.6005 29.4096C31.5584 29.7373 31.394 30.0371 31.1403 30.2488C30.8866 30.4606 30.5623 30.5687 30.2323 30.5515H30.1408H30.0671C28.8247 30.5515 27.8192 28.6501 27.8192 26.3034C27.8192 24.007 28.7834 22.1361 29.9899 22.0589H30.0187C30.7853 21.9961 31.2755 22.4414 31.5556 23.0734C31.5843 23.1398 31.6148 23.208 31.6435 23.278C32.1078 24.2197 32.3388 25.2591 32.3169 26.3088C32.3079 27.5297 32.0332 28.6339 31.6005 29.4096Z" fill="#191919"/>
<path d="M68.2675 11.7872C66.9516 10.3831 63.9457 10.2503 62.5686 11.7603C61.646 12.7693 60.9942 14.0549 60.3709 15.2938C59.9041 16.2184 59.678 17.2688 59.3441 18.2563L59.1752 18.2222C59.2634 16.845 59.3548 15.4697 59.4429 14.0836C59.5343 12.8079 59.7821 11.5483 60.1807 10.3329C60.7194 8.63257 61.0337 5.46179 57.7946 2.03603C55.7999 -0.0718474 49.284 -0.542259 46.2049 0.621204C42.2547 2.12401 41.8401 5.79214 41.8401 5.79214C41.8401 5.79214 41.8401 5.85319 41.8508 5.95915C41.8614 6.06507 41.8401 6.13867 41.8401 6.22667C41.8426 6.85365 41.9866 7.47196 42.2618 8.03538C42.537 8.59875 42.9359 9.09262 43.4291 9.48003C44.1196 10.0845 45.0017 10.4249 45.9194 10.4406C46.0019 10.4406 46.0861 10.4406 46.169 10.4406C46.7578 10.4425 47.3409 10.3258 47.8835 10.0977C49.119 9.70627 50.5768 8.88035 50.5768 7.16028C50.5768 4.16188 54.1857 4.87648 54.1857 6.65579C54.1857 7.9126 53.8049 8.63079 53.5841 8.936C53.4746 9.09042 53.3651 9.24665 53.2701 9.41003C52.7574 10.251 52.1046 10.998 51.3398 11.6185C52.0406 18.1332 52.0442 24.7041 51.3505 31.2196H59.5507C59.4248 28.3468 59.3459 25.5477 59.161 22.7467C59.0621 21.2637 59.6008 20.0625 60.4573 18.9493C61.0767 18.1468 61.8934 17.6746 62.9402 17.7895C64.0858 17.9152 65.226 18.1001 66.3876 18.2617C66.4164 18.2272 66.4417 18.1899 66.463 18.1504C67.1524 16.5344 67.8042 14.8934 68.5459 13.3026C68.8367 12.6634 68.7002 12.2469 68.2675 11.7872Z" fill="#191919"/>
<path d="M8.61824 10.4953C8.6326 9.81306 8.58951 8.83632 9.69554 8.86145C10.7459 8.88481 10.7046 9.82384 10.789 10.5259C10.9685 12.0592 11.078 13.6015 11.2145 15.1312H19.0751C18.9961 14.3035 18.9511 13.5369 18.8452 12.7792C18.4323 9.78615 16.644 7.83624 13.6653 7.42508C11.9789 7.19617 10.2752 7.12048 8.57515 7.19888V7.17733C6.30293 7.17587 4.12316 8.07692 2.5151 9.68225C0.907054 11.2876 0.00237984 13.4659 0 15.7381V23.0205C0.0005393 24.9502 0.652046 26.8232 1.84913 28.3367C3.04622 29.8502 4.7189 30.9155 6.59655 31.3605V31.382C6.75097 31.4089 6.90535 31.4323 7.05977 31.4556C7.35687 31.5085 7.65653 31.5456 7.95751 31.5669C10.0638 31.7806 12.1899 31.6899 14.2704 31.2976C17.5022 30.6979 19.2761 27.7193 18.9009 23.7279H11.1804C11.157 24.0655 11.1463 24.3599 11.1157 24.6508C10.9631 26.1052 10.8644 27.5703 10.613 29.0066C10.5466 29.3855 10.0618 29.872 9.67936 29.9744C9.05095 30.1432 8.81216 29.5542 8.75111 29.0264C8.69724 28.5703 8.6362 28.1143 8.58233 27.6564V12.912C8.59072 12.1077 8.60267 11.3021 8.61824 10.4953Z" fill="#191919"/>
</g>
<defs>
<clipPath id="clip0_678_159">
<rect width="87.8222" height="32" fill="white"/>
</clipPath>
</defs>
</svg>
