<svg width="91" height="40" viewBox="0 0 91 40" fill="none" xmlns="http://www.w3.org/2000/svg">
<g clip-path="url(#clip0_678_171)">
<path d="M61.956 14.1966V11.6149L55.1789 8.61821L61.956 5.75983V3.20117L52.505 7.627V9.70159L61.956 14.1966Z" fill="#191919"/>
<path d="M4.56377 27.5127C5.08628 28.4194 6.08514 28.8728 7.56043 28.8728C9.03569 28.8728 10.0269 28.4271 10.534 27.5358C11.0565 26.6444 11.3178 25.1538 11.3178 23.0638C11.3178 20.9585 11.0488 19.4295 10.511 18.4767C9.98848 17.5239 9.00496 17.0475 7.56043 17.0475C6.11586 17.0475 5.1247 17.5239 4.58681 18.4767C4.04896 19.4295 3.78003 20.9508 3.78003 23.0408C3.78003 25.1154 4.04128 26.606 4.56377 27.5127ZM12.5395 29.1724C11.6021 30.4633 9.94237 31.1087 7.56043 31.1087C5.17846 31.1087 3.5111 30.4633 2.55832 29.1724C1.60554 27.8662 1.12915 25.8223 1.12915 23.0408C1.12915 20.2593 1.60554 18.1924 2.55832 16.8401C3.52647 15.4877 5.19384 14.8115 7.56043 14.8115C9.92703 14.8115 11.5867 15.4877 12.5395 16.8401C13.4923 18.177 13.9687 20.2439 13.9687 23.0408C13.9687 25.8377 13.4923 27.8815 12.5395 29.1724ZM18.0632 30.8551H15.5507V19.3295H18.0402V20.0441C19.162 19.3987 20.2224 19.076 21.2213 19.076C22.758 19.076 23.803 19.514 24.3562 20.3899C24.9248 21.2505 25.2091 22.6797 25.2091 24.6774V30.8551H22.7196V24.7466C22.7196 23.5018 22.5813 22.6182 22.3047 22.0957C22.0434 21.5732 21.4979 21.312 20.668 21.312C19.8843 21.312 19.1313 21.4656 18.409 21.773L18.0632 21.9113V30.8551ZM27.7973 32.7223H37.6632V34.866H27.7973V32.7223ZM40.6455 30.8551V15.0651H50.6036V17.3011H43.2042V21.773H49.2207V23.9859H43.2042V28.5961H50.6036V30.8551H40.6455ZM50.7935 19.3295H53.4212L55.6344 28.7114H56.3719L58.677 19.3295H61.2357L58.2388 30.8551H53.7671L50.7935 19.3295ZM70.1284 28.7805L70.7737 28.7114L70.8199 30.5785C69.0678 30.932 67.5157 31.1087 66.1636 31.1087C64.4577 31.1087 63.2282 30.64 62.4752 29.7026C61.7377 28.7651 61.3689 27.2668 61.3689 25.2076C61.3689 21.1199 63.0361 19.076 66.3711 19.076C69.5979 19.076 71.2115 20.8356 71.2115 24.3547L71.0502 26.1527H63.9043C63.9196 27.1055 64.1271 27.8047 64.5267 28.2503C64.9262 28.696 65.6717 28.9188 66.7627 28.9188C67.8537 28.9188 68.9759 28.8728 70.1284 28.7805ZM68.7451 24.2164C68.7451 23.0792 68.561 22.2878 68.1917 21.8421C67.8383 21.3811 67.2313 21.1506 66.3711 21.1506C65.5104 21.1506 64.8801 21.3888 64.4805 21.8652C64.0963 22.3416 63.8968 23.1253 63.8814 24.2164H68.7451ZM75.0427 30.8551H72.5302V19.3295H75.0194V20.0441C76.1412 19.3987 77.2018 19.076 78.2005 19.076C79.7372 19.076 80.7825 19.514 81.3355 20.3899C81.9043 21.2505 82.1886 22.6797 82.1886 24.6774V30.8551H79.699V24.7466C79.699 23.5018 79.5605 22.6182 79.284 22.0957C79.0229 21.5732 78.477 21.312 77.6476 21.312C76.8638 21.312 76.1109 21.4656 75.3882 21.773L75.0427 21.9113V30.8551ZM90.2168 21.4733H87.0357V26.5446C87.0357 27.482 87.1047 28.1044 87.2432 28.4117C87.3816 28.7191 87.735 28.8728 88.3034 28.8728L90.1935 28.8036L90.3091 30.809C89.2792 31.0088 88.4955 31.1087 87.9579 31.1087C86.6515 31.1087 85.7526 30.809 85.2607 30.2097C84.7843 29.6104 84.546 28.4809 84.546 26.8212V21.4733H83.0708V19.3295H84.546V15.9871H87.0357V19.3295H90.2168V21.4733Z" fill="#191919"/>
<path d="M66.2211 17.0348L72.8137 0.806791L70.6009 0L64.0312 16.2511L66.2211 17.0348Z" fill="#191919"/>
<path d="M74.2759 14.1966L83.7269 9.70159V7.627L74.2759 3.20117V5.75983L81.0526 8.61821L74.2759 11.6149V14.1966Z" fill="#191919"/>
</g>
<defs>
<clipPath id="clip0_678_171">
<rect width="90.989" height="40" fill="white"/>
</clipPath>
</defs>
</svg>
