<svg width="104" height="26" viewBox="0 0 104 26" fill="none" xmlns="http://www.w3.org/2000/svg">
<g clip-path="url(#clip0_820_155)">
<path opacity="0.4" d="M3.50399 12.3623V25.3334H-0.000244141V15.1634L3.50399 12.3623Z" fill="#191919"/>
<path d="M3.50415 12.3623V25.3334H7.0084V14.5325L3.50415 12.3623Z" fill="#191919"/>
<path opacity="0.5" d="M10.4089 7.06396V25.333H5.73657V10.9308L10.4089 7.06396Z" fill="#191919"/>
<path d="M10.4094 7.06396V25.333H15.0818V9.95759L10.4094 7.06396Z" fill="#191919"/>
<path opacity="0.6" d="M19.0391 0V25.3333H12.7451V5.78542L19.0391 0Z" fill="#191919"/>
<path d="M19.0393 0V25.3333H25.3333V5.78542L19.0393 0Z" fill="#191919"/>
<mask id="mask0_820_155" style="mask-type:luminance" maskUnits="userSpaceOnUse" x="32" y="0" width="72" height="26">
<path d="M103.866 0H32.9331V25.3333H103.866V0Z" fill="white"/>
</mask>
<g mask="url(#mask0_820_155)">
<path d="M33.1438 18.5693V7.3335H34.83V18.5693H33.1438ZM39.0823 18.5693H37.461V9.86278H38.9202V10.7707L39.8281 9.86278H43.0546L43.7518 10.5762L44.4489 9.86278H48.1456L49.2805 10.9815V18.5693H47.6592V11.3868H44.222V18.5693H42.6006V11.3868H39.8606L39.0823 12.084V18.5693ZM53.3007 21.8607H51.6794V9.86278H53.1386V10.7707L54.0465 9.86278H57.3703L58.5052 10.9815V17.4344L57.3703 18.5693H53.3007V21.8607ZM56.8839 11.3868H54.079L53.3007 12.084V17.0777H56.8839V11.3868ZM62.5155 18.5693H60.8941V9.86278H62.3533V10.9653L63.4721 9.86278H65.4825V11.4193H63.4396L62.5155 12.2948V18.5693ZM68.4703 8.29009H66.7841V6.76604H68.4703V8.29009ZM68.4379 18.5693H66.8166V9.86278H68.4379V18.5693ZM72.4907 18.5693H70.8694V9.86278H72.3286V10.7707L73.2365 9.86278H76.7062L77.8411 10.9815V18.5693H76.2036V11.3868H73.269L72.4907 12.084V18.5693ZM84.5717 18.5693H81.6695L80.5346 17.4344V11.2085H79.3348V9.86278H80.5346V8.09553H82.1559V9.86278H84.3933V11.2085H82.1559V17.0453H84.5717V18.5693ZM87.8665 8.29009H86.1803V6.76604H87.8665V8.29009ZM87.8341 18.5693H86.2128V9.86278H87.8341V18.5693ZM92.616 18.5693H90.9947V11.2085H89.5841V9.86278H90.9947V7.73884L92.1296 6.62012H94.821V7.96582H92.616V9.86278H94.6589V11.2085H92.616V18.5693ZM96.1738 19.1206H97.7465V20.4501H101.395V18.0992H97.1791L96.0603 16.9804V9.86278H97.6817V16.6724H101.395V9.86278H103.016V20.7419L101.865 21.8607H97.325L96.1738 20.7419V19.1206Z" fill="#191919"/>
</g>
</g>
<defs>
<clipPath id="clip0_820_155">
<rect width="103.867" height="25.3333" fill="white"/>
</clipPath>
</defs>
</svg>
