<svg width="90" height="20" viewBox="0 0 90 20" fill="none" xmlns="http://www.w3.org/2000/svg">
<path d="M30.5549 18.8807C28.4887 18.8807 26.8774 18.3093 25.7204 17.1659C24.5773 16.0229 24.0056 14.3907 24.0056 12.2696V4.1709H27.3526V12.1457C27.3526 14.7352 28.427 16.0298 30.5755 16.0298C31.6224 16.0298 32.4212 15.7198 32.9721 15.1C33.5229 14.4666 33.7985 13.4817 33.7985 12.1457V4.1709H37.104V12.2696C37.104 14.3907 36.5256 16.0229 35.3686 17.1659C34.2256 18.3093 32.6209 18.8807 30.5549 18.8807Z" fill="#191919"/>
<path d="M38.7378 11.5259H44.5847V14.1085H38.7378V11.5259Z" fill="#191919"/>
<path d="M48.564 6.89801H43.936V4.1709H56.5389V6.89801H51.911V18.633H48.564V6.89801Z" fill="#191919"/>
<path d="M68.035 7.51782V18.633H64.9775V17.3108C64.5504 17.7927 64.0407 18.1647 63.4484 18.4264C62.8562 18.6741 62.2158 18.7981 61.5271 18.7981C60.0673 18.7981 58.9103 18.378 58.0564 17.538C57.2025 16.6977 56.7754 15.4512 56.7754 13.7984V7.51782H59.9983V13.3233C59.9983 15.1139 60.7491 16.0092 62.2503 16.0092C63.0216 16.0092 63.6414 15.7612 64.1097 15.2654C64.5779 14.7558 64.812 14.005 64.812 13.0134V7.51782H68.035Z" fill="#191919"/>
<path d="M73.0661 8.98492C73.4518 8.44777 73.9682 8.04144 74.6155 7.76597C75.2767 7.4905 76.0341 7.35278 76.888 7.35278V10.3278C76.5302 10.3003 76.2891 10.2865 76.1651 10.2865C75.2422 10.2865 74.5193 10.5482 73.9957 11.0716C73.4724 11.5812 73.2107 12.3525 73.2107 13.3855V18.6332H69.9878V7.51806H73.0661V8.98492Z" fill="#191919"/>
<path d="M84.5274 7.35278C85.9049 7.35278 87.0135 7.76597 87.8538 8.59238C88.7077 9.41879 89.1345 10.6446 89.1345 12.2699V18.6332H85.9116V12.7657C85.9116 11.8842 85.7189 11.23 85.3332 10.803C84.9475 10.3623 84.3898 10.1419 83.6596 10.1419C82.8471 10.1419 82.1998 10.3967 81.7177 10.9063C81.2355 11.4021 80.9944 12.1459 80.9944 13.1376V18.6332H77.7715V7.51806H80.8498V8.81964C81.2769 8.35134 81.8072 7.99323 82.4409 7.74531C83.0743 7.48364 83.77 7.35278 84.5274 7.35278Z" fill="#191919"/>
<path fill-rule="evenodd" clip-rule="evenodd" d="M9.60724 0.412225C10.1569 -0.137408 11.048 -0.137408 11.5976 0.412225L16.7445 5.5592L11.5742 10.4946C11.012 11.0313 10.1211 11.0106 9.58439 10.4483C9.04768 9.88606 9.0684 8.99519 9.63066 8.45849L11.2181 6.9432H7.78762C5.04121 6.9432 2.81479 9.16962 2.81479 11.916C2.81479 14.6626 5.04121 16.8889 7.78762 16.8889H14.7308C15.508 16.8889 16.1384 17.519 16.1384 18.2962C16.1384 19.0736 15.508 19.7037 14.7308 19.7037H7.78762C3.48662 19.7037 0 16.2172 0 11.916C0 7.61504 3.48662 4.12838 7.78762 4.12838H11.3331L9.60724 2.4026C9.05764 1.85297 9.05764 0.961857 9.60724 0.412225Z" fill="#191919"/>
</svg>
