<svg width="109" height="34" viewBox="0 0 109 34" fill="none" xmlns="http://www.w3.org/2000/svg">
<g clip-path="url(#clip0_678_165)">
<path d="M58.4278 26.7565L51.0343 17.5077L57.9575 9.33008H53.3856L47.2195 17.1158V9.33008H43.5098V26.7565H47.2195V21.4005L48.5784 19.7807L53.856 26.7565H58.4278Z" fill="#191919"/>
<path d="M67.1507 27.0703C72.4283 27.0703 76.2687 23.308 76.2687 18.0566C76.2687 12.8052 72.4283 9.04297 67.1507 9.04297C61.8992 9.04297 58.0587 12.8052 58.0587 18.0566C58.0587 23.308 61.8992 27.0703 67.1507 27.0703ZM67.1507 23.7783C63.9373 23.7783 61.8731 21.2963 61.8731 18.0566C61.8731 14.7908 63.9373 12.3349 67.1507 12.3349C70.3644 12.3349 72.4543 14.7908 72.4543 18.0566C72.4543 21.2963 70.3644 23.7783 67.1507 23.7783Z" fill="#191919"/>
<path d="M88.33 26.7565C91.648 26.7565 93.3986 24.6663 93.3986 22.0537C93.3986 19.8591 91.9094 18.0563 90.0545 17.769C91.7005 17.4293 93.059 15.9662 93.059 13.7716C93.059 11.4463 91.3609 9.33008 88.0425 9.33008H78.8723V26.7565H88.33ZM87.2329 16.3059H82.5821V12.5175H87.2329C88.4868 12.5175 89.2706 13.3275 89.2706 14.4248C89.2706 15.5221 88.4868 16.3059 87.2329 16.3059ZM87.3632 23.5429H82.5821V19.4933H87.3632C88.8264 19.4933 89.6103 20.4338 89.6103 21.5312C89.6103 22.7852 88.7742 23.5429 87.3632 23.5429Z" fill="#191919"/>
<path d="M108.528 26.7565V23.4907H99.9062V19.5456H108.345V16.2798H99.9062V12.5959H108.528V9.33008H96.1964V26.7565H108.528Z" fill="#191919"/>
<path d="M33.0224 8.90736V4.70715H18.6475V0H14.049V4.70715H0V8.90736H14.0852V12.7093H3.40362V29.6188H7.74868V16.9095H14.0852V34H18.5751V16.9095H25.4909V24.8754C25.4909 25.2737 25.3099 25.4547 24.7306 25.4547C24.1512 25.4547 22.0149 25.4547 20.2045 25.3823C20.82 26.541 21.4718 28.3877 21.6528 29.6188C24.4771 29.6188 26.541 29.5463 28.0618 28.8946C29.5463 28.2428 29.9808 27.0117 29.9808 24.9478V12.7093H18.5751V8.90736H33.0224Z" fill="#191919"/>
</g>
<defs>
<clipPath id="clip0_678_165">
<rect width="108.8" height="34" fill="white"/>
</clipPath>
</defs>
</svg>
