<svg width="99" height="32" viewBox="0 0 99 32" fill="none" xmlns="http://www.w3.org/2000/svg">
<g clip-path="url(#clip0_678_144)">
<path d="M37.5187 23.1947H29.0256V8.06055H37.0672C38.2266 8.06055 39.1827 8.19608 39.9358 8.46716C40.7038 8.72316 41.2759 9.12974 41.6524 9.68693C42.0289 10.229 42.217 10.9293 42.217 11.7876C42.217 12.7363 41.961 13.4893 41.449 14.0464C40.937 14.6036 40.1616 14.9274 39.1226 15.0177V15.3114C40.4026 15.3565 41.3513 15.7255 41.9689 16.4182C42.601 17.1109 42.9175 17.9693 42.9175 18.9933C42.9175 19.8667 42.7216 20.6196 42.3301 21.2521C41.9536 21.8845 41.3662 22.3664 40.5683 22.6977C39.7701 23.029 38.7536 23.1947 37.5187 23.1947ZM33.2722 17.1184V19.3773H37.3609C37.7673 19.3773 38.0759 19.317 38.2867 19.1965C38.4976 19.0761 38.6032 18.7674 38.6032 18.2704C38.6032 17.7584 38.505 17.4422 38.3095 17.3217C38.1136 17.1862 37.7975 17.1184 37.3609 17.1184H33.2722ZM33.2722 11.878V13.8205H36.841C37.278 13.8205 37.5713 13.7528 37.7221 13.6173C37.8878 13.4817 37.9706 13.2257 37.9706 12.8493C37.9706 12.4427 37.8729 12.1792 37.6769 12.0587C37.4963 11.9382 37.1873 11.878 36.7507 11.878H33.2722ZM49.3175 23.4205C48.0677 23.4205 46.9985 23.1872 46.11 22.7203C45.2368 22.2384 44.5665 21.5608 44.0997 20.6874C43.6481 19.7989 43.422 18.7373 43.422 17.5024C43.422 16.2224 43.6556 15.1232 44.1225 14.2045C44.5893 13.286 45.2745 12.5857 46.1779 12.1039C47.0814 11.6069 48.1733 11.3584 49.4533 11.3584C50.7031 11.3584 51.742 11.5843 52.5704 12.0361C53.4135 12.4879 54.0385 13.1128 54.4453 13.9109C54.8666 14.694 55.0775 15.605 55.0775 16.6441C55.0775 16.9603 55.0551 17.2765 55.0099 17.5928C54.9648 17.909 54.9271 18.165 54.8968 18.3608H45.2293V16.0568H51.2151L51.0345 16.1697C51.0494 15.8987 51.0042 15.6577 50.8986 15.4469C50.8083 15.221 50.6277 15.0403 50.3568 14.9048C50.1008 14.7693 49.7242 14.7015 49.2272 14.7015C48.5345 14.7015 48.0528 14.8295 47.7815 15.0855C47.5105 15.3264 47.3751 15.718 47.3751 16.2601V17.8639C47.3751 18.421 47.4202 18.8502 47.5105 19.1514C47.6008 19.4375 47.7893 19.6333 48.0752 19.7387C48.3614 19.8441 48.798 19.8968 49.3854 19.8968C49.8974 19.8968 50.2512 19.8441 50.4471 19.7387C50.6426 19.6182 50.7408 19.43 50.7408 19.174V19.1288H54.942V19.3999C54.942 20.1829 54.7088 20.8756 54.2419 21.478C53.79 22.0803 53.1425 22.5547 52.2992 22.901C51.4711 23.2474 50.4773 23.4205 49.3175 23.4205ZM60.2469 23.1947H56.0229V11.5843H59.976V14.8822L60.2469 14.9952V23.1947ZM60.2469 15.8535H59.3886V13.3462H60.1793C60.5104 12.774 60.9473 12.2996 61.4892 11.9232C62.0464 11.5467 62.7091 11.3584 63.4771 11.3584C64.2302 11.3584 64.8247 11.509 65.2616 11.8102C65.6983 12.1114 66.0144 12.5405 66.2103 13.0977C66.4062 13.6549 66.504 14.3175 66.504 15.0855V17.1862H62.2572V16.0342C62.2572 15.5975 62.1971 15.3039 62.0766 15.1533C61.9561 15.0027 61.7001 14.9274 61.3086 14.9274C60.9623 14.9274 60.6988 14.9801 60.5182 15.0855C60.3372 15.1759 60.2469 15.4319 60.2469 15.8535ZM71.475 23.1947H67.251V8.06055H71.475V23.1947ZM77.0558 10.5453H72.8318V8.06055H77.0558V10.5453ZM77.0785 23.1947H72.8318V11.5843H77.0785V23.1947ZM90.5196 23.1947H86.2729V16.6441C86.2729 16.0267 86.1598 15.5975 85.934 15.3565C85.7232 15.1156 85.2414 14.9952 84.4883 14.9952C84.0215 14.9952 83.6528 15.0403 83.3815 15.1307C83.1255 15.221 82.9374 15.3792 82.8169 15.605C82.7116 15.8309 82.6586 16.1547 82.6586 16.5763H81.9809V13.3462H82.5911C82.8019 12.9095 83.0956 12.5481 83.4718 12.262C83.8483 11.9608 84.2849 11.7349 84.782 11.5843C85.2791 11.4337 85.8135 11.3584 86.3859 11.3584C87.3946 11.3584 88.2003 11.5617 88.8026 11.9683C89.4049 12.3599 89.8419 12.8944 90.1128 13.5721C90.3838 14.2347 90.5196 14.965 90.5196 15.7632V23.1947ZM82.6586 23.1947H78.4346V11.5843H82.3877V14.7693L82.6586 14.8822V23.1947ZM96.84 23.1947H91.7804V18.5189H96.84V23.1947Z" fill="#191919"/>
<path d="M20.7059 4.70605H1.88235C0.842758 4.70605 0 5.54881 0 6.58841V25.4119C0 26.4515 0.842758 27.2943 1.88235 27.2943H20.7059C21.7455 27.2943 22.5882 26.4515 22.5882 25.4119V6.58841C22.5882 5.54881 21.7455 4.70605 20.7059 4.70605Z" fill="#191919"/>
<path d="M17.8823 2.82324H4.70583C4.18603 2.82324 3.76465 2.40186 3.76465 1.88207V0.940889C3.76465 0.421091 4.18603 -0.000288486 4.70583 -0.000288486H17.8823C18.4021 -0.000288486 18.8235 0.421091 18.8235 0.940889V1.88207C18.8235 2.40186 18.4021 2.82324 17.8823 2.82324Z" fill="#191919"/>
<path d="M17.8823 32H4.70583C4.18603 32 3.76465 31.5786 3.76465 31.0588V30.1176C3.76465 29.5978 4.18603 29.1765 4.70583 29.1765H17.8823C18.4021 29.1765 18.8235 29.5978 18.8235 30.1176V31.0588C18.8235 31.5786 18.4021 32 17.8823 32Z" fill="#191919"/>
<path fill-rule="evenodd" clip-rule="evenodd" d="M18.8803 13.2341C19.2479 13.6017 19.2479 14.1976 18.8803 14.5651L11.4887 21.9567C11.1212 22.3243 10.5252 22.3243 10.1577 21.9567L4.64848 16.4475C4.28091 16.0799 4.28091 15.484 4.64848 15.1165L6.645 13.1199C7.01257 12.7524 7.60848 12.7524 7.97606 13.1199L10.8232 15.9671L15.5527 11.2376C15.9203 10.87 16.5162 10.87 16.8838 11.2376L18.8803 13.2341Z" fill="#191919"/>
</g>
<defs>
<clipPath id="clip0_678_144">
<rect width="98.1333" height="32" fill="white"/>
</clipPath>
</defs>
</svg>
