<svg width="108" height="28" viewBox="0 0 108 28" fill="none" xmlns="http://www.w3.org/2000/svg">
<path d="M42.2612 22.7701C40.5473 22.7701 39.1016 22.5277 37.9243 22.043C36.7645 21.5582 35.8903 20.8744 35.3016 19.9914C34.713 19.0912 34.4187 18.0351 34.4187 16.8232V16.6674H37.2234V17.0829C37.2234 17.7754 37.3789 18.3554 37.6907 18.8228C38.0024 19.273 38.5216 19.6192 39.2487 19.8616C39.9761 20.0867 40.98 20.1992 42.2612 20.1992C43.3694 20.1992 44.2523 20.1213 44.91 19.9655C45.568 19.7924 46.0353 19.5327 46.3125 19.1864C46.6068 18.8228 46.754 18.3727 46.754 17.836C46.754 17.0743 46.5116 16.5203 46.0266 16.174C45.5419 15.8278 44.7541 15.5508 43.6637 15.343L39.4046 14.6419C38.4352 14.4514 37.5696 14.1744 36.8077 13.8108C36.0461 13.43 35.4488 12.9279 35.0157 12.3046C34.6004 11.6641 34.3926 10.8677 34.3926 9.91552C34.3926 9.29224 34.531 8.67764 34.8082 8.07172C35.0851 7.46577 35.5179 6.92042 36.1065 6.43568C36.6951 5.9509 37.457 5.57004 38.3919 5.29303C39.3439 4.99872 40.504 4.85156 41.8717 4.85156C43.5682 4.85156 44.962 5.11125 46.0527 5.63062C47.1435 6.15002 47.9483 6.85982 48.4679 7.76008C49.0045 8.64301 49.2727 9.6558 49.2727 10.7985V10.9543H46.4942V10.6167C46.4942 9.90684 46.3383 9.31822 46.0266 8.85077C45.7152 8.36603 45.2043 8.01111 44.4947 7.78606C43.7847 7.54367 42.824 7.42249 41.6119 7.42249C40.556 7.42249 39.6989 7.50904 39.0412 7.68218C38.4006 7.85531 37.933 8.11499 37.6387 8.46123C37.3444 8.7902 37.1972 9.22298 37.1972 9.75968C37.1972 10.2445 37.3012 10.6426 37.509 10.9543C37.7168 11.2659 38.0369 11.5169 38.4697 11.7074C38.9024 11.8805 39.4565 12.0449 40.1316 12.2008L44.3646 12.9279C45.5248 13.1356 46.4855 13.4473 47.2474 13.8628C48.0264 14.2783 48.6063 14.8063 48.9871 15.4469C49.3679 16.0875 49.5586 16.8319 49.5586 17.6802C49.5586 18.5632 49.3076 19.3942 48.8054 20.1732C48.3033 20.9523 47.5156 21.5842 46.4422 22.069C45.3689 22.5364 43.9751 22.7701 42.2612 22.7701ZM57.7303 22.5104H54.2505L50.3809 9.60388H53.2895L55.4448 16.9271L56.0422 20.2511H56.25L57.2107 16.6674L59.9115 9.60388H63.4952L66.222 16.6674L67.1828 20.2511H67.3906L67.9879 16.9271L70.1433 9.60388H72.9999L69.0787 22.5104H65.5989L62.7681 15.0833L61.7812 11.9151H61.5737L60.5869 15.0833L57.7303 22.5104ZM77.2292 22.5104H74.4245V9.60388H77.2292V22.5104ZM77.2292 8.09766H74.4245V5.11125H77.2292V8.09766ZM85.9291 22.7701C83.8515 22.7701 82.2415 22.3719 81.0988 21.5756C79.9735 20.7792 79.4107 19.6365 79.4107 18.1476V18.0697H82.2153V18.2775C82.2153 19.1258 82.4925 19.7145 83.0463 20.0434C83.6178 20.355 84.5785 20.5108 85.9291 20.5108C87.1928 20.5108 88.0499 20.381 88.4998 20.1213C88.9674 19.8443 89.201 19.4201 89.201 18.8488C89.201 18.3121 89.0193 17.9312 88.6556 17.7062C88.3094 17.4811 87.6688 17.308 86.7339 17.1868L83.2022 16.7194C81.973 16.5636 81.0123 16.2173 80.3197 15.6806C79.6272 15.1266 79.2809 14.3043 79.2809 13.2135C79.2809 12.4518 79.5062 11.7853 79.956 11.2139C80.4062 10.6253 81.0813 10.1665 81.9817 9.83759C82.882 9.50865 83.9899 9.34419 85.3056 9.34419C86.6216 9.34419 87.7469 9.51733 88.6818 9.86356C89.6338 10.2098 90.3612 10.7292 90.863 11.4217C91.3825 12.1142 91.6423 12.9712 91.6423 13.9926V14.0705H88.8635V13.9147C88.8635 13.4127 88.7596 12.9885 88.5517 12.6423C88.3442 12.296 87.9718 12.0363 87.4352 11.8632C86.9159 11.6727 86.1801 11.5775 85.2278 11.5775C84.0332 11.5775 83.2022 11.716 82.7349 11.993C82.2673 12.27 82.0336 12.7115 82.0336 13.3174C82.0336 13.8195 82.2069 14.1831 82.5532 14.4081C82.8992 14.6332 83.5485 14.815 84.5008 14.9535L87.4871 15.369C89.0106 15.5594 90.1359 15.9316 90.863 16.4857C91.5904 17.0397 91.9537 17.8533 91.9537 18.9267C91.9537 19.7231 91.7027 20.4156 91.2008 21.0042C90.6987 21.5756 89.9975 22.017 89.0971 22.3287C88.1971 22.623 87.1409 22.7701 85.9291 22.7701ZM100.08 22.7701C98.0027 22.7701 96.3924 22.3719 95.25 21.5756C94.1247 20.7792 93.5619 19.6365 93.5619 18.1476V18.0697H96.3665V18.2775C96.3665 19.1258 96.6434 19.7145 97.1975 20.0434C97.7687 20.355 98.7297 20.5108 100.08 20.5108C101.344 20.5108 102.201 20.381 102.651 20.1213C103.118 19.8443 103.352 19.4201 103.352 18.8488C103.352 18.3121 103.17 17.9312 102.807 17.7062C102.461 17.4811 101.82 17.308 100.885 17.1868L97.3534 16.7194C96.1242 16.5636 95.1632 16.2173 94.4706 15.6806C93.7784 15.1266 93.4321 14.3043 93.4321 13.2135C93.4321 12.4518 93.6571 11.7853 94.1072 11.2139C94.5574 10.6253 95.2325 10.1665 96.1329 9.83759C97.0329 9.50865 98.1411 9.34419 99.4568 9.34419C100.772 9.34419 101.898 9.51733 102.833 9.86356C103.785 10.2098 104.512 10.7292 105.014 11.4217C105.533 12.1142 105.793 12.9712 105.793 13.9926V14.0705H103.015V13.9147C103.015 13.4127 102.911 12.9885 102.703 12.6423C102.495 12.296 102.123 12.0363 101.586 11.8632C101.067 11.6727 100.331 11.5775 99.379 11.5775C98.1844 11.5775 97.3534 11.716 96.8858 11.993C96.4185 12.27 96.1849 12.7115 96.1849 13.3174C96.1849 13.8195 96.3578 14.1831 96.7041 14.4081C97.0504 14.6332 97.6996 14.815 98.6516 14.9535L101.638 15.369C103.162 15.5594 104.287 15.9316 105.014 16.4857C105.741 17.0397 106.105 17.8533 106.105 18.9267C106.105 19.7231 105.854 20.4156 105.352 21.0042C104.85 21.5756 104.149 22.017 103.248 22.3287C102.348 22.623 101.292 22.7701 100.08 22.7701Z" fill="#191919"/>
<path d="M16.8095 0.000976562H11.001V11.0019L16.8095 5.50144V0.000976562Z" fill="#191919"/>
<path d="M0.000244395 16.8095L0.000244141 11.001H11.0012L5.50072 16.8095H0.000244395Z" fill="#191919"/>
<path d="M27.8105 11.002V16.8105H16.8096L22.31 11.002H27.8105Z" fill="#191919"/>
<path d="M16.8326 10.9785H10.9778V27.8111H16.8326V10.9785Z" fill="#191919"/>
</svg>
