<svg width="93" height="26" viewBox="0 0 93 26" fill="none" xmlns="http://www.w3.org/2000/svg">
<path opacity="0.8" d="M14.1924 10.6026H20.7735L14.1924 0.650635H7.61133L14.1924 10.6026Z" fill="#191919"/>
<path opacity="0.9" d="M7.4522 10.6026H0.871094L7.4522 0.650635H14.0333L7.4522 10.6026Z" fill="#191919"/>
<path opacity="0.6" d="M14.1934 20.5547V10.6028H20.7743V20.5547H14.1934Z" fill="#191919"/>
<path d="M0.870117 20.5547V10.6028H7.45123V20.5547H0.870117Z" fill="#191919"/>
<path d="M37.5999 7.02466V20.5673H34.8835V14.805H29.0823V20.5673H26.3662V7.02466H29.0823V12.593H34.8835V7.02466H37.5999Z" fill="#191919"/>
<path d="M44.2703 20.7419C43.2355 20.7419 42.3041 20.5157 41.4763 20.0628C40.6485 19.5973 39.9954 18.9442 39.5168 18.1034C39.051 17.2625 38.8184 16.2923 38.8184 15.1931C38.8184 14.0936 39.0576 13.1235 39.5362 12.2827C40.0276 11.442 40.6939 10.7952 41.5345 10.3425C42.3753 9.87685 43.3131 9.64404 44.3478 9.64404C45.3825 9.64404 46.3203 9.87685 47.1611 10.3425C48.002 10.7952 48.6617 11.442 49.1403 12.2827C49.6316 13.1235 49.8775 14.0936 49.8775 15.1931C49.8775 16.2923 49.6252 17.2625 49.1209 18.1034C48.6293 18.9442 47.9566 19.5973 47.103 20.0628C46.2621 20.5157 45.318 20.7419 44.2703 20.7419ZM44.2703 18.3751C44.7619 18.3751 45.221 18.2585 45.6478 18.0258C46.0876 17.7799 46.4369 17.4179 46.6956 16.9393C46.9542 16.4607 47.0836 15.8786 47.0836 15.1931C47.0836 14.1711 46.8119 13.3886 46.2688 12.8454C45.7384 12.2892 45.0851 12.0111 44.309 12.0111C43.533 12.0111 42.8797 12.2892 42.3496 12.8454C41.8319 13.3886 41.5733 14.1711 41.5733 15.1931C41.5733 16.2148 41.8256 17.0038 42.3299 17.56C42.8475 18.1034 43.4942 18.3751 44.2703 18.3751Z" fill="#191919"/>
<path d="M64.4427 9.66333C65.7622 9.66333 66.8229 10.0708 67.6247 10.8857C68.4395 11.6876 68.8472 12.8129 68.8472 14.2616V20.5673H66.1308V14.6302C66.1308 13.7895 65.9173 13.1492 65.4905 12.7095C65.0637 12.2568 64.4815 12.0304 63.7443 12.0304C63.007 12.0304 62.4185 12.2568 61.9786 12.7095C61.5519 13.1492 61.3386 13.7895 61.3386 14.6302V20.5673H58.6222V14.6302C58.6222 13.7895 58.4087 13.1492 57.9819 12.7095C57.5551 12.2568 56.9729 12.0304 56.2357 12.0304C55.4854 12.0304 54.8905 12.2568 54.4507 12.7095C54.0239 13.1492 53.8104 13.7895 53.8104 14.6302V20.5673H51.0942V9.81856H53.8104V11.1185C54.1596 10.6658 54.6061 10.3101 55.1492 10.0514C55.7053 9.7927 56.3132 9.66333 56.9729 9.66333C57.8138 9.66333 58.564 9.84443 59.2238 10.2066C59.8832 10.5558 60.3942 11.0603 60.7564 11.72C61.1057 11.0991 61.61 10.6011 62.2697 10.226C62.9425 9.85088 63.6667 9.66333 64.4427 9.66333Z" fill="#191919"/>
<path d="M80.6407 14.9602C80.6407 15.3482 80.6147 15.6974 80.5632 16.0079H72.7054C72.7699 16.7839 73.0416 17.3919 73.5202 17.8317C73.9987 18.2715 74.5873 18.4914 75.2858 18.4914C76.2947 18.4914 77.0126 18.0579 77.4394 17.1913H80.369C80.0586 18.2263 79.4637 19.0799 78.5841 19.7526C77.7044 20.4121 76.6246 20.7419 75.3439 20.7419C74.3092 20.7419 73.3778 20.5157 72.55 20.0628C71.7352 19.5973 71.0949 18.9442 70.6293 18.1034C70.1765 17.2625 69.9502 16.2923 69.9502 15.1931C69.9502 14.0806 70.1765 13.1041 70.6293 12.2633C71.0818 11.4225 71.7158 10.7758 72.5306 10.3231C73.3454 9.8704 74.2832 9.64404 75.3439 9.64404C76.3656 9.64404 77.2776 9.86392 78.0797 10.3037C78.8945 10.7435 79.5218 11.3708 79.9616 12.1857C80.4145 12.9877 80.6407 13.9124 80.6407 14.9602ZM77.8274 14.1841C77.8144 13.4856 77.5621 12.9294 77.0708 12.5155C76.5792 12.0887 75.9776 11.8753 75.2664 11.8753C74.5937 11.8753 74.0245 12.0822 73.5589 12.4961C73.1061 12.8971 72.8281 13.4598 72.7247 14.1841H77.8274Z" fill="#191919"/>
<path d="M92.1305 9.8186L85.4755 25.6507H82.5846L84.9127 20.2957L80.6055 9.8186H83.6517L86.4263 17.3273L89.2396 9.8186H92.1305Z" fill="#191919"/>
</svg>
