<svg width="18" height="17" viewBox="0 0 18 17" fill="none" xmlns="http://www.w3.org/2000/svg">
<path d="M17.4545 14.1512V11.2421C17.4545 11.0492 17.3779 10.8642 17.2415 10.7278C17.1051 10.5914 16.9202 10.5148 16.7273 10.5148C16.5344 10.5148 16.3494 10.5914 16.213 10.7278C16.0766 10.8642 16 11.0492 16 11.2421V14.1512C16 14.3441 15.9234 14.5291 15.787 14.6655C15.6506 14.8018 15.4656 14.8785 15.2727 14.8785H2.18182C1.98893 14.8785 1.80395 14.8018 1.66756 14.6655C1.53117 14.5291 1.45455 14.3441 1.45455 14.1512V11.2421C1.45455 11.0492 1.37792 10.8642 1.24153 10.7278C1.10514 10.5914 0.920157 10.5148 0.727273 10.5148C0.534388 10.5148 0.349404 10.5914 0.213013 10.7278C0.0766233 10.8642 0 11.0492 0 11.2421V14.1512C0 14.7298 0.22987 15.2848 0.63904 15.694C1.04821 16.1031 1.60316 16.333 2.18182 16.333H15.2727C15.8514 16.333 16.4063 16.1031 16.8155 15.694C17.2247 15.2848 17.4545 14.7298 17.4545 14.1512ZM12.8145 10.3548L9.17818 13.2639C9.04978 13.3654 8.89092 13.4206 8.72727 13.4206C8.56363 13.4206 8.40476 13.3654 8.27636 13.2639L4.64 10.3548C4.5075 10.2298 4.42678 10.0595 4.41379 9.87777C4.40081 9.69604 4.45652 9.51604 4.56989 9.37341C4.68327 9.23078 4.84605 9.1359 5.02603 9.10754C5.20601 9.07919 5.39008 9.11942 5.54182 9.22028L8 11.1839V1.06028C8 0.867396 8.07662 0.682411 8.21301 0.546021C8.3494 0.409631 8.53439 0.333008 8.72727 0.333008C8.92016 0.333008 9.10514 0.409631 9.24153 0.546021C9.37792 0.682411 9.45455 0.867396 9.45455 1.06028V11.1839L11.9127 9.22028C11.986 9.15115 12.0728 9.09799 12.1676 9.06415C12.2625 9.03032 12.3633 9.01655 12.4638 9.02373C12.5642 9.03091 12.6621 9.05887 12.7512 9.10584C12.8403 9.15281 12.9186 9.21778 12.9813 9.29661C13.0439 9.37545 13.0895 9.46644 13.1152 9.56383C13.1409 9.66121 13.146 9.76286 13.1304 9.86234C13.1147 9.96182 13.0785 10.057 13.0242 10.1417C12.9698 10.2265 12.8984 10.2991 12.8145 10.3548Z" fill="#191919"/>
</svg>
