<svg width="19" height="17" viewBox="0 0 19 17" fill="none" xmlns="http://www.w3.org/2000/svg">
<path d="M18.0957 14.4305V11.5214C18.0957 11.3285 18.019 11.1435 17.8826 11.0071C17.7463 10.8707 17.5613 10.7941 17.3684 10.7941C17.1755 10.7941 16.9905 10.8707 16.8541 11.0071C16.7177 11.1435 16.6411 11.3285 16.6411 11.5214V14.4305C16.6411 14.6234 16.5645 14.8084 16.4281 14.9447C16.2917 15.0811 16.1067 15.1578 15.9138 15.1578H2.82293C2.63005 15.1578 2.44506 15.0811 2.30867 14.9447C2.17228 14.8084 2.09566 14.6234 2.09566 14.4305V11.5214C2.09566 11.3285 2.01904 11.1435 1.88265 11.0071C1.74626 10.8707 1.56127 10.7941 1.36839 10.7941C1.1755 10.7941 0.990517 10.8707 0.854127 11.0071C0.717737 11.1435 0.641113 11.3285 0.641113 11.5214V14.4305C0.641113 15.0091 0.870983 15.5641 1.28015 15.9733C1.68932 16.3824 2.24428 16.6123 2.82293 16.6123H15.9138C16.4925 16.6123 17.0474 16.3824 17.4566 15.9733C17.8658 15.5641 18.0957 15.0091 18.0957 14.4305ZM13.4557 10.6341L9.8193 13.5432C9.6909 13.6447 9.53203 13.6999 9.36839 13.6999C9.20474 13.6999 9.04587 13.6447 8.91748 13.5432L5.28111 10.6341C5.14862 10.5091 5.06789 10.3388 5.05491 10.1571C5.04192 9.97533 5.09763 9.79534 5.21101 9.65271C5.32438 9.51008 5.48716 9.4152 5.66714 9.38684C5.84712 9.35848 6.03119 9.39872 6.18293 9.49958L8.64111 11.4632V1.33958C8.64111 1.14669 8.71774 0.961708 8.85413 0.825318C8.99052 0.688928 9.1755 0.612305 9.36839 0.612305C9.56127 0.612305 9.74626 0.688928 9.88265 0.825318C10.019 0.961708 10.0957 1.14669 10.0957 1.33958V11.4632L12.5538 9.49958C12.6271 9.43045 12.7139 9.37728 12.8087 9.34345C12.9036 9.30962 13.0044 9.29585 13.1049 9.30303C13.2053 9.3102 13.3032 9.33816 13.3923 9.38514C13.4814 9.43211 13.5597 9.49707 13.6224 9.57591C13.6851 9.65475 13.7307 9.74574 13.7563 9.84312C13.782 9.94051 13.7871 10.0422 13.7715 10.1416C13.7558 10.2411 13.7196 10.3363 13.6653 10.421C13.6109 10.5058 13.5395 10.5784 13.4557 10.6341Z" fill="white"/>
</svg>
