<svg width="69" height="81" viewBox="0 0 69 81" fill="none" xmlns="http://www.w3.org/2000/svg">
<path d="M35.0453 48.3462C34.8712 48.3626 34.6872 48.3626 34.5017 48.3626C34.4197 48.3626 34.3413 48.3476 34.2592 48.3448C34.1772 48.3419 34.0574 48.3519 33.9582 48.3448L31.5074 49.7606L28.7926 80.5004H40.2109L37.4961 49.7606L35.0453 48.3462Z" fill="white"/>
<path d="M29.1117 37.3201C28.8121 38.0412 28.6588 38.8151 28.6588 39.5962C28.6502 41.4322 29.5183 43.1626 30.9962 44.2532C31.7965 44.8695 32.7487 45.259 33.7523 45.3795L33.8201 45.3909C34.0048 45.418 34.1917 45.4337 34.3793 45.4394C34.6318 45.4494 34.8857 45.4366 35.1361 45.3995C36.1768 45.2911 37.1683 44.8981 38.0007 44.2632C39.4829 43.1712 40.3538 41.4372 40.3452 39.5962C40.3459 38.8116 40.1912 38.0341 39.8894 37.3101C39.6983 36.8779 39.4593 36.4684 39.1769 36.0897C38.353 34.9991 37.1754 34.228 35.8458 33.9092C35.4057 33.8043 34.9542 33.7515 34.502 33.753C32.6646 33.7594 30.9348 34.6239 29.8271 36.0897C29.5425 36.4713 29.3029 36.8843 29.1117 37.3201ZM34.502 36.6746C36.1154 36.6746 37.4236 37.9827 37.4236 39.5962C37.4236 41.2097 36.1154 42.5178 34.502 42.5178C32.8885 42.5178 31.5804 41.2097 31.5804 39.5962C31.5804 37.9827 32.8885 36.6746 34.502 36.6746Z" fill="url(#paint0_linear_571_179)"/>
<path d="M40.2723 47.9868L52.9225 55.2908C56.643 57.4335 60.8078 58.6875 65.0925 58.955L68.3573 59.1476L66.5591 56.4264C64.1888 52.8414 61.0211 49.8534 57.3035 47.6965L43.2667 39.6035C43.2667 39.7497 43.2474 39.896 43.2403 40.0415C43.2318 40.2376 43.2289 40.4359 43.2068 40.6264C43.1997 40.6891 43.1818 40.7505 43.1733 40.8147C42.8616 43.1229 41.6311 45.2078 39.7609 46.5966C39.4806 46.8084 39.1874 47.0039 38.8843 47.1808L40.2752 47.9825L40.2723 47.9868Z" fill="white"/>
<path d="M25.7967 40.6332C25.7746 40.4399 25.7732 40.243 25.7632 40.049C25.7632 39.9028 25.7368 39.7566 25.7368 39.6104L11.6972 47.7047C7.9838 49.8617 4.81753 52.8439 2.443 56.4218L0.641235 59.1473L3.89881 58.9547C8.18709 58.6879 12.3555 57.4347 16.0796 55.2919L28.7312 47.9879L29.5743 47.5029L30.1192 47.1819C29.8096 47.0021 29.5122 46.8031 29.2283 46.5856C27.3674 45.2039 26.1412 43.1311 25.8274 40.8344C25.8231 40.7644 25.8053 40.7003 25.7967 40.6332Z" fill="white"/>
<path d="M31.3168 31.4473C31.5201 31.3682 31.7262 31.3011 31.9352 31.2355C32.0708 31.1948 32.207 31.1478 32.3454 31.1128C32.5793 31.0529 32.8161 31.0087 33.0537 30.9666C33.1735 30.9459 33.2905 30.9188 33.4103 30.9024C34.1343 30.8047 34.8683 30.8047 35.593 30.9024C35.7128 30.9188 35.8298 30.9459 35.9475 30.9666C36.1871 31.0058 36.4239 31.05 36.6593 31.1128C36.7963 31.1478 36.9297 31.1934 37.0652 31.2355C37.2756 31.2997 37.4832 31.3682 37.6879 31.4488C37.8334 31.503 37.9625 31.5643 38.0995 31.6257C38.2942 31.7134 38.4839 31.8068 38.6722 31.9088C38.7407 31.9466 38.8184 31.9745 38.8841 32.0144V15.7857C38.8784 11.4953 37.8805 7.26338 35.9696 3.42162L34.5088 0.5L33.048 3.42162C31.1278 7.26552 30.1278 11.5039 30.1263 15.8007V32.0158C30.1962 31.9745 30.2726 31.9466 30.3425 31.9074C30.5279 31.8083 30.7169 31.7163 30.9081 31.6285C31.0379 31.5629 31.177 31.503 31.3168 31.4473Z" fill="white"/>
<path d="M4.13719 45.4613C4.56159 45.462 4.96531 45.278 5.24278 44.9577C5.52096 44.6374 5.64579 44.2116 5.58516 43.7922C5.38544 42.402 5.28558 41.0004 5.28558 39.5966C5.26133 27.7611 12.3978 17.0868 23.3438 12.5859C24.0678 12.2649 24.4038 11.4254 24.1021 10.6936C23.7996 9.96103 22.9694 9.60367 22.2297 9.88614C10.188 14.8363 2.33757 26.5777 2.36396 39.5966C2.36396 41.1395 2.4738 42.6809 2.69278 44.208C2.7955 44.927 3.41106 45.4613 4.13719 45.4613Z" fill="url(#paint1_linear_571_179)"/>
<path d="M24.7582 67.1477C21.736 66.0785 18.9114 64.5185 16.3978 62.5299C15.7644 62.042 14.8564 62.1547 14.3606 62.7817C13.8649 63.4093 13.9655 64.3181 14.5868 64.8224C17.3536 67.0107 20.4628 68.7276 23.7896 69.9031C24.5421 70.1449 25.351 69.744 25.6142 68.9987C25.8774 68.2533 25.5 67.4337 24.7625 67.1491L24.7582 67.1477Z" fill="url(#paint2_linear_571_179)"/>
<path d="M52.6322 62.5094C50.1186 64.503 47.2925 66.0673 44.2689 67.1401C43.771 67.3098 43.403 67.7342 43.3053 68.2506C43.2075 68.7678 43.3951 69.297 43.7967 69.6373C44.1976 69.9768 44.7511 70.0752 45.2447 69.8933C48.5722 68.7143 51.6821 66.9931 54.4475 64.7998C55.0802 64.2983 55.1872 63.3796 54.6857 62.7469C54.185 62.115 53.2656 62.008 52.6336 62.5094H52.6322Z" fill="url(#paint3_linear_571_179)"/>
<path d="M45.6548 12.5825C56.6038 17.0826 63.7423 27.7584 63.7181 39.5961C63.7202 40.9998 63.6232 42.4014 63.4256 43.7916C63.3108 44.5898 63.865 45.3309 64.6639 45.4457C65.4628 45.5606 66.2032 45.0064 66.318 44.2075C66.5349 42.6796 66.6419 41.1389 66.6397 39.5961C66.6668 26.5758 58.815 14.8329 46.7726 9.88272C46.0329 9.60026 45.2026 9.95761 44.9002 10.6902C44.5985 11.422 44.9344 12.2615 45.6584 12.5825H45.6548Z" fill="url(#paint4_linear_571_179)"/>
<defs>
<linearGradient id="paint0_linear_571_179" x1="29.1699" y1="33.8993" x2="39.8487" y2="44.9642" gradientUnits="userSpaceOnUse">
<stop stop-color="#F66234"/>
<stop offset="1" stop-color="#C8370B"/>
</linearGradient>
<linearGradient id="paint1_linear_571_179" x1="3.31958" y1="10.2363" x2="32.8274" y2="28.9682" gradientUnits="userSpaceOnUse">
<stop stop-color="#F66234"/>
<stop offset="1" stop-color="#C8370B"/>
</linearGradient>
<linearGradient id="paint2_linear_571_179" x1="14.5556" y1="62.3236" x2="20.9921" y2="72.3574" gradientUnits="userSpaceOnUse">
<stop stop-color="#F66234"/>
<stop offset="1" stop-color="#C8370B"/>
</linearGradient>
<linearGradient id="paint3_linear_571_179" x1="43.7925" y1="62.2909" x2="50.2635" y2="72.3831" gradientUnits="userSpaceOnUse">
<stop stop-color="#F66234"/>
<stop offset="1" stop-color="#C8370B"/>
</linearGradient>
<linearGradient id="paint4_linear_571_179" x1="45.7453" y1="10.2329" x2="75.2553" y2="28.9659" gradientUnits="userSpaceOnUse">
<stop stop-color="#F66234"/>
<stop offset="1" stop-color="#C8370B"/>
</linearGradient>
</defs>
</svg>
