<svg width="20" height="20" viewBox="0 0 20 20" fill="none" xmlns="http://www.w3.org/2000/svg">
<path d="M14.1654 3.1713V3.78472C14.1654 4.47508 13.6057 5.03472 12.9154 5.03472C12.225 5.03472 11.6654 5.59437 11.6654 6.28472V8.19445H12.5855C12.799 8.19445 12.9058 8.19445 12.9954 8.2065C13.5981 8.28759 14.0722 8.7617 14.1533 9.36445C14.1654 9.45404 14.1654 9.5608 14.1654 9.77431C14.1654 9.98781 14.1654 10.0946 14.1533 10.1842C14.0722 10.7869 13.5981 11.261 12.9954 11.3421C12.9058 11.3542 12.799 11.3542 12.5855 11.3542H11.6654V16.4583C11.6654 16.7526 11.6654 16.8997 11.6425 17.0223C11.5403 17.5708 11.1112 17.9999 10.5627 18.1022C10.4401 18.125 10.2929 18.125 9.9987 18.125C9.70445 18.125 9.55732 18.125 9.43473 18.1022C8.88621 17.9999 8.45709 17.5708 8.35488 17.0223C8.33203 16.8997 8.33203 16.7526 8.33203 16.4583V11.3542H7.41189C7.19838 11.3542 7.09163 11.3542 7.00204 11.3421C6.39929 11.261 5.92517 10.7869 5.84408 10.1842C5.83203 10.0946 5.83203 9.98781 5.83203 9.77431C5.83203 9.5608 5.83203 9.45404 5.84408 9.36445C5.92517 8.7617 6.39929 8.28759 7.00204 8.2065C7.09163 8.19445 7.19838 8.19445 7.41189 8.19445H8.33203V6.41204C8.33203 3.9063 10.3633 1.875 12.8691 1.875C13.585 1.875 14.1654 2.45537 14.1654 3.1713Z" fill="#E5E5E5"/>
</svg>
