<svg width="1803" height="206" viewBox="0 0 1803 206" fill="none" xmlns="http://www.w3.org/2000/svg">
<path d="M160.371 4.14573H237.827V201.759H186.834V46.9158L143.166 201.759H92.0351L48.6432 46.9158V201.759H0V4.14573H80.4271L120.295 146.621L160.371 4.14573ZM298.735 201.759H245.461L310.826 4.14573H380.889L445.286 201.759H390.908L379.853 161.338H309.997L298.735 201.759ZM321.191 120.986H368.867L345.236 34.5477L321.191 120.986ZM636.624 4.14573V201.759H567.252L501.543 53.4108V201.759H452.899V4.14573H526.417L587.981 142.06V4.14573H636.624ZM652.089 122.99V4.14573H703.081V118.43C703.081 149.799 715.795 163.203 739.287 163.203C762.849 163.203 775.493 149.799 775.493 118.43V4.14573H826.486V122.99C826.486 176.262 790.418 205.904 739.287 205.904C688.226 205.904 652.089 176.262 652.089 122.99ZM980.151 4.14573V46.4321H893.094V86.162H972.274V126.79H893.094V201.759H842.101V4.14573H980.151ZM1021.27 201.759H967.99L1033.35 4.14573H1103.42L1167.81 201.759H1113.44L1102.39 161.338H1032.53L1021.27 201.759ZM1043.72 120.986H1091.39L1067.76 34.5477L1043.72 120.986ZM1211.54 102.952C1211.54 142.475 1227.84 163.203 1257.56 163.203C1281.05 163.203 1295.08 149.246 1299.57 120.917H1350.14C1343.1 173.706 1308.13 205.904 1257.49 205.904C1200.76 205.904 1160.13 165.415 1160.13 102.952C1160.13 40.4899 1200.76 0 1257.49 0C1308.13 0 1343.1 32.1985 1350.14 84.9874H1299.57C1295.08 56.6583 1281.05 42.701 1257.56 42.701C1227.84 42.701 1211.54 63.3605 1211.54 102.952ZM1521.19 4.14573V46.4321H1462.73V201.759H1411.74V46.4321H1353.29V4.14573H1521.19ZM1693.39 4.14573V46.4321H1634.94V201.759H1583.94V46.4321H1525.49V4.14573H1693.39Z" fill="white"/>
<path d="M1761.83 7.72616C1782.49 7.72617 1799.23 24.4721 1799.23 45.1295C1799.23 65.7869 1782.49 82.5328 1761.83 82.5328C1741.17 82.5328 1724.43 65.7869 1724.43 45.1295C1724.43 24.4721 1741.17 7.72616 1761.83 7.72616Z" stroke="white" stroke-width="7.01316"/>
<path d="M1755.23 66.26H1745.54V22.3684H1767.25C1777.09 22.3684 1783.09 27.5383 1783.09 35.6385C1783.09 42.7262 1778.32 47.3747 1770.93 47.6048C1774.39 47.8502 1777.08 50.2128 1778.99 54.5083L1784.27 66.26H1773.52L1768.19 54.539C1766.63 51.0719 1765.22 50.1207 1761.6 50.1207H1755.23V66.26ZM1755.23 42.2967H1766.12C1770.71 42.2967 1773.4 40.0722 1773.4 36.2369C1773.4 32.4629 1770.79 30.3765 1766.11 30.3765H1755.23V42.2967Z" fill="white"/>
</svg>
