<svg width="61" height="51" viewBox="0 0 61 51" fill="none" xmlns="http://www.w3.org/2000/svg">
<path d="M45.615 24.2529C45.6141 26.6048 45.0731 28.9251 44.0336 31.0348C42.9941 33.1446 41.4839 34.9874 39.6195 36.4212C37.7552 37.8549 35.5864 38.8413 33.2805 39.3043C30.9746 39.7674 28.5932 39.6946 26.3199 39.0916L20.106 42.6801C19.7925 42.8612 19.4323 42.9452 19.071 42.9215C18.7098 42.8979 18.3636 42.7676 18.0764 42.5472C17.7891 42.3268 17.5737 42.0262 17.4573 41.6833C17.341 41.3405 17.3289 40.9708 17.4226 40.6211L19.0107 34.6969C16.3807 31.8542 14.9174 28.1255 14.9119 24.2529C14.9119 15.7855 21.7981 8.89746 30.2631 8.89746C38.7282 8.89746 45.615 15.7855 45.615 24.2529ZM25.9952 24.2529C25.9952 23.7674 25.8023 23.3018 25.459 22.9586C25.1158 22.6153 24.6502 22.4224 24.1647 22.4224H24.1617C23.7998 22.4231 23.4462 22.531 23.1457 22.7326C22.8451 22.9341 22.611 23.2202 22.473 23.5548C22.335 23.8893 22.2992 24.2572 22.3702 24.6121C22.4413 24.9669 22.6159 25.2927 22.872 25.5484C23.1281 25.804 23.4543 25.978 23.8092 26.0484C24.1642 26.1187 24.5321 26.0823 24.8664 25.9436C25.2006 25.805 25.4863 25.5704 25.6873 25.2695C25.8883 24.9685 25.9952 24.6148 25.9952 24.2529ZM32.0939 24.2529C32.0938 24.1929 32.0905 24.1331 32.0842 24.0735C32.0784 24.0137 32.0695 23.9542 32.0574 23.8953C32.0465 23.8367 32.0318 23.7788 32.0134 23.722C31.9964 23.6647 31.9757 23.6086 31.9537 23.5524C31.9318 23.4963 31.9049 23.4438 31.8768 23.3913C31.849 23.3386 31.8184 23.2873 31.7853 23.2376C31.752 23.1874 31.7161 23.1389 31.6778 23.0924C31.6402 23.0457 31.5999 23.0013 31.5571 22.9594C31.5156 22.9167 31.4705 22.8764 31.4241 22.8373C31.3776 22.8007 31.3288 22.7641 31.2788 22.7312C31.2291 22.6981 31.1779 22.6675 31.1251 22.6396C31.0725 22.6116 31.0178 22.586 30.9627 22.5628C30.9078 22.5398 30.8516 22.5198 30.7944 22.503C30.6803 22.4663 30.5624 22.4426 30.443 22.4322C30.2637 22.4149 30.0829 22.4236 29.9061 22.4578C29.8472 22.4698 29.789 22.4849 29.7317 22.503C29.6745 22.5198 29.6183 22.5397 29.5633 22.5628C29.5084 22.586 29.4535 22.6116 29.401 22.6396C29.3485 22.6677 29.2973 22.6982 29.2471 22.7312C29.197 22.7641 29.1483 22.8007 29.1032 22.8373C29.0556 22.8764 29.0117 22.9167 28.969 22.9594C28.9262 23.0013 28.8858 23.0458 28.8481 23.0924C28.8103 23.1389 28.7749 23.1874 28.742 23.2376C28.7085 23.2872 28.6775 23.3385 28.6493 23.3913C28.6211 23.4436 28.5958 23.4974 28.5735 23.5524C28.5503 23.6079 28.53 23.6645 28.5125 23.722C28.4955 23.7782 28.4809 23.8368 28.4687 23.8953C28.4566 23.9542 28.4476 24.0137 28.4417 24.0735C28.4357 24.1333 28.4332 24.1931 28.4332 24.2529C28.4332 24.3127 28.4357 24.3737 28.4417 24.4335C28.4477 24.4929 28.4567 24.5519 28.4687 24.6104C28.4809 24.669 28.4955 24.7276 28.5125 24.7849C28.53 24.842 28.5504 24.8982 28.5735 24.9533C28.5958 25.0087 28.6211 25.0629 28.6493 25.1156C28.6772 25.1681 28.7091 25.2193 28.742 25.2694C28.7749 25.3192 28.8103 25.3672 28.8481 25.4134C28.8861 25.4601 28.9265 25.5049 28.969 25.5476C29.0117 25.5891 29.0556 25.6306 29.1032 25.6684C29.1491 25.7065 29.1972 25.742 29.2471 25.7746C29.2973 25.8075 29.3484 25.8393 29.401 25.8673C29.507 25.9226 29.6176 25.9683 29.7317 26.004C29.7889 26.0211 29.8475 26.0357 29.9061 26.0479C30.0237 26.072 30.1435 26.0839 30.2636 26.0833C30.7485 26.082 31.2133 25.8895 31.5571 25.5476C31.6415 25.462 31.7179 25.3689 31.7853 25.2694C31.8183 25.2193 31.8488 25.1681 31.8768 25.1156C31.9049 25.0631 31.9305 25.0082 31.9537 24.9533C31.9769 24.8984 31.9964 24.8411 32.0134 24.7849C32.0316 24.7277 32.0464 24.6694 32.0574 24.6104C32.0694 24.5519 32.0783 24.4929 32.0842 24.4335C32.0904 24.3734 32.0939 24.3133 32.0939 24.2529ZM38.1954 24.2529C38.1954 23.7674 38.0025 23.3018 37.6593 22.9586C37.316 22.6153 36.8504 22.4224 36.3649 22.4224H36.3614C35.9995 22.4231 35.646 22.5311 35.3454 22.7326C35.0449 22.9342 34.8108 23.2203 34.6728 23.5548C34.5348 23.8894 34.4991 24.2573 34.5701 24.6121C34.6411 24.967 34.8158 25.2928 35.0719 25.5484C35.328 25.8041 35.6542 25.978 36.0091 26.0484C36.3641 26.1187 36.732 26.0823 37.0662 25.9436C37.4005 25.805 37.6862 25.5704 37.8871 25.2694C38.0881 24.9685 38.1954 24.6147 38.1954 24.2529Z" fill="white"/>
<path d="M60.4977 28.0911C60.5942 30.3978 59.7718 32.6487 58.2109 34.3498C56.65 36.0509 54.4781 37.0634 52.1716 37.1652C52.0367 37.1715 51.9021 37.1746 51.7677 37.1746C51.1549 37.1742 50.5439 37.1079 49.9452 36.9768C48.1689 39.7194 45.8397 42.061 43.1067 43.8519C40.3737 45.6428 37.2969 46.8436 34.0732 47.3773C33.6919 48.4975 32.9313 49.4492 31.9227 50.068C30.9141 50.6868 29.7211 50.9338 28.5497 50.7662C27.3784 50.5987 26.3024 50.0271 25.5077 49.1504C24.7131 48.2737 24.2497 47.1468 24.1978 45.9647C24.1458 44.7826 24.5085 43.6195 25.2231 42.6764C25.9378 41.7333 26.9595 41.0695 28.1116 40.7999C29.2637 40.5302 30.4738 40.6715 31.5328 41.1994C32.5918 41.7273 33.4331 42.6086 33.9112 43.691C38.4496 42.8516 42.5497 40.4463 45.4967 36.8942C48.4437 33.3421 50.0508 28.8685 50.0379 24.2531C50.0379 13.3492 41.167 4.47826 30.2631 4.47826C19.3592 4.47826 10.4883 13.3492 10.4883 24.2531C10.4877 27.6247 11.3494 30.9405 12.9915 33.8853C13.0471 33.9825 13.0889 34.087 13.1156 34.1958C13.2742 34.6366 13.2572 35.1216 13.0682 35.5503C12.8792 35.9789 12.5326 36.3186 12.1002 36.4988C11.0413 36.9445 9.90399 37.1739 8.75513 37.1738C8.61992 37.1738 8.48443 37.1706 8.34865 37.1644C6.04313 37.0613 3.87257 36.0482 2.3129 34.3472C0.753232 32.6462 -0.0682497 30.3961 0.0285831 28.0903C0.0675104 27.1708 0.0457892 26.3504 0.0245561 25.5571C0.00478739 24.8101 -0.0158355 24.0377 0.0180886 23.2317C0.119333 20.9803 1.08779 18.8554 2.72061 17.3021C4.35343 15.7488 6.52396 14.8875 8.77758 14.8987C12.3965 6.61877 20.6643 0.817383 30.2631 0.817383C39.8619 0.817383 48.1299 6.61877 51.7488 14.8988C54.0026 14.886 56.1739 15.7465 57.807 17.2998C59.4401 18.8532 60.4081 20.9787 60.508 23.2303C60.5421 24.0376 60.5216 24.8099 60.5016 25.5568C60.4806 26.3503 60.4587 27.171 60.4977 28.0911Z" fill="url(#paint0_linear_250_137)"/>
<defs>
<linearGradient id="paint0_linear_250_137" x1="2.64748" y1="1.44353" x2="47.2009" y2="57.3417" gradientUnits="userSpaceOnUse">
<stop stop-color="#F66234"/>
<stop offset="1" stop-color="#C8370B"/>
</linearGradient>
</defs>
</svg>
