<svg width="81" height="81" viewBox="0 0 81 81" fill="none" xmlns="http://www.w3.org/2000/svg">
<path d="M78.1865 50.6776H71.7373V45.2001L77.3325 39.6049C77.7725 39.1649 78.0196 38.5682 78.0196 37.946V12.8164C77.5845 1.38234 61.1937 1.3911 60.7626 12.8164V37.946C60.7626 38.5682 61.0098 39.1649 61.4497 39.6049L67.0449 45.2001V50.6776H60.5958C59.3001 50.6776 58.2496 51.7281 58.2496 53.0237V65.5885C58.2496 66.2106 58.4969 66.8073 58.9369 67.2473L62.7063 71.0168C63.6224 71.933 65.108 71.933 66.0242 71.0168C66.9404 70.1005 66.9404 68.6151 66.0242 67.6989L62.9419 64.6165V55.3697H75.8404V64.6165L72.758 67.6989C71.8418 68.6151 71.8418 70.1005 72.758 71.0168C73.6741 71.933 75.1598 71.933 76.0759 71.0168L79.8454 67.2473C80.2853 66.8073 80.5326 66.2106 80.5326 65.5885V53.0237C80.5326 51.7281 79.4822 50.6776 78.1865 50.6776Z" fill="white"/>
<path d="M25.4145 59.0352C23.244 59.0352 21.4781 60.801 21.4781 62.9715C21.676 68.1863 29.1536 68.1849 29.3508 62.9715C29.3508 60.801 27.5849 59.0352 25.4145 59.0352Z" fill="url(#paint0_linear_571_211)"/>
<path d="M48.0311 75.8078H47.8642V66.8456C47.8642 66.2234 47.6169 65.6267 47.1769 65.1868L44.0683 62.0782C42.1264 38.6374 8.63814 38.6958 6.76 62.0785L3.6517 65.1868C3.21188 65.6267 2.9646 66.2234 2.9646 66.8456V75.8078H2.79771C-0.311836 75.9232 -0.30949 80.3857 2.79771 80.5H48.0309C51.1406 80.3846 51.1383 75.9221 48.0311 75.8078ZM25.4145 71.6003C20.6567 71.6003 16.7859 67.7295 16.7859 62.9717C17.2198 51.5406 33.6109 51.5436 34.043 62.9719C34.043 67.7296 30.1722 71.6003 25.4145 71.6003Z" fill="white"/>
<path d="M16.7858 27.5625V41.3456C22.0735 39.1699 28.7557 39.1703 34.0427 41.3489V27.5627C29.0522 30.655 21.7763 30.655 16.7858 27.5625Z" fill="white"/>
<path d="M40.1613 4.18766C43.2538 9.17817 43.2536 16.4541 40.1613 21.4446H56.0706V12.8161C56.0706 9.52664 57.2717 6.51391 59.2549 4.1875H40.1613V4.18766Z" fill="white"/>
<path d="M25.4142 25.2149C32.2505 25.2149 37.8122 19.6532 37.8122 12.8169C37.1888 -3.60794 13.6372 -3.6034 13.0162 12.8171C13.0162 19.6532 18.5781 25.2149 25.4142 25.2149Z" fill="url(#paint1_linear_571_211)"/>
<defs>
<linearGradient id="paint0_linear_571_211" x1="21.8225" y1="59.1334" x2="28.9898" y2="66.5863" gradientUnits="userSpaceOnUse">
<stop stop-color="#F66234"/>
<stop offset="1" stop-color="#C8370B"/>
</linearGradient>
<linearGradient id="paint1_linear_571_211" x1="14.1008" y1="0.809503" x2="36.6753" y2="24.2833" gradientUnits="userSpaceOnUse">
<stop stop-color="#F66234"/>
<stop offset="1" stop-color="#C8370B"/>
</linearGradient>
</defs>
</svg>
