<svg width="18" height="21" viewBox="0 0 18 21" fill="none" xmlns="http://www.w3.org/2000/svg">
<path d="M8.86544 9.72478C9.78224 9.72478 10.5254 8.98158 10.5254 8.06478C10.5254 7.14799 9.78224 6.40479 8.86544 6.40479C7.94865 6.40479 7.20544 7.14799 7.20544 8.06478C7.20544 8.98158 7.94865 9.72478 8.86544 9.72478Z" fill="url(#paint0_linear_117_320)"/>
<path d="M5.2218 18.9956H12.8732V20.8174H5.2218V18.9956Z" fill="white"/>
<path d="M12.8732 4.87046L9.04752 0.817383L5.2218 4.87046V18.2667H12.8732V4.87046ZM8.86535 10.4535C7.54821 10.4535 6.47664 9.3819 6.47664 8.06476C6.47664 6.74762 7.54821 5.67605 8.86535 5.67605C10.1825 5.67605 11.2541 6.74762 11.2541 8.06476C11.2541 9.3819 10.1825 10.4535 8.86535 10.4535Z" fill="white"/>
<path d="M13.2377 19.7242H17.6099V15.74L13.2377 13.0547V19.7242Z" fill="white"/>
<path d="M4.4931 13.0547L0.12085 15.74V19.7242H4.4931V13.0547Z" fill="white"/>
<defs>
<linearGradient id="paint0_linear_117_320" x1="7.35066" y1="6.44636" x2="10.3835" y2="9.58971" gradientUnits="userSpaceOnUse">
<stop stop-color="#F66234"/>
<stop offset="1" stop-color="#C8370B"/>
</linearGradient>
</defs>
</svg>
