<svg width="20" height="20" viewBox="0 0 20 20" fill="none" xmlns="http://www.w3.org/2000/svg">
<path fill-rule="evenodd" clip-rule="evenodd" d="M5.09469 17.6867C6.11109 18.127 7.40739 18.127 10 18.127C12.5926 18.127 13.8889 18.127 14.9053 17.6867C16.1512 17.147 17.145 16.1532 17.6847 14.9073C18.125 13.8909 18.125 12.5946 18.125 10.002C18.125 7.40935 18.125 6.11304 17.6847 5.09664C17.145 3.8507 16.1512 2.85694 14.9053 2.31723C13.8889 1.87695 12.5926 1.87695 10 1.87695C7.40739 1.87695 6.11109 1.87695 5.09469 2.31723C3.84875 2.85694 2.85499 3.8507 2.31528 5.09664C1.875 6.11304 1.875 7.40935 1.875 10.002C1.875 12.5946 1.875 13.8909 2.31528 14.9073C2.85499 16.1532 3.84875 17.147 5.09469 17.6867ZM13.3317 10.0025C13.3317 11.8435 11.8393 13.3359 9.99837 13.3359C8.15742 13.3359 6.66504 11.8435 6.66504 10.0025C6.66504 8.16157 8.15742 6.66919 9.99837 6.66919C11.8393 6.66919 13.3317 8.16157 13.3317 10.0025ZM14.5824 6.25285C15.0426 6.25285 15.4157 5.87975 15.4157 5.41952C15.4157 4.95928 15.0426 4.58618 14.5824 4.58618C14.1221 4.58618 13.749 4.95928 13.749 5.41952C13.749 5.87975 14.1221 6.25285 14.5824 6.25285Z" fill="#E5E5E5"/>
</svg>
