<svg width="202" height="40" viewBox="0 0 202 40" fill="none" xmlns="http://www.w3.org/2000/svg">
<path d="M18.3225 11.0366H26.73V32.4866H21.195V15.6791L16.455 32.4866H10.905L6.195 15.6791V32.4866H0.915V11.0366H9.645L13.9725 26.5016L18.3225 11.0366ZM33.3413 32.4866H27.5587L34.6538 11.0366H42.2588L49.2488 32.4866H43.3463L42.1463 28.0991H34.5638L33.3413 32.4866ZM35.7788 23.7191H40.9538L38.3888 14.3366L35.7788 23.7191ZM70.0177 11.0366V32.4866H62.4877L55.3552 16.3841V32.4866H50.0752V11.0366H58.0552L64.7377 26.0066V11.0366H70.0177ZM71.6963 23.9366V11.0366H77.2313V23.4416C77.2313 26.8466 78.6113 28.3016 81.1613 28.3016C83.7188 28.3016 85.0913 26.8466 85.0913 23.4416V11.0366H90.6263V23.9366C90.6263 29.7191 86.7113 32.9366 81.1613 32.9366C75.6188 32.9366 71.6963 29.7191 71.6963 23.9366ZM107.306 11.0366V15.6266H97.8563V19.9391H106.451V24.3491H97.8563V32.4866H92.3213V11.0366H107.306ZM111.769 32.4866H105.986L113.081 11.0366H120.686L127.676 32.4866H121.774L120.574 28.0991H112.991L111.769 32.4866ZM114.206 23.7191H119.381L116.816 14.3366L114.206 23.7191ZM132.422 21.7616C132.422 26.0516 134.192 28.3016 137.417 28.3016C139.967 28.3016 141.49 26.7866 141.977 23.7116H147.467C146.702 29.4416 142.907 32.9366 137.41 32.9366C131.252 32.9366 126.842 28.5416 126.842 21.7616C126.842 14.9816 131.252 10.5866 137.41 10.5866C142.907 10.5866 146.702 14.0816 147.467 19.8116H141.977C141.49 16.7366 139.967 15.2216 137.417 15.2216C134.192 15.2216 132.422 17.4641 132.422 21.7616ZM166.033 11.0366V15.6266H159.688V32.4866H154.153V15.6266H147.808V11.0366H166.033ZM184.725 11.0366V15.6266H178.38V32.4866H172.845V15.6266H166.5V11.0366H184.725Z" fill="#191919"/>
<circle cx="193.619" cy="7.60001" r="7" stroke="#191919" stroke-width="1.2"/>
<path d="M192.49 11.2156H190.831V3.70544H194.546C196.231 3.70544 197.257 4.59006 197.257 5.97606C197.257 7.18881 196.441 7.98419 195.176 8.02356C195.769 8.06556 196.228 8.46981 196.556 9.20481L197.459 11.2156H195.619L194.708 9.21006C194.441 8.61681 194.199 8.45406 193.58 8.45406H192.49V11.2156ZM192.49 7.11531H194.354C195.139 7.11531 195.598 6.73469 195.598 6.07844C195.598 5.43269 195.152 5.07569 194.351 5.07569H192.49V7.11531Z" fill="#191919"/>
</svg>
