<svg width="95" height="81" viewBox="0 0 95 81" fill="none" xmlns="http://www.w3.org/2000/svg">
<path d="M90.117 14.1977H62.8594V7.83421C62.8594 3.78992 59.5695 0.5 55.5252 0.5H39.4743C35.4301 0.5 32.1401 3.78992 32.1401 7.83421V14.1977H4.88216C2.41244 14.1977 0.410767 16.1993 0.410767 18.669V76.0286C0.410767 78.498 2.41244 80.5 4.88216 80.5H90.1167C92.5865 80.5 94.5881 78.4977 94.5881 76.0286V18.669C94.5884 16.1993 92.5868 14.1977 90.117 14.1977ZM39.6992 8.0591H55.2997V14.1973H39.6992V8.0591ZM47.4996 74.4367C32.5395 74.4367 20.4117 62.3092 20.4117 47.3488C20.4117 32.3884 32.5395 20.2609 47.4996 20.2609C62.4597 20.2609 74.5875 32.3884 74.5875 47.3488C74.5875 62.3092 62.4597 74.4367 47.4996 74.4367Z" fill="white"/>
<path d="M61.1695 40.953H53.8945V33.6777C53.8945 31.7113 52.3004 30.1172 50.334 30.1172H44.6645C42.6981 30.1172 41.104 31.7113 41.104 33.6777V40.953H33.8287C31.8623 40.953 30.2682 42.5468 30.2682 44.5135V50.183C30.2682 52.1494 31.8623 53.7435 33.8287 53.7435H41.104V61.0188C41.104 62.9852 42.6981 64.5793 44.6645 64.5793H50.334C52.3004 64.5793 53.8945 62.9852 53.8945 61.0188V53.7435H61.1695C63.1359 53.7435 64.73 52.1494 64.73 50.183V44.5135C64.73 42.5468 63.1359 40.953 61.1695 40.953Z" fill="url(#paint0_linear_571_158)"/>
<defs>
<linearGradient id="paint0_linear_571_158" x1="31.7756" y1="30.5488" x2="63.257" y2="63.1769" gradientUnits="userSpaceOnUse">
<stop stop-color="#F66234"/>
<stop offset="1" stop-color="#C8370B"/>
</linearGradient>
</defs>
</svg>
