<svg width="95" height="14" viewBox="0 0 95 14" fill="none" xmlns="http://www.w3.org/2000/svg">
<path d="M14.8844 5.34725L9.59991 4.99983L7.60973 0L5.61956 4.99983L0.34082 5.34725L4.38957 8.78506L3.06099 14L7.60973 11.1248L12.1585 14L10.8299 8.78506L14.8844 5.34725Z" fill="white"/>
<path d="M34.6781 5.34725L29.3936 4.99983L27.4034 0L25.4133 4.99983L20.1345 5.34725L24.1833 8.78506L22.8547 14L27.4034 11.1248L31.9522 14L30.6236 8.78506L34.6781 5.34725Z" fill="white"/>
<path d="M54.4718 5.34725L49.1873 4.99983L47.1971 0L45.207 4.99983L39.9282 5.34725L43.977 8.78506L42.6484 14L47.1971 11.1248L51.7459 14L50.4173 8.78506L54.4718 5.34725Z" fill="white"/>
<path d="M74.2653 5.34725L68.9808 4.99983L66.9906 0L65.0004 4.99983L59.7217 5.34725L63.7704 8.78506L62.4418 14L66.9906 11.1248L71.5394 14L70.2108 8.78506L74.2653 5.34725Z" fill="white"/>
<path d="M94.059 5.34725L88.7745 4.99983L86.7843 0L84.7941 4.99983L79.5154 5.34725L83.5641 8.78506L82.2355 14L86.7843 11.1248L91.3331 14L90.0045 8.78506L94.059 5.34725Z" fill="white"/>
</svg>
