<svg width="41" height="41" viewBox="0 0 41 41" fill="none" xmlns="http://www.w3.org/2000/svg">
<path fill-rule="evenodd" clip-rule="evenodd" d="M35.9198 28.3984C35.4456 28.1288 34.8321 28.2961 34.5625 28.7703C33.1216 31.2989 31.0392 33.4092 28.5198 34.878C26.7907 35.882 24.9035 36.5606 22.9327 36.886V35.6682C22.9327 35.4265 22.8119 35.2126 22.598 35.0918C22.4958 35.036 22.3842 34.9988 22.2634 34.9988C22.1425 34.9988 22.031 35.036 21.9287 35.0918L18.5727 37.0347C18.4147 37.1091 18.2845 37.2393 18.1916 37.388C18.0707 37.5925 18.0428 37.8342 18.0986 38.0666C18.1637 38.299 18.3124 38.485 18.5169 38.6058L21.9287 40.5767C22.1425 40.6975 22.3842 40.6975 22.598 40.5767C22.8119 40.4558 22.9327 40.242 22.9327 40.0003V38.9126C25.2661 38.5686 27.4879 37.797 29.5239 36.6071C32.3407 34.9616 34.6833 32.6004 36.3009 29.765C36.4311 29.5326 36.4682 29.263 36.3939 29.0027C36.3195 28.7424 36.1522 28.5286 35.9198 28.3984Z" fill="#191919"/>
<path fill-rule="evenodd" clip-rule="evenodd" d="M12.1583 34.9615C9.62964 33.5299 7.51936 31.4382 6.05053 28.9189C5.04652 27.1897 4.36789 25.3026 4.04251 23.3317H5.26034C5.50205 23.3317 5.71586 23.2109 5.83672 22.9971C5.95757 22.7832 5.95757 22.5415 5.83672 22.3277L3.90307 18.9717C3.8287 18.8137 3.69855 18.6742 3.54981 18.5906C3.41036 18.5162 3.26162 18.4697 3.10358 18.4697C2.7875 18.4697 2.49002 18.6371 2.33198 18.916L0.361148 22.3277C0.240295 22.5415 0.240295 22.7832 0.361148 22.9971C0.482 23.2109 0.695817 23.3317 0.937523 23.3317H2.0159C2.35057 25.6651 3.13147 27.887 4.32141 29.9229C5.96687 32.7397 8.32815 35.0824 11.1635 36.6999C11.396 36.8301 11.6655 36.8673 11.9165 36.7929C12.1768 36.7185 12.3907 36.5512 12.5208 36.3188C12.651 36.0864 12.6881 35.8168 12.6138 35.5658C12.558 35.3148 12.3814 35.101 12.1583 34.9615Z" fill="#191919"/>
<path fill-rule="evenodd" clip-rule="evenodd" d="M4.60026 12.9387C5.07437 13.2083 5.68793 13.041 5.95753 12.5668C7.39847 10.0382 9.48086 7.92795 12.0002 6.45913C13.7293 5.45512 15.6072 4.77648 17.5873 4.45111V5.66893C17.5873 5.91064 17.7082 6.12446 17.922 6.24531C18.1358 6.36616 18.3775 6.36616 18.5913 6.24531L21.9473 4.30236C22.1053 4.22799 22.2355 4.10714 22.3285 3.9491C22.4493 3.74458 22.4772 3.50288 22.4214 3.27047C22.3563 3.03806 22.2076 2.85213 22.0031 2.73128L18.5913 0.760444C18.489 0.704666 18.3775 0.66748 18.2566 0.66748C18.1358 0.66748 18.0242 0.704666 17.922 0.760444C17.7082 0.881297 17.5873 1.09511 17.5873 1.33682V2.4152C15.2539 2.74987 13.0321 3.53077 10.9962 4.7207C8.17936 6.37546 5.83668 8.73674 4.2284 11.5814C4.09825 11.8138 4.06107 12.0834 4.13544 12.3344C4.20051 12.5947 4.37714 12.8086 4.60026 12.9387Z" fill="#191919"/>
<path fill-rule="evenodd" clip-rule="evenodd" d="M18.4891 31.5779H22.031C22.3006 31.5779 22.5237 31.3734 22.5516 31.1038L22.8863 28.1103C22.9049 27.9523 23.0071 27.8128 23.1559 27.7478C23.788 27.4875 24.383 27.1435 24.9222 26.7252C25.0523 26.6229 25.229 26.6043 25.3777 26.6694L28.148 27.8779C28.399 27.9895 28.6779 27.8872 28.8174 27.6548L30.5837 24.587C30.7138 24.3546 30.658 24.0571 30.4349 23.8991L28.0086 22.1049C27.8784 22.0119 27.8134 21.8446 27.8319 21.6865C27.8784 21.3519 27.897 21.0079 27.897 20.6639C27.897 20.32 27.8784 19.976 27.8319 19.6413C27.8134 19.4833 27.8784 19.316 28.0086 19.223L30.4349 17.4288C30.6487 17.2708 30.7138 16.9733 30.5744 16.7409L28.8081 13.6731C28.6779 13.4406 28.3804 13.3477 28.1387 13.4499L25.3684 14.6585C25.2197 14.7235 25.043 14.705 24.9129 14.6027C24.3737 14.1844 23.7787 13.8404 23.1466 13.5801C22.9978 13.515 22.8956 13.3756 22.877 13.2175L22.5423 10.2241C22.5144 9.9545 22.282 9.75928 22.0217 9.75928H18.4798C18.2102 9.75928 17.9871 9.9638 17.9499 10.2334L17.6152 13.2268C17.5966 13.3849 17.4944 13.5243 17.3456 13.5894C16.7135 13.8497 16.1185 14.1937 15.5793 14.612C15.4492 14.7142 15.2818 14.7328 15.1238 14.6678L12.3535 13.4592C12.1025 13.3477 11.8143 13.4499 11.6841 13.6824L9.91782 16.7502C9.78767 16.9826 9.84345 17.28 10.0573 17.4381L12.4836 19.2323C12.6138 19.3253 12.6788 19.4926 12.6603 19.6506C12.6138 19.9853 12.5952 20.3293 12.5952 20.6732C12.5952 21.0172 12.6138 21.3612 12.6603 21.6958C12.6788 21.8539 12.6138 22.0212 12.4836 22.1142L10.0573 23.9084C9.84345 24.0664 9.77837 24.3639 9.90852 24.5963L11.6748 27.6641C11.805 27.8965 12.0932 27.9895 12.3442 27.8872L15.1145 26.6787C15.1703 26.6508 15.2353 26.6415 15.2911 26.6415C15.3841 26.6415 15.4864 26.6694 15.5607 26.7345C16.1092 27.1528 16.6949 27.4968 17.327 27.7571C17.4758 27.8221 17.578 27.9616 17.5966 28.1196L17.9313 31.1131C17.9964 31.3734 18.2195 31.5779 18.4891 31.5779ZM15.8675 20.6732C15.8675 18.2469 17.8383 16.276 20.2647 16.276C22.691 16.276 24.6619 18.2469 24.6619 20.6732C24.6619 23.0996 22.691 25.0704 20.2647 25.0704C17.8383 25.0611 15.8675 23.0903 15.8675 20.6732Z" fill="#191919"/>
<path fill-rule="evenodd" clip-rule="evenodd" d="M40.1589 18.3303C40.038 18.1165 39.8242 17.9956 39.5825 17.9956H38.5041C38.1695 15.6623 37.3886 13.4404 36.1986 11.4045C34.5532 8.58771 32.1919 6.23572 29.3565 4.62745C29.1241 4.4973 28.8545 4.46012 28.6035 4.53449C28.3432 4.60886 28.1294 4.77619 27.9992 5.0086C27.7296 5.48272 27.897 6.09628 28.3711 6.36587C30.8997 7.80681 33.01 9.8892 34.4788 12.4085C35.4828 14.1376 36.1615 16.0155 36.4868 17.9956H35.269C35.0273 17.9956 34.8135 18.1165 34.6926 18.3303C34.5718 18.5441 34.5718 18.7858 34.6926 18.9997L36.6356 22.3556C36.7099 22.5137 36.8308 22.6438 36.9888 22.7368C37.1934 22.8577 37.4351 22.8855 37.6675 22.8298C37.8999 22.7647 38.0858 22.6159 38.2067 22.4114L40.1775 18.9997C40.2333 18.8974 40.2705 18.7858 40.2705 18.665C40.2519 18.5441 40.224 18.4326 40.1589 18.3303Z" fill="#191919"/>
</svg>
