<svg width="41" height="41" viewBox="0 0 41 41" fill="none" xmlns="http://www.w3.org/2000/svg">
<g clip-path="url(#clip0_306_307)">
<path d="M25.0565 16.2378C22.4237 14.4019 18.6112 16.5112 18.6581 19.6909C18.6581 21.9722 20.5096 23.8237 22.7909 23.8237C25.2284 23.8472 27.205 21.5894 26.8768 19.144L30.1971 17.0581C32.0565 22.019 28.119 27.644 22.7909 27.5425C18.619 27.5581 15.3612 24.3315 14.9628 20.3862C16.33 19.6987 16.6737 17.7065 15.5565 16.6362C17.6034 11.5581 24.5253 10.1753 28.3612 14.1597L25.0565 16.2378ZM14.1737 15.9019C14.33 15.9253 14.4784 15.9722 14.6268 16.0269C17.0956 10.2534 25.0956 8.92529 29.3065 13.5659L32.3612 11.644C28.8925 7.28467 21.9628 5.82373 16.9706 8.62061V9.46436C16.9706 11.1831 15.5331 12.5581 13.8221 12.4956C13.9081 13.6362 14.0253 14.7769 14.1737 15.9019ZM31.1346 16.4644C34.4862 25.5347 23.3143 32.7378 16.4393 25.98C16.5331 26.2612 16.6268 26.5503 16.7206 26.8315C18.0487 27.3003 18.7128 28.6362 18.58 29.9956C19.2831 30.3237 19.8221 31.019 20.0018 31.8706C27.6815 33.7222 35.3925 27.5972 35.2909 19.6831C35.2909 17.8472 34.9003 16.1128 34.1893 14.5425L31.1346 16.4644ZM21.8768 18.2378L24.0018 16.9019C22.0565 16.0034 19.7206 17.5581 19.744 19.6909C19.9003 23.6753 25.5253 23.7222 25.8143 19.8159L23.705 21.144C21.7362 22.2847 19.994 19.4956 21.8768 18.2378ZM39.6425 10.4644L37.7518 10.3003L38.4159 8.62061C38.5096 8.37842 38.4471 8.09717 38.2518 7.92529C38.0565 7.75342 37.7753 7.71436 37.5409 7.83936L34.2987 9.52686C34.08 9.64404 33.9471 9.87061 33.9628 10.1206L34.0643 11.8706C34.0175 11.9019 33.9628 11.9331 33.9081 11.9722C33.9081 11.9722 33.9081 11.9722 33.9003 11.9722L22.455 19.1675C22.1659 19.355 22.0721 19.7378 22.2518 20.0347C22.4393 20.3315 22.83 20.4175 23.119 20.23C23.205 20.1675 31.2128 15.1597 33.8378 13.4956C34.1112 13.3394 34.4315 13.1206 34.6659 12.9722C34.8768 13.0581 36.3456 13.9019 36.5331 13.855C36.6581 13.855 36.7831 13.8159 36.8925 13.7456L39.9393 11.6206C40.4237 11.3003 40.205 10.4956 39.6425 10.4644ZM17.6737 30.8862H17.494H1.85339H1.67371C0.947144 30.8862 0.361206 31.6128 0.361206 32.5112V35.5112H18.9862V32.5112C18.9862 31.6128 18.4003 30.8862 17.6737 30.8862ZM4.20496 18.3628C4.25964 19.0659 4.89246 19.5815 5.58777 19.5815H13.83C14.58 19.5815 15.1815 18.9644 15.1503 18.2144C15.1268 17.519 14.4628 16.9565 13.7675 16.9565H5.51746C4.75183 16.9487 4.15808 17.5972 4.20496 18.3628ZM6.61121 12.4956C6.53308 13.5659 6.42371 14.6909 6.26746 15.8628H13.0721C12.9159 14.6909 12.8065 13.5581 12.7284 12.4956H6.61121ZM15.5175 26.6597C14.9237 24.855 14.3612 22.855 13.8925 20.6519C13.7518 20.6675 5.72058 20.6519 5.57996 20.6597C5.53308 20.6597 5.48621 20.6597 5.43933 20.6519C4.97058 22.855 4.40808 24.855 3.82214 26.6597H15.5175ZM5.40808 11.4097H13.9315C15.0018 11.4097 15.8768 10.5425 15.8768 9.46436V5.82373H14.0643C13.6659 5.82373 13.3456 6.14404 13.3456 6.54248V8.28467H11.2284V6.54248C11.2284 6.15186 10.9081 5.82373 10.5096 5.82373H8.82996C8.43152 5.82373 8.11121 6.14404 8.11121 6.54248V8.28467H6.00183V6.54248C6.00183 6.15186 5.68152 5.82373 5.28308 5.82373H3.46277V9.46436C3.46277 10.5347 4.33777 11.4097 5.40808 11.4097ZM17.494 29.8003V29.4878C17.5018 28.5347 16.705 27.7456 15.7518 27.7456H3.59558C2.48621 27.7378 1.72839 28.7378 1.85339 29.7925H17.494V29.8003Z" fill="#191919"/>
<path d="M5.58774 19.5816C4.89243 19.5816 4.25961 19.066 4.20493 18.3629C4.15805 17.5972 4.7518 16.9488 5.51743 16.9566H13.7674C14.4627 16.9566 15.1268 17.5191 15.1502 18.2144C15.1815 18.9644 14.5799 19.5816 13.8299 19.5816H5.58774Z" fill="#191919"/>
<path d="M37.7518 10.3003L39.6425 10.4644C40.205 10.4956 40.4237 11.3003 39.9393 11.6206L36.8925 13.7456C36.7831 13.8159 36.6581 13.855 36.5331 13.855C36.3456 13.9019 34.8768 13.0581 34.6659 12.9722C34.4315 13.1206 34.1112 13.3394 33.8378 13.4956C31.2128 15.1597 23.205 20.1675 23.119 20.23C22.83 20.4175 22.4393 20.3316 22.2518 20.0347C22.0721 19.7378 22.1659 19.355 22.455 19.1675L33.9003 11.9722H33.9081C33.9628 11.9331 34.0175 11.9019 34.0643 11.8706L33.9628 10.1206C33.9471 9.87062 34.08 9.64406 34.2987 9.52687L37.5409 7.83937C37.7753 7.71437 38.0565 7.75343 38.2518 7.92531C38.4471 8.09718 38.5096 8.37843 38.4159 8.62062L37.7518 10.3003Z" fill="#191919"/>
</g>
<defs>
<clipPath id="clip0_306_307">
<rect width="40" height="40" fill="white" transform="translate(0.283081 0.66748)"/>
</clipPath>
</defs>
</svg>
