<svg width="41" height="41" viewBox="0 0 41 41" fill="none" xmlns="http://www.w3.org/2000/svg">
<path d="M2.28308 5.66748H7.28308C7.44884 5.66748 7.60781 5.60163 7.72502 5.48442C7.84223 5.36721 7.90808 5.20824 7.90808 5.04248C7.90808 4.87672 7.84223 4.71775 7.72502 4.60054C7.60781 4.48333 7.44884 4.41748 7.28308 4.41748H2.28308C2.11732 4.41748 1.95835 4.48333 1.84114 4.60054C1.72393 4.71775 1.65808 4.87672 1.65808 5.04248C1.65808 5.20824 1.72393 5.36721 1.84114 5.48442C1.95835 5.60163 2.11732 5.66748 2.28308 5.66748Z" fill="#191919"/>
<path d="M3.53308 6.91748H2.28308C2.11732 6.91748 1.95835 6.98333 1.84114 7.10054C1.72393 7.21775 1.65808 7.37672 1.65808 7.54248C1.65808 7.70824 1.72393 7.86721 1.84114 7.98442C1.95835 8.10163 2.11732 8.16748 2.28308 8.16748H3.53308C3.69884 8.16748 3.85781 8.10163 3.97502 7.98442C4.09223 7.86721 4.15808 7.70824 4.15808 7.54248C4.15808 7.37672 4.09223 7.21775 3.97502 7.10054C3.85781 6.98333 3.69884 6.91748 3.53308 6.91748Z" fill="#191919"/>
<path d="M7.57746 26.2733H7.60808C7.77392 26.2728 7.9329 26.207 8.05058 26.0902L12.0631 22.0714C12.1665 21.9679 12.2304 21.8314 12.2435 21.6857C12.2566 21.54 12.2182 21.3942 12.135 21.2739C11.419 20.2317 11.0358 18.9969 11.0358 17.7324C11.0358 16.4679 11.419 15.2331 12.135 14.1908C12.218 14.0705 12.2562 13.9248 12.2429 13.7792C12.2297 13.6336 12.1658 13.4973 12.0625 13.3939L8.04996 9.38143C7.98706 9.32145 7.91295 9.27446 7.83187 9.24314C7.7508 9.21183 7.66434 9.1968 7.57746 9.19893C7.49018 9.20316 7.40476 9.22566 7.32671 9.26495C7.24866 9.30424 7.17972 9.35947 7.12433 9.42705C5.20902 11.7725 4.16284 14.7077 4.16284 17.7358C4.16284 20.7639 5.20902 23.6991 7.12433 26.0446C7.17966 26.1123 7.24858 26.1676 7.32663 26.207C7.40468 26.2464 7.49013 26.269 7.57746 26.2733ZM7.83187 24.8506L5.41143 14.9379C4.73282 16.0931 6.66824 20.901 6.66824 22.2407C6.66824 23.5804 6.44573 22.2399 7.12433 23.3951L7.66746 24.7046C6.20081 22.677 7.57735 27.2069 7.57746 24.7046C7.57757 22.2022 6.36504 26.878 7.83187 24.8506Z" fill="#191919"/>
<path d="M8.53308 35.6675H6.03308C5.86732 35.6675 5.70835 35.7333 5.59114 35.8505C5.47393 35.9677 5.40808 36.1267 5.40808 36.2925C5.40808 36.4582 5.47393 36.6172 5.59114 36.7344C5.70835 36.8516 5.86732 36.9175 6.03308 36.9175H8.53308C8.69884 36.9175 8.85781 36.8516 8.97502 36.7344C9.09223 36.6172 9.15808 36.4582 9.15808 36.2925C9.15808 36.1267 9.09223 35.9677 8.97502 35.8505C8.85781 35.7333 8.69884 35.6675 8.53308 35.6675Z" fill="#191919"/>
<path d="M13.5331 36.9175C13.6988 36.9175 13.8578 36.8516 13.975 36.7344C14.0922 36.6172 14.1581 36.4582 14.1581 36.2925C14.1581 36.1267 14.0922 35.9677 13.975 35.8505C13.8578 35.7333 13.6988 35.6675 13.5331 35.6675H11.0331C10.8673 35.6675 10.7083 35.7333 10.5911 35.8505C10.4739 35.9677 10.4081 36.1267 10.4081 36.2925C10.4081 36.4582 10.4739 36.6172 10.5911 36.7344C10.7083 36.8516 10.8673 36.9175 11.0331 36.9175H13.5331Z" fill="#191919"/>
<path d="M16.0331 36.9175H18.5331C18.6988 36.9175 18.8578 36.8516 18.975 36.7344C19.0922 36.6172 19.1581 36.4582 19.1581 36.2925C19.1581 36.1267 19.0922 35.9677 18.975 35.8505C18.8578 35.7333 18.6988 35.6675 18.5331 35.6675H16.0331C15.8673 35.6675 15.7083 35.7333 15.5911 35.8505C15.4739 35.9677 15.4081 36.1267 15.4081 36.2925C15.4081 36.4582 15.4739 36.6172 15.5911 36.7344C15.7083 36.8516 15.8673 36.9175 16.0331 36.9175Z" fill="#191919"/>
<path d="M5.40808 38.7925C5.40808 38.9582 5.47393 39.1172 5.59114 39.2344C5.70835 39.3516 5.86732 39.4175 6.03308 39.4175H13.5331C13.6988 39.4175 13.8578 39.3516 13.975 39.2344C14.0922 39.1172 14.1581 38.9582 14.1581 38.7925C14.1581 38.6267 14.0922 38.4677 13.975 38.3505C13.8578 38.2333 13.6988 38.1675 13.5331 38.1675H6.03308C5.86732 38.1675 5.70835 38.2333 5.59114 38.3505C5.47393 38.4677 5.40808 38.6267 5.40808 38.7925Z" fill="#191919"/>
<path d="M16.0331 39.4175H18.5331C18.6988 39.4175 18.8578 39.3516 18.975 39.2344C19.0922 39.1172 19.1581 38.9582 19.1581 38.7925C19.1581 38.6267 19.0922 38.4677 18.975 38.3505C18.8578 38.2333 18.6988 38.1675 18.5331 38.1675H16.0331C15.8673 38.1675 15.7083 38.2333 15.5911 38.3505C15.4739 38.4677 15.4081 38.6267 15.4081 38.7925C15.4081 38.9582 15.4739 39.1172 15.5911 39.2344C15.7083 39.3516 15.8673 39.4175 16.0331 39.4175Z" fill="#191919"/>
<path d="M38.5331 8.16748H29.7831C29.6173 8.16752 29.4584 8.23339 29.3412 8.35061L27.7937 9.89811C27.4182 9.38911 27.007 8.90747 26.5631 8.45686C24.892 6.77408 22.7944 5.5778 20.4953 4.99624C18.1961 4.41468 15.7821 4.46977 13.5118 5.15561C13.5408 5.02346 13.5252 4.88545 13.4675 4.76311L12.2175 2.26311C12.1655 2.15921 12.0857 2.07184 11.9869 2.01079C11.8881 1.94974 11.7742 1.91743 11.6581 1.91748H2.28308C2.11732 1.91748 1.95835 1.98333 1.84114 2.10054C1.72393 2.21775 1.65808 2.37672 1.65808 2.54248C1.65808 2.70824 1.72393 2.86721 1.84114 2.98442C1.95835 3.10163 2.11732 3.16748 2.28308 3.16748H11.2718L12.3487 5.32186C12.3869 5.39368 12.4387 5.45737 12.5012 5.50936C11.2254 6.00907 10.0354 6.70495 8.97433 7.57186C8.90679 7.62719 8.85159 7.69606 8.8123 7.77403C8.773 7.852 8.75048 7.93734 8.74618 8.02455C8.74188 8.11175 8.75591 8.19889 8.78734 8.28035C8.81878 8.36181 8.86694 8.43577 8.92871 8.49748L12.9468 12.5106C13.0503 12.6139 13.1867 12.6776 13.3323 12.6908C13.4779 12.7039 13.6234 12.6656 13.7437 12.5825C14.6822 11.9378 15.779 11.5617 16.9157 11.4948C18.0524 11.428 19.1857 11.6729 20.1933 12.2032C21.2009 12.7335 22.0445 13.5289 22.6331 14.5037C23.2216 15.4784 23.5326 16.5954 23.5326 17.734C23.5326 18.8727 23.2216 19.9897 22.6331 20.9644C22.0445 21.9392 21.2009 22.7346 20.1933 23.2649C19.1857 23.7952 18.0524 24.0401 16.9157 23.9733C15.779 23.9064 14.6822 23.5303 13.7437 22.8856C13.6235 22.8023 13.4778 22.7637 13.332 22.7768C13.1863 22.7898 13.0498 22.8535 12.9462 22.9569L8.92808 26.9694C8.86629 27.0311 8.81812 27.1051 8.78669 27.1866C8.75526 27.2681 8.74125 27.3552 8.74558 27.4425C8.74963 27.5297 8.77205 27.6151 8.81136 27.6931C8.85067 27.771 8.90599 27.8398 8.97371 27.895C9.83345 28.5991 10.7784 29.1923 11.7862 29.6606L10.5956 30.8487C10.5365 30.9066 10.4895 30.9756 10.4574 31.0518C10.4252 31.128 10.4084 31.2098 10.4081 31.2925V33.7925C10.4081 33.9582 10.4739 34.1172 10.5911 34.2344C10.7083 34.3516 10.8673 34.4175 11.0331 34.4175C11.1988 34.4175 11.3578 34.3516 11.475 34.2344C11.5922 34.1172 11.6581 33.9582 11.6581 33.7925V31.5525L13.0518 30.1675C14.9688 30.8288 17.0139 31.0324 19.0236 30.7622C21.0333 30.492 22.952 29.7554 24.6262 28.6112L26.6112 30.5919L26.1662 31.0369C26.049 31.1541 25.9832 31.313 25.9832 31.4787C25.9832 31.6445 26.049 31.8034 26.1662 31.9206L32.5662 38.3206C32.9148 38.6688 33.3285 38.945 33.7838 39.1333C34.2391 39.3216 34.7271 39.4184 35.2198 39.4181C35.7125 39.4178 36.2003 39.3205 36.6554 39.1317C37.1105 38.943 37.5239 38.6664 37.8721 38.3178C38.2204 37.9692 38.4965 37.5555 38.6848 37.1002C38.8731 36.6449 38.9699 36.1569 38.9696 35.6642C38.9694 35.1715 38.8721 34.6837 38.6833 34.2286C38.4945 33.7735 38.2179 33.3601 37.8693 33.0119L31.4706 26.6194C31.3534 26.5022 31.1944 26.4364 31.0287 26.4364C30.863 26.4364 30.704 26.5022 30.5868 26.6194L30.1493 27.0569L28.1675 25.075C29.5716 23.0008 30.3504 20.5669 30.4113 18.0628C30.4721 15.5588 29.8124 13.0899 28.5106 10.95L30.0418 9.41748H38.5331C38.6988 9.41748 38.8578 9.35163 38.975 9.23442C39.0922 9.11721 39.1581 8.95824 39.1581 8.79248C39.1581 8.62672 39.0922 8.46775 38.975 8.35054C38.8578 8.23333 38.6988 8.16748 38.5331 8.16748Z" fill="#191919"/>
<path d="M30.4081 3.16748H29.7831C29.6173 3.16748 29.4583 3.23333 29.3411 3.35054C29.2239 3.46775 29.1581 3.62672 29.1581 3.79248C29.1581 3.95824 29.2239 4.11721 29.3411 4.23442C29.4583 4.35163 29.6173 4.41748 29.7831 4.41748H30.4081C30.5738 4.41748 30.7328 4.35163 30.85 4.23442C30.9672 4.11721 31.0331 3.95824 31.0331 3.79248C31.0331 3.62672 30.9672 3.46775 30.85 3.35054C30.7328 3.23333 30.5738 3.16748 30.4081 3.16748Z" fill="#191919"/>
<path d="M38.5331 3.16748H32.9081C32.7423 3.16748 32.5833 3.23333 32.4661 3.35054C32.3489 3.46775 32.2831 3.62672 32.2831 3.79248C32.2831 3.95824 32.3489 4.11721 32.4661 4.23442C32.5833 4.35163 32.7423 4.41748 32.9081 4.41748H38.5331C38.6988 4.41748 38.8578 4.35163 38.975 4.23442C39.0922 4.11721 39.1581 3.95824 39.1581 3.79248C39.1581 3.62672 39.0922 3.46775 38.975 3.35054C38.8578 3.23333 38.6988 3.16748 38.5331 3.16748Z" fill="#191919"/>
<path d="M38.5331 5.66748H29.7831C29.6173 5.66748 29.4583 5.73333 29.3411 5.85054C29.2239 5.96775 29.1581 6.12672 29.1581 6.29248C29.1581 6.45824 29.2239 6.61721 29.3411 6.73442C29.4583 6.85163 29.6173 6.91748 29.7831 6.91748H38.5331C38.6988 6.91748 38.8578 6.85163 38.975 6.73442C39.0922 6.61721 39.1581 6.45824 39.1581 6.29248C39.1581 6.12672 39.0922 5.96775 38.975 5.85054C38.8578 5.73333 38.6988 5.66748 38.5331 5.66748Z" fill="#191919"/>
</svg>
