<svg width="41" height="41" viewBox="0 0 41 41" fill="none" xmlns="http://www.w3.org/2000/svg">
<path d="M23.0456 32.1728C22.9342 32.2291 22.8145 32.2675 22.691 32.2863L21.3435 32.4926C21.2904 34.9905 22.2432 37.382 24.036 39.1748C24.2352 39.3741 24.5002 39.4838 24.782 39.4838C25.0637 39.4838 25.3286 39.3741 25.5278 39.1749L30.5943 34.1086C32.5041 32.1987 32.7571 29.2175 31.1956 27.0201C31.1834 27.0029 31.1731 26.9849 31.162 26.9673C29.0747 28.7555 26.7784 30.2866 24.2953 31.5412L23.0456 32.1728Z" fill="#191919"/>
<path d="M8.1597 17.7549C8.17856 17.6315 8.21698 17.5118 8.27323 17.4003L8.48136 16.9885C9.87993 14.2206 11.6186 11.6877 13.6732 9.41894C13.6277 9.39345 13.583 9.36584 13.54 9.33373C11.3624 7.70052 8.26605 7.92324 6.33746 9.85176L1.27105 14.9181C0.859765 15.3294 0.859765 15.9986 1.27105 16.41C3.06433 18.2032 5.45533 19.1559 7.95339 19.1026L8.1597 17.7549Z" fill="#191919"/>
<path d="M22.81 29.6398L23.2279 29.4286C30.4626 25.7728 35.9679 19.6181 38.7986 12.0458L28.9071 2.1543C21.1562 4.79058 14.6098 10.3881 10.8089 17.6387L22.81 29.6398ZM21.8201 11.9091C22.7872 10.942 24.073 10.4094 25.4407 10.4094C26.8084 10.4094 28.0943 10.942 29.0613 11.9091C30.0284 12.8762 30.561 14.162 30.561 15.5297C30.561 16.8974 30.0284 18.1832 29.0613 19.1503C28.0942 20.1174 26.8084 20.65 25.4407 20.65C24.073 20.65 22.7872 20.1174 21.8201 19.1503C20.853 18.1832 20.3204 16.8974 20.3204 15.5297C20.3204 14.1621 20.853 12.8762 21.8201 11.9091Z" fill="#191919"/>
<path d="M31.5627 1.46296L39.5635 9.4638C39.9751 7.5958 40.3333 5.04164 40.6007 2.02438C40.633 1.65901 40.5108 1.31243 40.2566 1.04844C40.0031 0.785327 39.662 0.650101 39.2978 0.669272C36.1619 0.829587 33.5067 1.10422 31.5627 1.46296Z" fill="#191919"/>
<path d="M20.1099 30.2868L10.159 20.3359L9.59378 24.0285C9.53532 24.4108 9.66361 24.8023 9.93706 25.0756L15.3702 30.5088C15.6436 30.7823 16.0352 30.9108 16.4173 30.8521L20.1099 30.2868Z" fill="#191919"/>
<path d="M23.4937 13.5828C22.9736 14.1028 22.6872 14.7943 22.6872 15.5297C22.6872 16.2652 22.9736 16.9566 23.4937 17.4767C24.0137 17.9967 24.7051 18.2832 25.4406 18.2832C26.1761 18.2832 26.8675 17.9968 27.3876 17.4767C27.9077 16.9566 28.1941 16.2652 28.1941 15.5297C28.1941 14.7943 27.9077 14.1028 27.3876 13.5828C26.8675 13.0628 26.1762 12.7764 25.4406 12.7764C24.7052 12.7764 24.0137 13.0628 23.4937 13.5828Z" fill="#191919"/>
<path d="M9.53997 31.3388C9.07788 30.8766 8.32853 30.8766 7.86636 31.3388L3.99995 35.2052C3.53778 35.6674 3.53778 36.4167 3.99995 36.8788C4.23103 37.1099 4.53391 37.2255 4.83671 37.2255C5.13951 37.2255 5.44247 37.11 5.67347 36.8788L9.53997 33.0123C10.0022 32.5502 10.0022 31.801 9.53997 31.3388Z" fill="#191919"/>
<path d="M6.09807 27.8969C5.63598 27.4348 4.88664 27.4348 4.42447 27.8969L0.558052 31.7634C0.0958838 32.2256 0.0958838 32.9748 0.558052 33.437C0.789136 33.6681 1.09201 33.7837 1.39481 33.7837C1.69761 33.7837 2.00057 33.6682 2.23158 33.437L6.09807 29.5705C6.56032 29.1084 6.56032 28.3591 6.09807 27.8969Z" fill="#191919"/>
<path d="M11.3082 34.7807L7.44166 38.6472C6.97949 39.1094 6.97949 39.8586 7.44166 40.3208C7.67274 40.5519 7.97562 40.6675 8.27842 40.6675C8.5813 40.6675 8.88418 40.552 9.11518 40.3208L12.9817 36.4543C13.4438 35.9921 13.4438 35.2429 12.9817 34.7807C12.5197 34.3185 11.7703 34.3185 11.3082 34.7807Z" fill="#191919"/>
</svg>
