<svg width="20" height="20" viewBox="0 0 20 20" fill="none" xmlns="http://www.w3.org/2000/svg">
<path d="M2.03262 16.1998C1.54447 16.6879 1.54447 17.4794 2.03262 17.9675C2.52078 18.4557 3.31223 18.4557 3.80039 17.9675L2.9165 17.0837L2.03262 16.1998ZM17.9671 3.80088C18.4552 3.31272 18.4552 2.52126 17.9671 2.03311C17.4789 1.54495 16.6874 1.54495 16.1993 2.03311L17.0832 2.91699L17.9671 3.80088ZM2.9165 17.0837L3.80039 17.9675L10.0504 11.7175L9.1665 10.8337L8.28262 9.94978L2.03262 16.1998L2.9165 17.0837ZM10.8332 9.16699L11.7171 10.0509L17.9671 3.80088L17.0832 2.91699L16.1993 2.03311L9.94929 8.28311L10.8332 9.16699Z" fill="white"/>
<path d="M5.06208 1.875H4.02953C2.95228 1.875 2.41365 1.875 2.18845 2.15854C2.11822 2.24696 2.06886 2.3501 2.04405 2.46027C1.96452 2.81352 2.30242 3.23298 2.97822 4.07189L13.8935 17.6219C14.0702 17.8412 14.1585 17.9509 14.2749 18.02C14.3133 18.0428 14.3537 18.0621 14.3955 18.0777C14.5223 18.125 14.6632 18.125 14.9448 18.125H15.9716C17.0485 18.125 17.587 18.125 17.8122 17.8415C17.8824 17.7531 17.9318 17.65 17.9566 17.5398C18.0362 17.1867 17.6985 16.7672 17.0231 15.9284L6.11362 2.37838C5.93693 2.15893 5.84859 2.0492 5.73218 1.98009C5.69376 1.95728 5.65338 1.93795 5.61152 1.92233C5.48469 1.875 5.34382 1.875 5.06208 1.875Z" fill="white"/>
</svg>
