<svg width="18" height="17" viewBox="0 0 18 17" fill="none" xmlns="http://www.w3.org/2000/svg">
<path d="M17.4545 14.0089V11.0998C17.4545 10.9069 17.3779 10.7219 17.2415 10.5855C17.1051 10.4491 16.9202 10.3725 16.7273 10.3725C16.5344 10.3725 16.3494 10.4491 16.213 10.5855C16.0766 10.7219 16 10.9069 16 11.0998V14.0089C16 14.2017 15.9234 14.3867 15.787 14.5231C15.6506 14.6595 15.4656 14.7361 15.2727 14.7361H2.18182C1.98893 14.7361 1.80395 14.6595 1.66756 14.5231C1.53117 14.3867 1.45455 14.2017 1.45455 14.0089V11.0998C1.45455 10.9069 1.37792 10.7219 1.24153 10.5855C1.10514 10.4491 0.920157 10.3725 0.727273 10.3725C0.534388 10.3725 0.349404 10.4491 0.213013 10.5855C0.0766233 10.7219 0 10.9069 0 11.0998V14.0089C0 14.5875 0.22987 15.1425 0.63904 15.5516C1.04821 15.9608 1.60316 16.1907 2.18182 16.1907H15.2727C15.8514 16.1907 16.4063 15.9608 16.8155 15.5516C17.2247 15.1425 17.4545 14.5875 17.4545 14.0089ZM12.8145 10.2125L9.17818 13.1216C9.04978 13.223 8.89092 13.2782 8.72727 13.2782C8.56363 13.2782 8.40476 13.223 8.27636 13.1216L4.64 10.2125C4.5075 10.0874 4.42678 9.91718 4.41379 9.73544C4.40081 9.5537 4.45652 9.37371 4.56989 9.23108C4.68327 9.08845 4.84605 8.99357 5.02603 8.96521C5.20601 8.93685 5.39008 8.97708 5.54182 9.07795L8 11.0416V0.917947C8 0.725062 8.07662 0.540077 8.21301 0.403687C8.3494 0.267297 8.53439 0.190674 8.72727 0.190674C8.92016 0.190674 9.10514 0.267297 9.24153 0.403687C9.37792 0.540077 9.45455 0.725062 9.45455 0.917947V11.0416L11.9127 9.07795C11.986 9.00882 12.0728 8.95565 12.1676 8.92182C12.2625 8.88798 12.3633 8.87422 12.4638 8.8814C12.5642 8.88857 12.6621 8.91653 12.7512 8.96351C12.8403 9.01048 12.9186 9.07544 12.9813 9.15428C13.0439 9.23312 13.0895 9.32411 13.1152 9.42149C13.1409 9.51888 13.146 9.62053 13.1304 9.72001C13.1147 9.81949 13.0785 9.91463 13.0242 9.99941C12.9698 10.0842 12.8984 10.1567 12.8145 10.2125Z" fill="url(#paint0_linear_496_2865)"/>
<defs>
<linearGradient id="paint0_linear_496_2865" x1="0.763481" y1="0.39104" x2="15.2794" y2="16.8036" gradientUnits="userSpaceOnUse">
<stop stop-color="#F66234"/>
<stop offset="1" stop-color="#C8370B"/>
</linearGradient>
</defs>
</svg>
