<svg width="12" height="14" viewBox="0 0 12 14" fill="none" xmlns="http://www.w3.org/2000/svg">
<mask id="mask0_1302_86" style="mask-type:luminance" maskUnits="userSpaceOnUse" x="1" y="0" width="10" height="14">
<path d="M11 0H1V14H11V0Z" fill="white"/>
</mask>
<g mask="url(#mask0_1302_86)">
<path d="M4.60937 1.89286V12.1071C4.60937 12.4766 4.46262 12.8308 4.20141 13.092C3.9402 13.3533 3.58592 13.5 3.21651 13.5H2.75223C2.38282 13.5 2.02854 13.3533 1.76733 13.092C1.50612 12.8308 1.35938 12.4766 1.35938 12.1071V1.89286C1.35938 1.52345 1.50612 1.16917 1.76733 0.907958C2.02854 0.646747 2.38282 0.5 2.75223 0.5H3.21651C3.58592 0.5 3.9402 0.646747 4.20141 0.907958C4.46262 1.16917 4.60937 1.52345 4.60937 1.89286ZM9.25223 0.5H8.78794C8.41853 0.5 8.06426 0.646747 7.80304 0.907958C7.54183 1.16917 7.39509 1.52345 7.39509 1.89286V12.1071C7.39509 12.4766 7.54183 12.8308 7.80304 13.092C8.06426 13.3533 8.41853 13.5 8.78794 13.5H9.25223C9.62164 13.5 9.97592 13.3533 10.2371 13.092C10.4983 12.8308 10.6451 12.4766 10.6451 12.1071V1.89286C10.6451 1.52345 10.4983 1.16917 10.2371 0.907958C9.97592 0.646747 9.62164 0.5 9.25223 0.5Z" fill="white"/>
</g>
</svg>
